<svg xmlns="http://www.w3.org/2000/svg" viewBox="0 0 500 500"><g id="freepik--background-complete--inject-9"><path d="M87.59,264.33l-13.12.28-6.66.11c-2.23,0-4.47,0-6.7.06h-.44v-.45l-.06-11.19v-.5h.5l13.24.07c4.42,0,8.83.11,13.24.16h.28v.27c0,1.9-.09,3.79-.13,5.66Zm0,0-.14-5.65c0-1.86-.11-3.71-.13-5.54l.27.28c-4.41.05-8.82.16-13.24.16l-13.24.06.5-.5,0,11.19-.45-.44c2.18,0,4.36,0,6.55.05l6.58.11Z" style="fill:#ebebeb"></path><path d="M72.82,278.44l-13.12.28-6.66.11c-2.23.05-4.47,0-6.7.06H45.9v-.45l-.06-11.19v-.5h.5l13.24.07c4.41,0,8.83.11,13.24.16h.28v.27c0,1.9-.08,3.79-.13,5.66Zm0,0-.14-5.65c-.05-1.86-.11-3.71-.13-5.54l.27.28c-4.41.05-8.83.15-13.24.16l-13.24.06.5-.5-.05,11.19-.45-.44c2.18,0,4.36,0,6.55.05l6.58.11Z" style="fill:#ebebeb"></path><path d="M363.58,366.85l-13.12.28-6.66.11c-2.23,0-4.47,0-6.7.05h-.44v-.45l-.06-11.19v-.5h.5l13.24.06c4.42,0,8.83.11,13.24.16h.28v.27c0,1.9-.09,3.78-.14,5.65Zm0,0-.14-5.66c0-1.86-.11-3.7-.13-5.53l.27.27c-4.41.05-8.82.16-13.24.16l-13.24.07.5-.5-.05,11.19-.45-.45c2.18,0,4.36,0,6.55.06l6.58.11Z" style="fill:#ebebeb"></path><path d="M348.81,381l-13.12.28-6.67.11c-2.22,0-4.46,0-6.69,0h-.44V381l-.05-11.19v-.5h.5l13.24.06c4.41,0,8.83.11,13.24.16h.28v.27c0,1.9-.08,3.78-.13,5.65Zm0,0-.14-5.66c-.05-1.86-.11-3.7-.13-5.53l.27.27c-4.41,0-8.83.16-13.24.16l-13.24.07.5-.5L322.78,381l-.45-.45c2.18,0,4.36,0,6.55.06l6.57.11Z" style="fill:#ebebeb"></path><path d="M453.66,223.17l-13.13.28-6.66.11c-2.22.05-4.46,0-6.69.05h-.45v-.45L426.68,212v-.5h.5l13.24.06c4.41,0,8.83.11,13.24.17h.27V212c0,1.9-.08,3.79-.13,5.65Zm0,0-.14-5.66c0-1.86-.12-3.7-.13-5.53l.27.27c-4.41.05-8.83.16-13.24.16l-13.24.07.5-.5-.06,11.19-.44-.45c2.18,0,4.36,0,6.54.06l6.58.11Z" style="fill:#ebebeb"></path><path d="M438.89,61.14l-13.13.28-6.66.11c-2.22,0-4.46,0-6.69.06H412v-.45l0-11.19v-.5h.51l13.24.06c4.41,0,8.82.12,13.24.17h.27V50c0,1.9-.09,3.79-.13,5.66Zm0,0-.14-5.65c-.05-1.87-.12-3.71-.14-5.54l.28.27c-4.42.06-8.83.16-13.24.17l-13.24.06.5-.5-.06,11.19-.44-.44c2.18,0,4.35,0,6.54,0l6.58.11Z" style="fill:#ebebeb"></path><path d="M453.66,75.25l-13.13.28-6.66.11c-2.22,0-4.46,0-6.69.06h-.45v-.45l-.05-11.19v-.5h.5l13.24.06c4.41,0,8.83.12,13.24.17h.27v.27c0,1.9-.08,3.79-.13,5.66Zm0,0-.14-5.65c0-1.87-.12-3.71-.13-5.54l.27.27c-4.41.06-8.83.16-13.24.17l-13.24.06.5-.5-.06,11.19-.44-.44c2.18,0,4.36,0,6.54,0l6.58.11Z" style="fill:#ebebeb"></path><path d="M87.59,61.14l-13.12.28-6.66.11c-2.23,0-4.47,0-6.7.06h-.44v-.45L60.61,50v-.5h.5l13.24.06c4.42,0,8.83.12,13.24.17h.28V50c0,1.9-.09,3.79-.13,5.66Zm0,0-.14-5.65c0-1.87-.11-3.71-.13-5.54l.27.27c-4.41.06-8.82.16-13.24.17l-13.24.06.5-.5,0,11.19-.45-.44c2.18,0,4.36,0,6.55,0l6.58.11Z" style="fill:#ebebeb"></path><path d="M145.38,184.2l-13.13.28-6.66.11c-2.22,0-4.46,0-6.69,0h-.45v-.45l0-11.19v-.5h.5l13.24.06c4.41,0,8.82.11,13.24.16h.27V173c0,1.9-.08,3.78-.13,5.65Zm0,0-.14-5.66c-.05-1.86-.12-3.7-.13-5.53l.27.27c-4.42.05-8.83.16-13.24.16l-13.24.07.5-.5-.06,11.19-.44-.45c2.18,0,4.36,0,6.54.06l6.58.11Z" style="fill:#ebebeb"></path><rect x="50.02" y="146.96" width="34.08" height="34.08" transform="translate(231.05 96.94) rotate(90)" style="fill:#dbdbdb"></rect><rect x="55.3" y="152.24" width="23.51" height="23.51" transform="translate(231.05 96.94) rotate(90)" style="fill:#fff"></rect><polygon points="78.81 152.24 55.3 152.24 55.3 175.75 78.81 152.24" style="fill:#ebebeb"></polygon><rect x="46.69" y="146.96" width="3.33" height="34.08" transform="translate(96.71 327.99) rotate(180)" style="fill:#c7c7c7"></rect><rect x="92.21" y="146.96" width="34.08" height="34.08" transform="translate(273.24 54.75) rotate(90)" style="fill:#dbdbdb"></rect><rect x="97.49" y="152.24" width="23.51" height="23.51" transform="translate(273.24 54.75) rotate(90)" style="fill:#fff"></rect><polygon points="114.1 152.24 97.49 152.24 97.49 168.85 114.1 152.24" style="fill:#ebebeb"></polygon><rect x="88.88" y="146.96" width="3.33" height="34.08" transform="translate(181.08 327.99) rotate(180)" style="fill:#c7c7c7"></rect><rect x="65.88" y="173.33" width="44.54" height="76.26" transform="translate(299.61 123.31) rotate(90)" style="fill:#dbdbdb"></rect><rect x="71.39" y="178.89" width="33.52" height="65.13" transform="translate(299.61 123.31) rotate(90)" style="fill:#fff"></rect><polygon points="98.28 194.7 55.59 194.7 55.59 216.67 98.28 194.7" style="fill:#ebebeb"></polygon><rect x="46.69" y="189.19" width="3.33" height="44.54" transform="translate(96.71 422.92) rotate(180)" style="fill:#c7c7c7"></rect><rect x="50.02" y="62.74" width="76.26" height="76.26" transform="translate(189.03 12.73) rotate(90)" style="fill:#dbdbdb"></rect><rect x="55.58" y="68.31" width="65.14" height="65.13" style="fill:#fff"></rect><path d="M55.58,115.2c9.9-9.84,38-37.76,47-46.89h-47Z" style="fill:#ebebeb"></path><rect x="46.69" y="62.74" width="3.33" height="76.26" transform="translate(96.71 201.75) rotate(180)" style="fill:#c7c7c7"></rect><rect x="327.77" y="263" width="97.79" height="130.87" style="fill:#ebebeb"></rect><rect x="323.04" y="257.98" width="107.26" height="5.02" style="fill:#dbdbdb"></rect><rect x="430.3" y="257.98" width="33.73" height="5.02" style="fill:#ebebeb"></rect><rect x="425.56" y="263" width="33.13" height="130.87" style="fill:#dbdbdb"></rect><rect x="338.42" y="276.87" width="76.49" height="43.12" style="fill:none;stroke:#c7c7c7;stroke-miterlimit:10;stroke-width:0.25px"></rect><rect x="365.96" y="289.43" width="14.94" height="8.59" style="fill:#c7c7c7"></rect><rect x="370.37" y="290.07" width="14.94" height="7.29" style="fill:none;stroke:#c7c7c7;stroke-miterlimit:10;stroke-width:0.25px"></rect><rect x="338.42" y="331.35" width="76.49" height="43.12" style="fill:none;stroke:#c7c7c7;stroke-miterlimit:10;stroke-width:0.25px"></rect><rect x="365.96" y="343.91" width="14.94" height="8.59" style="fill:#c7c7c7"></rect><rect x="370.37" y="344.55" width="14.94" height="7.29" style="fill:none;stroke:#c7c7c7;stroke-miterlimit:10;stroke-width:0.25px"></rect></g><g id="freepik--Shadow--inject-9"><ellipse cx="250" cy="441.46" rx="153.5" ry="18.45" style="fill:#ebebeb"></ellipse></g><g id="freepik--Floor--inject-9"><polygon points="35.07 393.87 88.8 393.63 142.53 393.54 250 393.38 357.47 393.54 411.2 393.63 464.93 393.87 411.2 394.12 357.47 394.21 250 394.37 142.53 394.2 88.8 394.12 35.07 393.87" style="fill:#263238"></polygon></g><g id="freepik--Device--inject-9"><path d="M331.58,62.35H168.4a16.66,16.66,0,0,0-16.5,16.82V415.06a16.67,16.67,0,0,0,16.5,16.81H331.58a16.68,16.68,0,0,0,16.52-16.81V79.17A16.67,16.67,0,0,0,331.58,62.35Zm6.19,342.32c0,8.84-6.62,16-14.78,16H177c-8.18,0-14.8-7.15-14.8-16V91.9c0-18,6.62-18.89,14.8-18.89h29.25c1.7,0,3.09,1.93,3.09,4.32v1c0,5.61,3.07,5.63,6.83,5.63H283.8c3.8,0,6.85,0,6.85-5.63v-1c0-2.39,1.37-4.32,3.1-4.32H323c8.16,0,14.78,2.39,14.78,18.89Z" style="fill:#263238"></path><path d="M337.78,91.9V404.67c0,8.84-6.62,16-14.78,16H177c-8.18,0-14.8-7.15-14.8-16V91.9c0-18,6.62-18.89,14.8-18.89h29.25c1.7,0,3.09,1.93,3.09,4.32v1c0,5.61,3.07,5.63,6.83,5.63h67.62c3.8,0,6.85,0,6.85-5.63v-1c0-2.39,1.37-4.32,3.1-4.32H323C331.16,73,337.78,75.4,337.78,91.9Z" style="fill:#fff"></path><path d="M337.78,91.9v30.16H162.22V91.9c0-18,6.62-18.89,14.8-18.89h29.25c1.7,0,3.09,1.93,3.09,4.33v1c0,5.61,3.07,5.63,6.83,5.63h67.62c3.8,0,6.85,0,6.85-5.63v-1c0-2.4,1.37-4.33,3.1-4.33H323C331.16,73,337.78,75.41,337.78,91.9Z" style="fill:#FFC727"></path><path d="M259.22,77H240.77a1.14,1.14,0,0,1-1.14-1.14h0a1.14,1.14,0,0,1,1.14-1.14h18.45a1.14,1.14,0,0,1,1.14,1.14h0A1.14,1.14,0,0,1,259.22,77Z" style="fill:#fff"></path><g id="freepik--u5Zjqx--inject-9"><path d="M201.21,80l-.28.28-.16.16a3.87,3.87,0,0,0-2.72-1.13,3.8,3.8,0,0,0-2.73,1.14l-.15-.16-.28-.28h0l0,0,.36-.32a3.92,3.92,0,0,1,.82-.52,4.32,4.32,0,0,1,1.1-.37l.55-.07h.47l.38,0a3.84,3.84,0,0,1,1,.24,4.17,4.17,0,0,1,.68.31,5.06,5.06,0,0,1,.65.46l.3.27Z" style="fill:#fff"></path><path d="M196.22,81.36l-.45-.44a3.11,3.11,0,0,1,1.82-.91,3.19,3.19,0,0,1,2.73.9l-.45.45a2.57,2.57,0,0,0-3.65,0Z" style="fill:#fff"></path><path d="M199.42,81.81l-.44.44a1.32,1.32,0,0,0-1.87,0l-.45-.44A1.94,1.94,0,0,1,199.42,81.81Z" style="fill:#fff"></path><path d="M198.44,82.65a.4.4,0,1,1-.4-.4A.4.4,0,0,1,198.44,82.65Z" style="fill:#fff"></path></g><path d="M173.66,80.89a1.17,1.17,0,1,1,1.16,1.16A1.16,1.16,0,0,1,173.66,80.89Z" style="fill:#fff"></path><path d="M177.32,80.89a1.17,1.17,0,1,1,1.17,1.16A1.17,1.17,0,0,1,177.32,80.89Z" style="fill:#fff"></path><path d="M181,80.89a1.17,1.17,0,1,1,1.16,1.16A1.16,1.16,0,0,1,181,80.89Z" style="fill:#fff"></path><path d="M184.65,80.89a1.17,1.17,0,1,1,1.17,1.16A1.17,1.17,0,0,1,184.65,80.89Z" style="fill:#fff"></path><path d="M188.32,80.89a1.17,1.17,0,1,1,1.16,1.16A1.16,1.16,0,0,1,188.32,80.89Z" style="fill:#fff"></path><path d="M324.61,83.43h-9.48V79h9.48Zm-9-.49h8.5V79.52h-8.5Z" style="fill:#fff"></path><rect x="315.92" y="79.78" width="6.11" height="2.9" style="fill:#fff"></rect><rect x="324.61" y="80.06" width="0.84" height="2.35" style="fill:#fff"></rect><polygon points="178.85 109.69 173.66 104.83 178.85 99.98 179.65 100.83 175.38 104.83 179.65 108.84 178.85 109.69" style="fill:#fff"></polygon><path d="M321.86,110.05h-3.5v-1.22a.28.28,0,0,0-.16-.25,2.88,2.88,0,0,1-.38-.22.29.29,0,0,0-.3,0l-1,.6-1.75-3,1.06-.61a.3.3,0,0,0,.13-.26,1.77,1.77,0,0,1,0-.23,1.48,1.48,0,0,1,0-.21.31.31,0,0,0-.13-.27l-1.06-.61,1.75-3,1,.6a.28.28,0,0,0,.29,0l.39-.23a.26.26,0,0,0,.16-.24V99.62h3.5v1.22a.27.27,0,0,0,.15.24,3.64,3.64,0,0,1,.39.23.29.29,0,0,0,.3,0l1.05-.6,1.75,3-1.06.61a.26.26,0,0,0-.13.26v.44a.27.27,0,0,0,.13.27l1.06.61-1.75,3-1.06-.6a.26.26,0,0,0-.29,0,2.46,2.46,0,0,1-.39.22.29.29,0,0,0-.15.25Zm-2.75-.75h2v-.47a1,1,0,0,1,.56-.91,3.37,3.37,0,0,0,.32-.19,1,1,0,0,1,1.08,0l.4.23,1-1.73-.41-.23a1,1,0,0,1-.5-1v-.37a1,1,0,0,1,.5-1l.41-.23-1-1.73-.4.23a1,1,0,0,1-1.08,0,3.37,3.37,0,0,0-.32-.19,1,1,0,0,1-.56-.91v-.47h-2v.47a1,1,0,0,1-.57.91l-.32.19a1,1,0,0,1-1.07,0l-.41-.23-1,1.73.4.23a1,1,0,0,1,.51,1V105a1,1,0,0,1-.51,1l-.4.23,1,1.73.41-.23a1,1,0,0,1,1.08,0l.31.19a1,1,0,0,1,.57.91Zm1-1.84a2.63,2.63,0,1,1,2.62-2.63A2.63,2.63,0,0,1,320.11,107.46Zm0-4.5a1.88,1.88,0,1,0,1.87,1.87A1.88,1.88,0,0,0,320.11,103Z" style="fill:#fff"></path><rect x="176" y="181.36" width="141.86" height="208.08" style="fill:#a6a6a6"></rect><path d="M309.07,221.92c.72,2.67-2.68,5.45-2.79,5.84s3.06,28.32,1.37,32.14S279.06,276,273.71,273.09s-37-75.75-38.62-77.46-10.68-.06-11.4,1-.09,7.11-1.18,8.62-13.9.24-13.9.24l.39-2.25s7.33-.47,8.15-1.12-.62-8.14.59-10.55,20.48-5.31,23.73-3.61,37.47,60.28,38.75,61.58c.69.7,1.72.26,1.29-1.85-.34-1.67-4.22-16.69-4.54-17.61s-3.62-3.6-4.55-5.21,1.57-5.58,2.73-6.32,14.24-4.28,18.75-3.77S308.3,219.05,309.07,221.92Z" style="fill:#FFC727"></path><path d="M309.07,221.92c.72,2.67-2.68,5.45-2.79,5.84s3.06,28.32,1.37,32.14S279.06,276,273.71,273.09s-37-75.75-38.62-77.46-10.68-.06-11.4,1-.09,7.11-1.18,8.62-13.9.24-13.9.24l.39-2.25s7.33-.47,8.15-1.12-.62-8.14.59-10.55,20.48-5.31,23.73-3.61,37.47,60.28,38.75,61.58c.69.7,1.72.26,1.29-1.85-.34-1.67-4.22-16.69-4.54-17.61s-3.62-3.6-4.55-5.21,1.57-5.58,2.73-6.32,14.24-4.28,18.75-3.77S308.3,219.05,309.07,221.92Z" style="opacity:0.2"></path><path d="M305,222.56c-.32,2-12.55,4.77-14.45,4.85-2.92.12-14.49-3.11-14.36-5.15.1-1.49,14.22-4.93,17.15-4.67C295.21,217.76,305.23,220.76,305,222.56Z" style="fill:#263238"></path><path d="M310.35,237.3a13.8,13.8,0,0,1,.15,3.18c-.18.12-9.63,1.2-9.82,1a4.61,4.61,0,0,1-.1-2.23C300.77,239.2,310.26,237,310.35,237.3Z" style="fill:#263238"></path><path d="M212.65,202.29a23.48,23.48,0,0,1-.3,4.2c-.2.16-11-2.21-11-2.48S212.59,202,212.65,202.29Z" style="fill:#263238"></path><path d="M229,195.59c.06-.19-.22-7.89-.37-8a11.41,11.41,0,0,0-2.27.33c-.25,0,1.55,7.74,1.68,7.85S228.92,195.76,229,195.59Z" style="fill:#263238"></path><path d="M232.13,195.31c.08-.18.51-7.87.38-8a10.66,10.66,0,0,0-2.29.11c-.25,0,.82,7.85.95,8S232.05,195.48,232.13,195.31Z" style="fill:#263238"></path><path d="M243,200.15c-.2,0-6.21,2.11-6.31,2.29a6,6,0,0,0,.58,1.67c.09.23,6.06-2.92,6.13-3.08S243.15,200.17,243,200.15Z" style="fill:#263238"></path><path d="M242,197.52c.83-.29,2.66.94,3.12,2.08.71,1.77.54,3.48-.21,3.89-1,.53-2.51-.54-3.39-2.1C241,200.54,240.77,197.94,242,197.52Z" style="fill:#263238"></path><path d="M303,245c.88,0,2.25,1.69,2.35,2.93.14,1.9-.53,3.47-1.37,3.64-1.08.22-2.23-1.28-2.6-3C301.13,247.61,301.7,245.06,303,245Z" style="fill:#263238"></path><path d="M251.24,212.39a66.45,66.45,0,0,0,6.14-2.72c.09-.18-.58-1.41-.69-1.63s-5.85,3.33-5.91,3.5S251.06,212.38,251.24,212.39Z" style="fill:#FFC727"></path><path d="M250.51,209.76a2,2,0,0,1,1.51,3.68,2.12,2.12,0,0,1-2.5-1.15A2,2,0,0,1,250.51,209.76Z" style="fill:#FFC727"></path><g style="opacity:0.1"><path d="M251.24,212.39a66.45,66.45,0,0,0,6.14-2.72c.09-.18-.58-1.41-.69-1.63s-5.85,3.33-5.91,3.5S251.06,212.38,251.24,212.39Z"></path><path d="M250.51,209.76a2,2,0,0,1,1.51,3.68,2.12,2.12,0,0,1-2.5-1.15A2,2,0,0,1,250.51,209.76Z"></path></g><path d="M256.72,221.37a63.81,63.81,0,0,0,6.14-2.71,6.57,6.57,0,0,0-.69-1.63c-.11-.22-5.85,3.33-5.91,3.5S256.54,221.37,256.72,221.37Z" style="fill:#FFC727"></path><path d="M255.9,218.55a2.21,2.21,0,0,1,1.68,4.08,2.34,2.34,0,0,1-2.78-1.28A2.23,2.23,0,0,1,255.9,218.55Z" style="fill:#FFC727"></path><g style="opacity:0.1"><path d="M256.72,221.37a63.81,63.81,0,0,0,6.14-2.71,6.57,6.57,0,0,0-.69-1.63c-.11-.22-5.85,3.33-5.91,3.5S256.54,221.37,256.72,221.37Z"></path><path d="M255.9,218.55a2.21,2.21,0,0,1,1.68,4.08,2.34,2.34,0,0,1-2.78-1.28A2.23,2.23,0,0,1,255.9,218.55Z"></path></g><path d="M262.2,230.36c.2,0,6.05-2.52,6.14-2.71a6.57,6.57,0,0,0-.69-1.63c-.11-.22-5.85,3.33-5.91,3.5S262,230.36,262.2,230.36Z" style="fill:#FFC727"></path><path d="M261.33,227.43a2.33,2.33,0,0,1,1.77,4.3,2.47,2.47,0,0,1-2.93-1.35A2.36,2.36,0,0,1,261.33,227.43Z" style="fill:#FFC727"></path><g style="opacity:0.1"><path d="M262.2,230.36c.2,0,6.05-2.52,6.14-2.71a6.57,6.57,0,0,0-.69-1.63c-.11-.22-5.85,3.33-5.91,3.5S262,230.36,262.2,230.36Z"></path><path d="M261.33,227.43a2.33,2.33,0,0,1,1.77,4.3,2.47,2.47,0,0,1-2.93-1.35A2.36,2.36,0,0,1,261.33,227.43Z"></path></g><path d="M267.68,239.35c.2,0,6.05-2.52,6.14-2.71a6.57,6.57,0,0,0-.69-1.63c-.11-.22-5.85,3.33-5.91,3.5S267.49,239.35,267.68,239.35Z" style="fill:#FFC727"></path><path d="M266.71,236.18a2.59,2.59,0,0,1,2,4.78,2.74,2.74,0,0,1-3.26-1.5A2.61,2.61,0,0,1,266.71,236.18Z" style="fill:#FFC727"></path><g style="opacity:0.1"><path d="M267.68,239.35c.2,0,6.05-2.52,6.14-2.71a6.57,6.57,0,0,0-.69-1.63c-.11-.22-5.85,3.33-5.91,3.5S267.49,239.35,267.68,239.35Z"></path><path d="M266.71,236.18a2.59,2.59,0,0,1,2,4.78,2.74,2.74,0,0,1-3.26-1.5A2.61,2.61,0,0,1,266.71,236.18Z"></path></g><path d="M273.15,248.34c.21,0,6.06-2.52,6.15-2.71a7,7,0,0,0-.69-1.63c-.11-.22-5.85,3.33-5.91,3.49S273,248.34,273.15,248.34Z" style="fill:#FFC727"></path><path d="M272,245.17a2.89,2.89,0,0,1,2.19,5.34,3.05,3.05,0,0,1-3.63-1.67A2.93,2.93,0,0,1,272,245.17Z" style="fill:#FFC727"></path><g style="opacity:0.1"><path d="M273.15,248.34c.21,0,6.06-2.52,6.15-2.71a7,7,0,0,0-.69-1.63c-.11-.22-5.85,3.33-5.91,3.49S273,248.34,273.15,248.34Z"></path><path d="M272,245.17a2.89,2.89,0,0,1,2.19,5.34,3.05,3.05,0,0,1-3.63-1.67A2.93,2.93,0,0,1,272,245.17Z"></path></g><path d="M301.72,325.05l-109.27,1L194,200s23-8.34,40.81,2.69,12,44.09,22.84,54.83,25.93,9.14,35.74,24.48S301.72,325.05,301.72,325.05Z" style="fill:#263238"></path><polygon points="192.33 328.26 199.21 328.2 201.05 362.71 192.54 360.79 192.33 328.26" style="fill:#fff"></polygon><polygon points="212.81 328.07 215.58 361.6 206.91 362.97 206.35 328.13 212.81 328.07" style="fill:#fff"></polygon><polygon points="220.73 328 228.15 327.92 230 361.59 221.18 361.29 220.73 328" style="fill:#fff"></polygon><polygon points="240.4 327.81 242.7 360.38 234.78 361.19 234.47 327.87 240.4 327.81" style="fill:#fff"></polygon><polygon points="247.62 327.74 253.32 327.69 255.19 361.61 247.9 360.98 247.62 327.74" style="fill:#fff"></polygon><polygon points="259.13 327.63 264.46 327.58 266.22 359.09 259.05 358.26 259.13 327.63" style="fill:#fff"></polygon><polygon points="275.49 327.45 278.68 360.39 270.8 360.75 270.33 327.49 275.49 327.45" style="fill:#fff"></polygon><polygon points="287.86 327.34 289.69 358.64 281.61 357.98 281.19 327.4 287.86 327.34" style="fill:#fff"></polygon><polygon points="301.28 327.24 301.91 360.32 293.52 361.15 294.58 327.3 301.28 327.24" style="fill:#fff"></polygon><polygon points="250.4 327.68 250.93 348.28 245.43 348.88 246.33 327.52 250.4 327.68" style="fill:#263238"></polygon><polygon points="200.94 328.27 202.5 349.96 197.15 350.51 196.95 328.31 200.94 328.27" style="fill:#263238"></polygon><polygon points="222.74 328.14 223.96 348.75 218.56 348.3 218.28 328.18 222.74 328.14" style="fill:#263238"></polygon><polygon points="297.85 327.13 299.07 347.74 293.67 347.3 293.39 327.18 297.85 327.13" style="fill:#263238"></polygon><polygon points="265.89 327.59 267.6 347.47 262.27 348.31 261.93 327.63 265.89 327.59" style="fill:#263238"></polygon><polygon points="283.65 327.38 285.16 348.46 279.94 348.99 279.74 327.42 283.65 327.38" style="fill:#263238"></polygon><path d="M200.11,318.48a2.87,2.87,0,0,0,.63.3,3.21,3.21,0,0,0,1,.16,1.77,1.77,0,0,0,.9-.2,1.17,1.17,0,0,0,.51-.6,3,3,0,0,0,.23-1c0-.4.06-.87.06-1.4v-4.86h1.85v4.86a17.11,17.11,0,0,1-.11,2,4.05,4.05,0,0,1-.49,1.53,2.52,2.52,0,0,1-1.06,1,4.34,4.34,0,0,1-1.89.35,3.62,3.62,0,0,1-2.07-.59Z" style="fill:#fff"></path><path d="M209.71,310.88h1.64l3.63,9.55h-1.91l-.89-2.38h-3.33l-.88,2.38h-1.91Zm2.14,5.87L210.53,313l-1.37,3.76Z" style="fill:#fff"></path><path d="M215.44,319l5.39-6.52h-5.25v-1.63H223v1.4l-5.21,6.52H223v1.63h-7.56Z" style="fill:#fff"></path><path d="M223.86,319l5.39-6.52H224v-1.63h7.38v1.4l-5.21,6.52h5.25v1.63h-7.57Z" style="fill:#fff"></path><path d="M236.11,320.43v-9.55h6.41v1.63H238V315h3.79v1.51H238v3.95Z" style="fill:#fff"></path><path d="M250.45,318.8v1.63h-6.62v-9.55h6.5v1.63h-4.65v2.3h4v1.51h-4v2.48Z" style="fill:#fff"></path><path d="M257.39,313.38a3,3,0,0,0-.34-.25,4.85,4.85,0,0,0-.61-.32,5,5,0,0,0-.77-.26,3.48,3.48,0,0,0-.85-.11,1.87,1.87,0,0,0-1.14.29.92.92,0,0,0-.38.79.77.77,0,0,0,.15.49,1.18,1.18,0,0,0,.41.34,3.32,3.32,0,0,0,.67.27l.95.26a12.8,12.8,0,0,1,1.27.4,3.22,3.22,0,0,1,1,.54,2.07,2.07,0,0,1,.61.77,2.47,2.47,0,0,1,.22,1.11,2.79,2.79,0,0,1-.29,1.31,2.37,2.37,0,0,1-.78.88,3.21,3.21,0,0,1-1.13.49,5.85,5.85,0,0,1-1.34.16,7,7,0,0,1-2.12-.33,6.44,6.44,0,0,1-1.88-.91l.82-1.6a2.47,2.47,0,0,0,.43.32,6.44,6.44,0,0,0,.75.39,5,5,0,0,0,1,.32,4.32,4.32,0,0,0,1.08.14c1,0,1.53-.33,1.53-1a.86.86,0,0,0-.17-.53,1.52,1.52,0,0,0-.5-.37,4.9,4.9,0,0,0-.78-.3l-1-.29a10.15,10.15,0,0,1-1.19-.41,3.1,3.1,0,0,1-.84-.53,2,2,0,0,1-.51-.7,2.45,2.45,0,0,1-.16-.95,3.13,3.13,0,0,1,.26-1.29,2.65,2.65,0,0,1,.75-.94,3.43,3.43,0,0,1,1.11-.57,4.56,4.56,0,0,1,1.36-.19,5.24,5.24,0,0,1,1.85.31,6.61,6.61,0,0,1,1.48.75Z" style="fill:#fff"></path><path d="M267,312.51h-3v7.92h-1.85v-7.92h-3.05v-1.63H267Z" style="fill:#fff"></path><path d="M268.2,320.43v-9.55h1.85v9.55Z" style="fill:#fff"></path><path d="M273,310.88l2.58,7.22,2.55-7.22h1.95l-3.72,9.55h-1.56l-3.75-9.55Z" style="fill:#fff"></path><path d="M283,310.88h1.64l3.63,9.55h-1.91l-.89-2.38h-3.33l-.88,2.38h-1.91Zm2.14,5.87L283.85,313l-1.37,3.76Z" style="fill:#fff"></path><path d="M289.35,320.43v-9.55h1.85v7.92h4.87v1.63Z" style="fill:#fff"></path><path d="M257.68,367.26h1.08l2.41,6.32H259.9l-.58-1.58h-2.21l-.58,1.58h-1.27Zm1.41,3.88-.87-2.49-.91,2.49Z" style="fill:#fff"></path><path d="M261.86,373.58v-6.32h2.68a1.85,1.85,0,0,1,.81.18,2,2,0,0,1,.63.48,2.16,2.16,0,0,1,.42.68,2,2,0,0,1,.15.76,2.14,2.14,0,0,1-.14.78,2.17,2.17,0,0,1-.4.67,2.08,2.08,0,0,1-.62.47,1.8,1.8,0,0,1-.8.18h-1.5v2.12Zm1.23-3.2h1.43a.69.69,0,0,0,.56-.28,1.13,1.13,0,0,0,.23-.74,1.5,1.5,0,0,0-.07-.44,1.13,1.13,0,0,0-.19-.32.73.73,0,0,0-.27-.2.92.92,0,0,0-.32-.07h-1.37Z" style="fill:#fff"></path><path d="M267.41,373.58v-6.32h2.8a1.8,1.8,0,0,1,.8.18,2,2,0,0,1,.64.48,2.35,2.35,0,0,1,.42.68,2,2,0,0,1,.15.76,2.11,2.11,0,0,1-.31,1.11,1.73,1.73,0,0,1-.83.73l1.44,2.38h-1.38l-1.29-2.12h-1.21v2.12Zm1.23-3.2h1.54a.65.65,0,0,0,.31-.08.78.78,0,0,0,.26-.22,1.09,1.09,0,0,0,.17-.32,1.34,1.34,0,0,0,.06-.4,1.07,1.07,0,0,0-.07-.41,1.06,1.06,0,0,0-.19-.33.94.94,0,0,0-.28-.21.72.72,0,0,0-.32-.08h-1.48Z" style="fill:#fff"></path><path d="M273.33,373.58v-6.32h1.23v6.32Z" style="fill:#fff"></path><path d="M275.88,373.58v-6.32h1.22v5.24h3.23v1.08Z" style="fill:#fff"></path><path d="M285.71,371.48a1.4,1.4,0,0,1,.89.53,1.62,1.62,0,0,1,.34,1.05,1.73,1.73,0,0,1-.16.76,1.81,1.81,0,0,1-.46.57,2.18,2.18,0,0,1-.73.37,3.59,3.59,0,0,1-1,.13,3.21,3.21,0,0,1-1.2-.22,2.24,2.24,0,0,1-.87-.64l.68-.84a1.7,1.7,0,0,0,.55.45,1.73,1.73,0,0,0,.8.16,1.39,1.39,0,0,0,.83-.21.79.79,0,0,0,.29-.66.86.86,0,0,0-.33-.72,1.72,1.72,0,0,0-1-.24h-.25v-.9h.28a1.34,1.34,0,0,0,.85-.24.77.77,0,0,0,.3-.63.61.61,0,0,0-.25-.54,1.07,1.07,0,0,0-.65-.18,1.4,1.4,0,0,0-.73.19,1.47,1.47,0,0,0-.53.52l-.75-.83A1.4,1.4,0,0,1,283,369a2.43,2.43,0,0,1,.5-.29,2.89,2.89,0,0,1,.61-.18,3.08,3.08,0,0,1,.68-.07,3,3,0,0,1,.82.11,2.19,2.19,0,0,1,.65.32,1.54,1.54,0,0,1,.42.5,1.37,1.37,0,0,1,.15.64,1.49,1.49,0,0,1-.32,1,1.42,1.42,0,0,1-.36.33A1.25,1.25,0,0,1,285.71,371.48Z" style="fill:#fff"></path><path d="M292.31,371a3.4,3.4,0,0,1-.17,1.08,2.81,2.81,0,0,1-.48.85,2.1,2.1,0,0,1-1.65.77,2.13,2.13,0,0,1-.91-.2,2.23,2.23,0,0,1-.73-.57,2.81,2.81,0,0,1-.48-.85,3.52,3.52,0,0,1,0-2.16,2.86,2.86,0,0,1,.48-.86,2.2,2.2,0,0,1,.73-.56,2,2,0,0,1,.91-.21,2.07,2.07,0,0,1,.92.21,2.2,2.2,0,0,1,.73.56,2.86,2.86,0,0,1,.48.86A3.4,3.4,0,0,1,292.31,371Zm-1.2,0a2.71,2.71,0,0,0-.08-.66,1.5,1.5,0,0,0-.23-.51,1.18,1.18,0,0,0-.34-.33,1,1,0,0,0-.9,0,1.18,1.18,0,0,0-.34.33,1.5,1.5,0,0,0-.23.51,2.71,2.71,0,0,0-.08.66,2.63,2.63,0,0,0,.08.65,1.69,1.69,0,0,0,.23.51,1,1,0,0,0,.34.32.9.9,0,0,0,.9,0,1,1,0,0,0,.34-.32,1.69,1.69,0,0,0,.23-.51A2.63,2.63,0,0,0,291.11,371Z" style="fill:#fff"></path><path d="M296.09,373.34a5.54,5.54,0,0,1-.59.21,2.53,2.53,0,0,1-.73.11,1.45,1.45,0,0,1-.47-.07.93.93,0,0,1-.38-.2.92.92,0,0,1-.26-.35,1.22,1.22,0,0,1-.1-.53v-2.68h-.62v-.92h.62V367.4h1.19v1.51h1v.92h-1v2.28a.42.42,0,0,0,.13.35.49.49,0,0,0,.32.1,1.13,1.13,0,0,0,.36-.06l.29-.11Z" style="fill:#fff"></path><path d="M301,373.58h-1.19V371a1.39,1.39,0,0,0-.2-.82.71.71,0,0,0-.58-.26,1.09,1.09,0,0,0-.34.07,1.68,1.68,0,0,0-.34.2,2.16,2.16,0,0,0-.29.31,1.2,1.2,0,0,0-.2.39v2.73h-1.19v-6.5h1.19v2.69a1.79,1.79,0,0,1,.7-.69,1.91,1.91,0,0,1,1-.25,1.5,1.5,0,0,1,.74.16,1.24,1.24,0,0,1,.44.41,1.61,1.61,0,0,1,.22.59,3.74,3.74,0,0,1,.06.68Z" style="fill:#fff"></path><path d="M272.48,380.27a2.17,2.17,0,0,1-1.4,2,2.46,2.46,0,0,1-.91.17,2.34,2.34,0,0,1-1-.2,2,2,0,0,1-.73-.57,2.44,2.44,0,0,1-.46-.91,4.19,4.19,0,0,1-.16-1.22A6.36,6.36,0,0,1,268,378a3.55,3.55,0,0,1,.49-1.11,2.18,2.18,0,0,1,.78-.68,2.12,2.12,0,0,1,1-.23,2.37,2.37,0,0,1,1.1.25,2.41,2.41,0,0,1,.85.74l-.68.75a1.52,1.52,0,0,0-1.28-.71,1.16,1.16,0,0,0-1,.47,2.3,2.3,0,0,0-.37,1.34,1.24,1.24,0,0,1,.53-.51,1.58,1.58,0,0,1,.8-.19,2.27,2.27,0,0,1,.86.16,2.12,2.12,0,0,1,1.18,1.12A2.08,2.08,0,0,1,272.48,380.27Zm-2.3,1.19a1.15,1.15,0,0,0,.82-.35,1.25,1.25,0,0,0,.25-.38,1.22,1.22,0,0,0,.09-.46,1.13,1.13,0,0,0-.09-.45,1.17,1.17,0,0,0-.62-.62,1.13,1.13,0,0,0-.45-.09,1.22,1.22,0,0,0-.46.09,1.34,1.34,0,0,0-.37.25,1.15,1.15,0,0,0-.25.37,1.13,1.13,0,0,0-.09.45,1.06,1.06,0,0,0,.1.46,1.09,1.09,0,0,0,.25.38,1.37,1.37,0,0,0,.37.26A1.13,1.13,0,0,0,270.18,381.46Z" style="fill:#fff"></path><path d="M273.46,379.05v-1.28h1v1.28Zm0,3.33V381.1h1v1.28Z" style="fill:#fff"></path><path d="M280.07,379.77a3.4,3.4,0,0,1-.17,1.08,2.86,2.86,0,0,1-.48.86,2.13,2.13,0,0,1-1.65.76,2.13,2.13,0,0,1-1.64-.76,2.86,2.86,0,0,1-.48-.86,3.52,3.52,0,0,1,0-2.16,2.81,2.81,0,0,1,.48-.85,2.26,2.26,0,0,1,.73-.57,2,2,0,0,1,.91-.2,2.06,2.06,0,0,1,.92.2,2.37,2.37,0,0,1,.73.57,2.81,2.81,0,0,1,.48.85A3.4,3.4,0,0,1,280.07,379.77Zm-1.2,0a2.69,2.69,0,0,0-.08-.65,1.71,1.71,0,0,0-.23-.51.92.92,0,0,0-.35-.33.83.83,0,0,0-.44-.12.93.93,0,0,0-.79.45,1.5,1.5,0,0,0-.23.51,2.69,2.69,0,0,0-.08.65,2.57,2.57,0,0,0,.08.65,1.5,1.5,0,0,0,.23.51,1.07,1.07,0,0,0,.34.33.89.89,0,0,0,.45.12.83.83,0,0,0,.44-.12,1.1,1.1,0,0,0,.35-.33,1.71,1.71,0,0,0,.23-.51A2.57,2.57,0,0,0,278.87,379.77Z" style="fill:#fff"></path><path d="M285.54,379.77a3.14,3.14,0,0,1-.18,1.08,2.49,2.49,0,0,1-.48.86,2.1,2.1,0,0,1-.73.56,2.13,2.13,0,0,1-.91.2,2.17,2.17,0,0,1-.92-.2,2.07,2.07,0,0,1-.72-.56,2.49,2.49,0,0,1-.48-.86,3.33,3.33,0,0,1,0-2.16,2.44,2.44,0,0,1,.48-.85,2.22,2.22,0,0,1,.72-.57,2,2,0,0,1,.92-.2,2,2,0,0,1,.91.2,2.26,2.26,0,0,1,.73.57,2.44,2.44,0,0,1,.48.85A3.14,3.14,0,0,1,285.54,379.77Zm-1.21,0a2.27,2.27,0,0,0-.08-.65,1.71,1.71,0,0,0-.22-.51,1,1,0,0,0-.35-.33.83.83,0,0,0-.44-.12.84.84,0,0,0-.45.12,1,1,0,0,0-.35.33,1.49,1.49,0,0,0-.22.51,2.27,2.27,0,0,0-.08.65,2.18,2.18,0,0,0,.08.65,1.49,1.49,0,0,0,.22.51,1.21,1.21,0,0,0,.35.33.84.84,0,0,0,.45.12.83.83,0,0,0,.44-.12,1.21,1.21,0,0,0,.35-.33,1.71,1.71,0,0,0,.22-.51A2.18,2.18,0,0,0,284.33,379.77Z" style="fill:#fff"></path><path d="M291.45,382.47a1.85,1.85,0,0,1-1-.24,1.72,1.72,0,0,1-.64-.67v2.72h-1.2v-6.56h1v.8a2,2,0,0,1,.67-.65,1.83,1.83,0,0,1,.95-.23,2,2,0,0,1,.87.19,2.07,2.07,0,0,1,.69.51,2.56,2.56,0,0,1,.45.77,2.6,2.6,0,0,1,.17.93,2.91,2.91,0,0,1-.15.95,2.45,2.45,0,0,1-.43.78,1.86,1.86,0,0,1-.64.51A1.74,1.74,0,0,1,291.45,382.47Zm-.4-1a1,1,0,0,0,.49-.12,1.3,1.3,0,0,0,.39-.31,1.36,1.36,0,0,0,.25-.46,1.6,1.6,0,0,0,.09-.53,1.46,1.46,0,0,0-.37-1,1.33,1.33,0,0,0-.41-.29,1.26,1.26,0,0,0-.51-.11,1.07,1.07,0,0,0-.35.06,1.26,1.26,0,0,0-.33.16,1.6,1.6,0,0,0-.27.25,1.09,1.09,0,0,0-.18.31v1.1a1.47,1.47,0,0,0,.49.66A1.07,1.07,0,0,0,291.05,381.46Z" style="fill:#fff"></path><path d="M301.54,382.38h-1.19v-2.62a1.4,1.4,0,0,0-.19-.82.62.62,0,0,0-.53-.25,1,1,0,0,0-.67.27,1.48,1.48,0,0,0-.44.71v2.71h-1.2v-2.62a1.4,1.4,0,0,0-.19-.82.62.62,0,0,0-.53-.25,1,1,0,0,0-.66.26,1.5,1.5,0,0,0-.45.71v2.72H294.3v-4.66h1.08v.86a1.75,1.75,0,0,1,.7-.7,2.15,2.15,0,0,1,1-.24,1.34,1.34,0,0,1,.91.28,1.32,1.32,0,0,1,.41.7,2,2,0,0,1,.72-.73,1.93,1.93,0,0,1,1-.25,1.34,1.34,0,0,1,.7.16,1.13,1.13,0,0,1,.43.41,1.88,1.88,0,0,1,.21.59,3.71,3.71,0,0,1,.05.67Z" style="fill:#fff"></path><path d="M185.28,295.58a17,17,0,0,1-.74-5.14,7.57,7.57,0,0,1,.61-2.67,5.56,5.56,0,0,1,3.79-2.74c2.58-.67,4.54,0,5.88,2.11a17.52,17.52,0,0,1,2,5l.87,3.31-3.45.9-.87-3.33a15.92,15.92,0,0,0-1.33-3.8,2.67,2.67,0,0,0-1.1-1.14,1.83,1.83,0,0,0-1.21,0,2,2,0,0,0-1.6,1.84,12.85,12.85,0,0,0,.56,4.34l3.38,12.95a16.45,16.45,0,0,0,1.72,4.62,1.91,1.91,0,0,0,2.22.86,1.88,1.88,0,0,0,1.5-1.84,17.3,17.3,0,0,0-.77-4.88l-.87-3.31,3.48-.91.86,3.28q1.23,4.71.52,7.26t-3.9,3.38a5,5,0,0,1-5.15-1.1c-1.3-1.29-2.35-3.46-3.15-6.53Z" style="fill:#FFC727"></path><path d="M202,282l4.23-1.1L219,309.51l-3.32.86-2.33-5.49-5.42,1.42.7,5.91-3.34.87Zm5.54,21.34,4.59-1.2L205.66,287l0,0Z" style="fill:#FFC727"></path><path d="M224,276.27l3.11-.81,7.8,29.9-2.59.68-12.06-18.78,2.17,7.49,3.39,13-3.25.85-7.79-29.9,2.65-.69,12.24,18.54L227,288Z" style="fill:#FFC727"></path><path d="M233.88,282.91a17,17,0,0,1-.74-5.14,7.38,7.38,0,0,1,.62-2.67,5.55,5.55,0,0,1,3.78-2.74q3.87-1,5.88,2.11a17.52,17.52,0,0,1,2,5l.87,3.31-3.45.9-.87-3.33a15.92,15.92,0,0,0-1.33-3.8,2.67,2.67,0,0,0-1.1-1.14,1.83,1.83,0,0,0-1.21,0,2,2,0,0,0-1.6,1.84,12.85,12.85,0,0,0,.56,4.34l3.38,12.95a16.45,16.45,0,0,0,1.72,4.62,2,2,0,0,0,3.72-1,17.3,17.3,0,0,0-.77-4.88l-.87-3.31,3.49-.91.85,3.28q1.23,4.71.52,7.26t-3.9,3.38a5,5,0,0,1-5.14-1.1q-2-1.92-3.16-6.53Z" style="fill:#FFC727"></path><path d="M247.57,270.12l8.93-2.32.77,2.92-5.42,1.41,2.66,10.23,5.13-1.34.76,2.92-5.13,1.34,2.85,10.9,5.48-1.43.77,2.93-9,2.34Z" style="fill:#FFC727"></path><path d="M260.67,266.71l3.51-.92,7,27,5.52-1.44.76,2.9-9,2.36Z" style="fill:#FFC727"></path><path d="M272.76,263.56l3.52-.92,7,27,5.52-1.44.76,2.91-9,2.36Z" style="fill:#FFC727"></path><path d="M284.86,260.4l8.93-2.32.76,2.92-5.41,1.41,2.66,10.23,5.13-1.34.76,2.92-5.13,1.34,2.85,10.9,5.48-1.43.76,2.93-9,2.34Z" style="fill:#FFC727"></path><path d="M297.94,257l5.62-1.47c2.29-.6,4-.3,5.27.88a12,12,0,0,1,2.86,5.67l3.44,13.13c.8,3.07.9,5.4.32,7s-2,2.68-4.22,3.26l-5.5,1.43Zm10.23,5.91a9.34,9.34,0,0,0-1.71-3.85,2.38,2.38,0,0,0-2.5-.66l-1.8.47,6.33,24.27,1.8-.47a2.77,2.77,0,0,0,1.49-.82c.67-.8.67-2.53,0-5.18Z" style="fill:#FFC727"></path><path d="M330.38,291.28,183.11,329.67,170,279.52l147.27-38.39Zm-145.29,35L327,289.3l-11.67-44.78-141.91,37Z" style="fill:#FFC727"></path><path d="M232.72,109.31v-8.52h1.34v8.52Z" style="fill:#fff"></path><path d="M237.33,103.31v6H236v-8.52H237l4.87,6.15V100.8h1.36v8.51h-1.12Z" style="fill:#fff"></path><path d="M251.88,107.12a2,2,0,0,1-.21.92,2.21,2.21,0,0,1-.56.69,2.57,2.57,0,0,1-.84.43,3.31,3.31,0,0,1-1,.15h-4.06v-8.52h4.39a1.75,1.75,0,0,1,.8.19,2.17,2.17,0,0,1,.62.5,2.49,2.49,0,0,1,.38.7,2.14,2.14,0,0,1,.14.78,2.28,2.28,0,0,1-.31,1.17,1.93,1.93,0,0,1-.91.81,2.23,2.23,0,0,1,1.16.79A2.27,2.27,0,0,1,251.88,107.12ZM246.53,102v2.5H249a1.11,1.11,0,0,0,.46-.09,1.42,1.42,0,0,0,.38-.26,1.3,1.3,0,0,0,.25-.39,1.35,1.35,0,0,0,.09-.5,1.32,1.32,0,0,0-.31-.91,1,1,0,0,0-.79-.35Zm4,4.9a1.46,1.46,0,0,0-.33-.92,1.12,1.12,0,0,0-.36-.29,1.08,1.08,0,0,0-.47-.11h-2.81v2.61h2.72a1.35,1.35,0,0,0,.5-.1,1.21,1.21,0,0,0,.39-.28,1.46,1.46,0,0,0,.27-.41A1.35,1.35,0,0,0,250.5,106.86Z" style="fill:#fff"></path><path d="M256.83,109.37a3.78,3.78,0,0,1-1.66-.36,4.16,4.16,0,0,1-1.29-1,4.41,4.41,0,0,1-.84-1.38,4.62,4.62,0,0,1-.29-1.6,4.3,4.3,0,0,1,.31-1.63,4.46,4.46,0,0,1,.86-1.38,3.93,3.93,0,0,1,1.29-1,3.75,3.75,0,0,1,1.64-.36,3.65,3.65,0,0,1,1.66.38,4.19,4.19,0,0,1,1.29,1,4.52,4.52,0,0,1,.82,1.39,4.29,4.29,0,0,1,.3,1.57,4.48,4.48,0,0,1-1.16,3,4.28,4.28,0,0,1-1.31,1A3.83,3.83,0,0,1,256.83,109.37Zm-2.71-4.32a3.59,3.59,0,0,0,.19,1.17,3.38,3.38,0,0,0,.54,1,2.73,2.73,0,0,0,.86.69,2.47,2.47,0,0,0,1.13.26,2.41,2.41,0,0,0,1.15-.27,2.74,2.74,0,0,0,.84-.71,3.31,3.31,0,0,0,.53-1,3.61,3.61,0,0,0,.18-1.13,3.77,3.77,0,0,0-.19-1.17,3,3,0,0,0-.55-1,2.84,2.84,0,0,0-.85-.69,2.59,2.59,0,0,0-2.26,0,2.79,2.79,0,0,0-.86.7,3.36,3.36,0,0,0-.53,1A3.66,3.66,0,0,0,254.12,105.05Z" style="fill:#fff"></path><path d="M262.46,100.79l2.36,3.36,2.36-3.36h1.48l-3.12,4.32,3,4.2h-1.47l-2.27-3.24-2.27,3.24h-1.49l3-4.2L261,100.79Z" style="fill:#fff"></path><path d="M176.47,142.74v-4.13h2.75v.58h-2.1v1.23h1.76V141h-1.76v1.78Z" style="fill:#dbdbdb"></path><path d="M181.24,140.25a1.41,1.41,0,0,0-.66.18.86.86,0,0,0-.41.45v1.86h-.64v-3h.59v.68a1.36,1.36,0,0,1,.41-.5,1,1,0,0,1,.55-.21h.16Z" style="fill:#dbdbdb"></path><path d="M182.92,142.8a1.51,1.51,0,0,1-.65-.13,1.54,1.54,0,0,1-.49-.34,1.36,1.36,0,0,1-.31-.5,1.57,1.57,0,0,1-.12-.6,1.62,1.62,0,0,1,.12-.61,1.51,1.51,0,0,1,.31-.5,1.58,1.58,0,0,1,.5-.34,1.61,1.61,0,0,1,1.78.34,1.53,1.53,0,0,1,.32.5,1.83,1.83,0,0,1,.11.61,1.77,1.77,0,0,1-.11.6,1.53,1.53,0,0,1-.32.5,1.6,1.6,0,0,1-1.14.47Zm-.91-1.57a1.35,1.35,0,0,0,.07.41,1.13,1.13,0,0,0,.19.32,1.23,1.23,0,0,0,.29.22.85.85,0,0,0,.72,0,1.23,1.23,0,0,0,.29-.22,1.06,1.06,0,0,0,.19-.33,1.29,1.29,0,0,0,.07-.4,1.13,1.13,0,0,0-.26-.74,1.23,1.23,0,0,0-.29-.22.86.86,0,0,0-.36-.07.72.72,0,0,0-.35.08.94.94,0,0,0-.48.55A1.06,1.06,0,0,0,182,141.23Z" style="fill:#dbdbdb"></path><path d="M189.71,142.74h-.64V141a1.11,1.11,0,0,0-.14-.62.45.45,0,0,0-.41-.2.71.71,0,0,0-.49.2,1.16,1.16,0,0,0-.33.52v1.8h-.64V141a1,1,0,0,0-.14-.63.45.45,0,0,0-.4-.19.71.71,0,0,0-.5.2,1,1,0,0,0-.32.51v1.81h-.64v-3h.58v.61a1.3,1.3,0,0,1,.47-.49,1.36,1.36,0,0,1,.67-.17.82.82,0,0,1,.6.2.78.78,0,0,1,.27.49,1.39,1.39,0,0,1,.48-.51,1.27,1.27,0,0,1,.67-.18.84.84,0,0,1,.44.1.81.81,0,0,1,.28.27,1.13,1.13,0,0,1,.15.39,2.45,2.45,0,0,1,0,.48Z" style="fill:#dbdbdb"></path><path d="M190.45,140.47v-.74H191v.74Zm0,2.27V142H191v.74Z" style="fill:#dbdbdb"></path><path d="M196.13,139.19h-1.37v3.55h-.66v-3.55h-1.38v-.58h3.41Z" style="fill:#dbdbdb"></path><path d="M199.33,142.74h-.64V141a1,1,0,0,0-.15-.62.49.49,0,0,0-.42-.2.86.86,0,0,0-.27.05,1.28,1.28,0,0,0-.25.15,1.06,1.06,0,0,0-.36.51v1.81h-.64V138.5h.64v1.81a1.27,1.27,0,0,1,1.13-.66.94.94,0,0,1,.47.1,1,1,0,0,1,.3.27,1.13,1.13,0,0,1,.15.39,2.45,2.45,0,0,1,0,.48Z" style="fill:#dbdbdb"></path><path d="M201.46,142.8a1.67,1.67,0,0,1-.65-.12,1.77,1.77,0,0,1-.5-.34,1.86,1.86,0,0,1-.32-.5,1.78,1.78,0,0,1-.11-.61,1.83,1.83,0,0,1,.11-.61,1.71,1.71,0,0,1,.32-.5,1.61,1.61,0,0,1,.5-.35,1.67,1.67,0,0,1,.65-.12,1.55,1.55,0,0,1,1.14.47,1.46,1.46,0,0,1,.31.49,1.71,1.71,0,0,1,.11.59c0,.05,0,.09,0,.13s0,.08,0,.1h-2.44a.88.88,0,0,0,.1.37,1,1,0,0,0,.2.28,1,1,0,0,0,.29.19.88.88,0,0,0,.33.06,1,1,0,0,0,.25,0,.79.79,0,0,0,.23-.09,1.39,1.39,0,0,0,.19-.15.8.8,0,0,0,.13-.19l.54.15a1.17,1.17,0,0,1-.52.56A1.55,1.55,0,0,1,201.46,142.8Zm.92-1.81a1,1,0,0,0-.09-.35,1.18,1.18,0,0,0-.2-.28,1.41,1.41,0,0,0-.29-.18,1,1,0,0,0-.34-.06.93.93,0,0,0-.34.06,1.41,1.41,0,0,0-.29.18.92.92,0,0,0-.19.28,1.29,1.29,0,0,0-.1.35Z" style="fill:#dbdbdb"></path><path d="M208.53,142.74v-3L207.3,142h-.36l-1.23-2.25v3h-.65v-4.13h.7l1.36,2.53,1.37-2.53h.7v4.13Z" style="fill:#dbdbdb"></path><path d="M211,142.8a.88.88,0,0,1-.73-.31,1.52,1.52,0,0,1-.24-.93V139.7h.64v1.73c0,.55.19.83.58.83a.92.92,0,0,0,.52-.17,1.18,1.18,0,0,0,.38-.49v-1.9h.64V142a.21.21,0,0,0,0,.15s.07.05.13.06v.54l-.16,0h-.12a.49.49,0,0,1-.3-.09.36.36,0,0,1-.13-.25v-.3a1.27,1.27,0,0,1-.53.5A1.55,1.55,0,0,1,211,142.8Z" style="fill:#dbdbdb"></path><path d="M214.69,142.8a2.28,2.28,0,0,1-.73-.12,1.82,1.82,0,0,1-.63-.34l.26-.4a2,2,0,0,0,.54.29,1.5,1.5,0,0,0,.55.11.83.83,0,0,0,.45-.11.36.36,0,0,0,.16-.32.29.29,0,0,0-.18-.28,3.74,3.74,0,0,0-.59-.19l-.48-.14a1.53,1.53,0,0,1-.34-.17.6.6,0,0,1-.18-.21.67.67,0,0,1-.06-.3.91.91,0,0,1,.09-.41.93.93,0,0,1,.25-.31,1.35,1.35,0,0,1,.38-.19,1.65,1.65,0,0,1,.46-.06,1.91,1.91,0,0,1,.64.1,1.57,1.57,0,0,1,.53.31l-.27.38a1.49,1.49,0,0,0-.91-.34.89.89,0,0,0-.41.1.36.36,0,0,0-.16.33.33.33,0,0,0,0,.15.26.26,0,0,0,.12.11.75.75,0,0,0,.2.09l.31.08a3.78,3.78,0,0,1,.53.16,1.28,1.28,0,0,1,.37.17.71.71,0,0,1,.22.24.67.67,0,0,1,.07.33.83.83,0,0,1-.33.69A1.42,1.42,0,0,1,214.69,142.8Z" style="fill:#dbdbdb"></path><path d="M216.47,139.2v-.7h.64v.7Zm0,3.54v-3h.64v3Z" style="fill:#dbdbdb"></path><path d="M217.68,141.22a1.57,1.57,0,0,1,.11-.61,1.47,1.47,0,0,1,.32-.5,1.59,1.59,0,0,1,.49-.34,1.71,1.71,0,0,1,.65-.12,1.54,1.54,0,0,1,.82.21,1.35,1.35,0,0,1,.51.55l-.63.19a.83.83,0,0,0-.29-.3.87.87,0,0,0-.42-.1.81.81,0,0,0-.35.07.78.78,0,0,0-.29.21.89.89,0,0,0-.19.33,1.07,1.07,0,0,0-.07.41,1.1,1.1,0,0,0,.07.41.91.91,0,0,0,.2.33,1.06,1.06,0,0,0,.29.22.82.82,0,0,0,.35.08.93.93,0,0,0,.23,0,.67.67,0,0,0,.21-.09.76.76,0,0,0,.17-.13.51.51,0,0,0,.11-.16l.63.18a1.2,1.2,0,0,1-.51.56,1.68,1.68,0,0,1-1.48.09,1.47,1.47,0,0,1-.82-.85A1.73,1.73,0,0,1,217.68,141.22Z" style="fill:#dbdbdb"></path><path d="M226,138.61v4.13h-.66v-1.82H223.3v1.82h-.65v-4.13h.65v1.73h2.08v-1.73Z" style="fill:#dbdbdb"></path><path d="M227.67,142.8a1.07,1.07,0,0,1-.74-.27,1,1,0,0,1-.21-.3.84.84,0,0,1-.08-.38.8.8,0,0,1,.09-.39.77.77,0,0,1,.27-.3,1.08,1.08,0,0,1,.4-.2,1.72,1.72,0,0,1,.52-.07,2,2,0,0,1,.43,0,2.11,2.11,0,0,1,.38.1v-.21a.71.71,0,0,0-.2-.53.76.76,0,0,0-.55-.19,1.36,1.36,0,0,0-.48.09,2.27,2.27,0,0,0-.48.26l-.2-.41a2.18,2.18,0,0,1,1.22-.39,1.43,1.43,0,0,1,1,.32,1.19,1.19,0,0,1,.35.92V142c0,.13,0,.2.17.21v.54l-.16,0h-.14a.39.39,0,0,1-.28-.09.41.41,0,0,1-.13-.24l0-.19a1.33,1.33,0,0,1-.5.41A1.53,1.53,0,0,1,227.67,142.8Zm.17-.47a1.27,1.27,0,0,0,.44-.08.73.73,0,0,0,.32-.24.28.28,0,0,0,.13-.22v-.4a2,2,0,0,0-.35-.1,2.2,2.2,0,0,0-.36,0,1,1,0,0,0-.56.15.47.47,0,0,0-.22.4.52.52,0,0,0,.17.38A.63.63,0,0,0,227.84,142.33Z" style="fill:#dbdbdb"></path><path d="M230.15,138.5h.64v3.37a.4.4,0,0,0,.08.26.34.34,0,0,0,.25.1l.15,0,.16,0,.09.5a1.29,1.29,0,0,1-.33.1,1.5,1.5,0,0,1-.35,0,.63.63,0,0,1-.69-.69Z" style="fill:#dbdbdb"></path><path d="M231.9,138.5h.64v3.37a.4.4,0,0,0,.08.26.34.34,0,0,0,.25.1l.15,0,.16,0,.09.5a1.29,1.29,0,0,1-.33.1,1.48,1.48,0,0,1-.34,0,.7.7,0,0,1-.52-.18.69.69,0,0,1-.18-.51Z" style="fill:#dbdbdb"></path><path d="M179.5,146.17h-1.37v3.56h-.66v-3.56h-1.38v-.57h3.41Z" style="fill:#dbdbdb"></path><path d="M180.67,149.78a1.62,1.62,0,0,1-.64-.12,1.49,1.49,0,0,1-.81-.85,1.69,1.69,0,0,1,0-1.2,1.49,1.49,0,0,1,.81-.85,1.67,1.67,0,0,1,1.29,0,1.54,1.54,0,0,1,.49.34,1.42,1.42,0,0,1,.32.51,1.69,1.69,0,0,1,0,1.2,1.38,1.38,0,0,1-.32.5,1.57,1.57,0,0,1-.49.35A1.67,1.67,0,0,1,180.67,149.78Zm-.9-1.57a1.07,1.07,0,0,0,.07.41.94.94,0,0,0,.19.32.89.89,0,0,0,.29.22.85.85,0,0,0,.35.08.86.86,0,0,0,.36-.08.94.94,0,0,0,.48-.55,1.05,1.05,0,0,0,.07-.4,1.1,1.1,0,0,0-.07-.41,1.09,1.09,0,0,0-.19-.33.86.86,0,0,0-.29-.21.73.73,0,0,0-.36-.08.72.72,0,0,0-.35.08,1,1,0,0,0-.29.22,1.13,1.13,0,0,0-.26.73Z" style="fill:#dbdbdb"></path><path d="M182.81,147.45v-.74h.53v.74Zm0,2.28V149h.53v.75Z" style="fill:#dbdbdb"></path><path d="M190.2,149.73h-.64V148a1.11,1.11,0,0,0-.14-.62.47.47,0,0,0-.41-.2.76.76,0,0,0-.5.2,1.31,1.31,0,0,0-.32.52v1.81h-.64V148a1.09,1.09,0,0,0-.14-.62.45.45,0,0,0-.4-.2.76.76,0,0,0-.5.2,1.11,1.11,0,0,0-.33.52v1.81h-.64v-3h.59v.61a1.3,1.3,0,0,1,.47-.49,1.36,1.36,0,0,1,.67-.17.89.89,0,0,1,.6.2.92.92,0,0,1,.27.49,1.48,1.48,0,0,1,.48-.51,1.27,1.27,0,0,1,.67-.18.87.87,0,0,1,.44.1.81.81,0,0,1,.28.27,1.28,1.28,0,0,1,.15.4,2.35,2.35,0,0,1,0,.47Z" style="fill:#dbdbdb"></path><path d="M191.75,149.78a1.07,1.07,0,0,1-.41-.07.91.91,0,0,1-.33-.2.9.9,0,0,1-.21-.3.81.81,0,0,1-.08-.38.86.86,0,0,1,.09-.39.83.83,0,0,1,.26-.3,1.31,1.31,0,0,1,.41-.2,1.72,1.72,0,0,1,.52-.07,2,2,0,0,1,.43,0,2.11,2.11,0,0,1,.38.1v-.21a.72.72,0,0,0-.2-.53.76.76,0,0,0-.55-.19,1.36,1.36,0,0,0-.48.09,2.6,2.6,0,0,0-.49.26l-.19-.4a2.11,2.11,0,0,1,1.22-.4,1.43,1.43,0,0,1,1,.32,1.19,1.19,0,0,1,.35.92V149c0,.14.05.21.16.21v.55l-.16,0h-.13a.4.4,0,0,1-.28-.1.41.41,0,0,1-.13-.24l0-.19a1.24,1.24,0,0,1-.5.41A1.39,1.39,0,0,1,191.75,149.78Zm.17-.47a1.27,1.27,0,0,0,.44-.08.73.73,0,0,0,.32-.24.31.31,0,0,0,.13-.22v-.4a2,2,0,0,0-.35-.1,2.19,2.19,0,0,0-.36,0,1.06,1.06,0,0,0-.56.14.45.45,0,0,0-.22.4.5.5,0,0,0,.17.38A.63.63,0,0,0,191.92,149.31Z" style="fill:#dbdbdb"></path><path d="M195.93,147.24a1.3,1.3,0,0,0-.66.17.9.9,0,0,0-.41.45v1.87h-.64v-3h.59v.68a1.45,1.45,0,0,1,.41-.5,1,1,0,0,1,.55-.21h.16Z" style="fill:#dbdbdb"></path><path d="M198.09,149.57l-.34.13a1.39,1.39,0,0,1-.46.07.82.82,0,0,1-.28,0,.9.9,0,0,1-.24-.12.56.56,0,0,1-.16-.21.79.79,0,0,1-.06-.32v-1.9h-.4v-.5h.4v-1h.64v1h.66v.5h-.66v1.7a.31.31,0,0,0,.1.23.35.35,0,0,0,.23.07.69.69,0,0,0,.25,0l.18-.08Z" style="fill:#dbdbdb"></path><path d="M198.53,146.18v-.7h.64v.7Zm0,3.55v-3h.64v3Z" style="fill:#dbdbdb"></path><path d="M202.67,149.73H202V148a1.09,1.09,0,0,0-.14-.62.47.47,0,0,0-.4-.2.87.87,0,0,0-.28.05,1.43,1.43,0,0,0-.27.15,1.15,1.15,0,0,0-.21.23.8.8,0,0,0-.15.29v1.81h-.64v-3h.58v.61a1.31,1.31,0,0,1,.51-.48,1.49,1.49,0,0,1,.73-.18.88.88,0,0,1,.45.1.78.78,0,0,1,.27.27,1.19,1.19,0,0,1,.15.4,3.43,3.43,0,0,1,0,.47Z" style="fill:#dbdbdb"></path><path d="M203.42,145.48h.64v3.37a.4.4,0,0,0,.08.26.3.3,0,0,0,.25.1l.15,0,.16-.05.09.5a1,1,0,0,1-.33.1,1.48,1.48,0,0,1-.34,0,.7.7,0,0,1-.52-.18.69.69,0,0,1-.18-.51Z" style="fill:#dbdbdb"></path><path d="M207.22,146.22a2.25,2.25,0,0,1,.82.15,2.06,2.06,0,0,1,.69.43,1.92,1.92,0,0,1,.47.7,2.3,2.3,0,0,1,.18.93,1.86,1.86,0,0,1,0,.22,1.55,1.55,0,0,1,0,.29,2,2,0,0,1-.08.31,1,1,0,0,1-.16.28.69.69,0,0,1-.59.29.82.82,0,0,1-.25,0,.4.4,0,0,1-.16-.12.42.42,0,0,1-.09-.16l0-.18a1.44,1.44,0,0,1-1,.41.9.9,0,0,1-.66-.23.78.78,0,0,1-.23-.58.81.81,0,0,1,.1-.39.78.78,0,0,1,.25-.26,1,1,0,0,1,.35-.13,1.72,1.72,0,0,1,.39,0,1.76,1.76,0,0,1,.42,0l.27.09a1.69,1.69,0,0,0,0-.33.71.71,0,0,0-.11-.25.49.49,0,0,0-.21-.16.83.83,0,0,0-.34-.06,1.56,1.56,0,0,0-.44.07,1.1,1.1,0,0,0-.35.2l-.13-.35a1.66,1.66,0,0,1,1-.29,1.12,1.12,0,0,1,.56.11.73.73,0,0,1,.31.29,1,1,0,0,1,.13.39,2.88,2.88,0,0,1,0,.41v.63c0,.08,0,.16,0,.24a1,1,0,0,0,0,.2.34.34,0,0,0,.09.14.25.25,0,0,0,.15.05.38.38,0,0,0,.28-.12.9.9,0,0,0,.16-.29,1.55,1.55,0,0,0,.08-.36,2.23,2.23,0,0,0,0-.33,2.19,2.19,0,0,0-.14-.77,2.12,2.12,0,0,0-.39-.61,1.81,1.81,0,0,0-1.36-.55,1.87,1.87,0,0,0-.76.14,1.79,1.79,0,0,0-.59.39,1.85,1.85,0,0,0-.4.61,2.06,2.06,0,0,0-.14.76,2,2,0,0,0,.13.74,1.8,1.8,0,0,0,.38.61,1.63,1.63,0,0,0,.58.42,1.78,1.78,0,0,0,.74.15,1.65,1.65,0,0,0,.48-.06,3.61,3.61,0,0,0,.42-.16l.1.25a2.51,2.51,0,0,1-.5.18,2.07,2.07,0,0,1-.5.06,2.22,2.22,0,0,1-.82-.16,2.1,2.1,0,0,1-.68-.46,2.06,2.06,0,0,1-.45-.69,2.3,2.3,0,0,1-.17-.88,2.06,2.06,0,0,1,.19-.91,2.14,2.14,0,0,1,.48-.69,2,2,0,0,1,.7-.42A2.29,2.29,0,0,1,207.22,146.22Zm.32,3a.58.58,0,0,0,.26-.22.66.66,0,0,0,.06-.27v-.22l-.26-.07a1.34,1.34,0,0,0-.42-.05.94.94,0,0,0-.49.11.4.4,0,0,0-.2.38.45.45,0,0,0,.14.33.52.52,0,0,0,.38.14.84.84,0,0,0,.27,0A1.14,1.14,0,0,0,207.54,149.25Z" style="fill:#dbdbdb"></path><path d="M214.72,149.73h-.64V148a1,1,0,0,0-.14-.62.47.47,0,0,0-.4-.2.74.74,0,0,0-.5.2,1.22,1.22,0,0,0-.33.52v1.81h-.64V148a1.1,1.1,0,0,0-.13-.62.48.48,0,0,0-.41-.2.76.76,0,0,0-.5.2,1,1,0,0,0-.32.52v1.81h-.64v-3h.58v.61a1.25,1.25,0,0,1,1.15-.66.84.84,0,0,1,.59.2.8.8,0,0,1,.27.49,1.41,1.41,0,0,1,.49-.51,1.21,1.21,0,0,1,.66-.18.82.82,0,0,1,.44.1.84.84,0,0,1,.29.27,1.26,1.26,0,0,1,.14.4,2.35,2.35,0,0,1,0,.47Z" style="fill:#dbdbdb"></path><path d="M216.27,149.78a1.1,1.1,0,0,1-.41-.07.91.91,0,0,1-.33-.2.9.9,0,0,1-.21-.3,1,1,0,0,1-.08-.38.86.86,0,0,1,.09-.39.77.77,0,0,1,.27-.3,1.25,1.25,0,0,1,.4-.2,1.79,1.79,0,0,1,.53-.07,2,2,0,0,1,.42,0,1.91,1.91,0,0,1,.38.1v-.21a.76.76,0,0,0-.19-.53.81.81,0,0,0-.56-.19,1.36,1.36,0,0,0-.48.09,2.54,2.54,0,0,0-.48.26l-.2-.4a2.11,2.11,0,0,1,1.22-.4,1.41,1.41,0,0,1,1,.32,1.19,1.19,0,0,1,.35.92V149c0,.14.05.21.17.21v.55l-.16,0h-.13a.42.42,0,0,1-.29-.1.41.41,0,0,1-.13-.24v-.19a1.34,1.34,0,0,1-.51.41A1.39,1.39,0,0,1,216.27,149.78Zm.17-.47a1.23,1.23,0,0,0,.44-.08.83.83,0,0,0,.33-.24.29.29,0,0,0,.12-.22v-.4a2,2,0,0,0-.35-.1,2.19,2.19,0,0,0-.36,0,1.08,1.08,0,0,0-.56.14.47.47,0,0,0-.22.4.5.5,0,0,0,.17.38A.64.64,0,0,0,216.44,149.31Z" style="fill:#dbdbdb"></path><path d="M218.74,146.18v-.7h.64v.7Zm0,3.55v-3h.64v3Z" style="fill:#dbdbdb"></path><path d="M220.16,145.48h.64v3.37a.4.4,0,0,0,.08.26.3.3,0,0,0,.25.1l.15,0,.16-.05.09.5a1,1,0,0,1-.33.1,1.5,1.5,0,0,1-.35,0,.63.63,0,0,1-.69-.69Z" style="fill:#dbdbdb"></path><path d="M221.87,149.73V149h.53v.75Z" style="fill:#dbdbdb"></path><path d="M222.94,148.2a1.73,1.73,0,0,1,.11-.6,1.53,1.53,0,0,1,.32-.5,1.35,1.35,0,0,1,.5-.34,1.51,1.51,0,0,1,.65-.13,1.53,1.53,0,0,1,.81.21,1.28,1.28,0,0,1,.51.55l-.62.19a1,1,0,0,0-.3-.3.8.8,0,0,0-.41-.1.86.86,0,0,0-.36.07.77.77,0,0,0-.29.22,1,1,0,0,0-.19.32,1.13,1.13,0,0,0,.2,1.15.89.89,0,0,0,.29.22.85.85,0,0,0,.35.08l.24,0,.21-.09.17-.14a.57.57,0,0,0,.11-.16l.62.18a1.3,1.3,0,0,1-.5.57,1.64,1.64,0,0,1-.84.21,1.71,1.71,0,0,1-.65-.12,1.58,1.58,0,0,1-.81-.85A1.58,1.58,0,0,1,222.94,148.2Z" style="fill:#dbdbdb"></path><path d="M227.73,149.78a1.67,1.67,0,0,1-.65-.12,1.57,1.57,0,0,1-.49-.35,1.51,1.51,0,0,1-.31-.5,1.69,1.69,0,0,1,0-1.2,1.55,1.55,0,0,1,.31-.51,1.58,1.58,0,0,1,.5-.34,1.61,1.61,0,0,1,1.78.34,1.58,1.58,0,0,1,.32.51,1.69,1.69,0,0,1,0,1.2,1.53,1.53,0,0,1-.32.5,1.5,1.5,0,0,1-.5.35A1.62,1.62,0,0,1,227.73,149.78Zm-.91-1.57a1.3,1.3,0,0,0,.07.41,1,1,0,0,0,.2.32.84.84,0,0,0,1,.22.89.89,0,0,0,.29-.22,1.13,1.13,0,0,0,.26-.73,1.1,1.1,0,0,0-.07-.41,1.35,1.35,0,0,0-.19-.33.86.86,0,0,0-.29-.21.73.73,0,0,0-.36-.08.72.72,0,0,0-.35.08.94.94,0,0,0-.48.55A1.06,1.06,0,0,0,226.82,148.21Z" style="fill:#dbdbdb"></path><path d="M234.52,149.73h-.64V148a1.11,1.11,0,0,0-.14-.62.47.47,0,0,0-.41-.2.73.73,0,0,0-.49.2,1.22,1.22,0,0,0-.33.52v1.81h-.64V148a1,1,0,0,0-.14-.62.45.45,0,0,0-.4-.2.76.76,0,0,0-.5.2,1,1,0,0,0-.32.52v1.81h-.64v-3h.58v.61a1.38,1.38,0,0,1,.47-.49,1.36,1.36,0,0,1,.67-.17.85.85,0,0,1,.6.2.8.8,0,0,1,.27.49,1.48,1.48,0,0,1,.48-.51,1.27,1.27,0,0,1,.67-.18.81.81,0,0,1,.73.37,1.57,1.57,0,0,1,.14.4,2.35,2.35,0,0,1,0,.47Z" style="fill:#dbdbdb"></path><path d="M181.87,168.92v1.25h-5.1v-7.34h5v1.25h-3.58v1.77h3.1V167h-3.1v1.92Z" style="fill:#a6a6a6"></path><path d="M183.74,162.83l2,5.55,2-5.55h1.5l-2.87,7.34h-1.2l-2.88-7.34Z" style="fill:#a6a6a6"></path><path d="M195.07,168.92v1.25H190v-7.34h5v1.25H191.4v1.77h3.09V167H191.4v1.92Z" style="fill:#a6a6a6"></path><path d="M197.61,165.46v4.71h-1.43v-7.34h1.11l3.83,4.82v-4.81h1.42v7.33h-1.15Z" style="fill:#a6a6a6"></path><path d="M209.56,164.08h-2.34v6.09H205.8v-6.09h-2.35v-1.25h6.11Z" style="fill:#a6a6a6"></path><path d="M212.22,166.45a3.85,3.85,0,0,1,.24-1.33,3.65,3.65,0,0,1,.71-1.18,3.57,3.57,0,0,1,1.14-.83,3.44,3.44,0,0,1,1.53-.32,3.3,3.3,0,0,1,1.75.44,2.85,2.85,0,0,1,1.1,1.16l-1.09.75a2,2,0,0,0-.36-.52,1.54,1.54,0,0,0-.44-.33,1.78,1.78,0,0,0-.5-.19,2.92,2.92,0,0,0-.5,0,1.89,1.89,0,0,0-.94.22,2.1,2.1,0,0,0-.66.56,2.4,2.4,0,0,0-.4.78,3,3,0,0,0-.13.88,2.92,2.92,0,0,0,.15.93,2.52,2.52,0,0,0,.44.79,2.26,2.26,0,0,0,.68.55,1.87,1.87,0,0,0,.88.21,2.44,2.44,0,0,0,.52-.06,2.16,2.16,0,0,0,.51-.2,1.83,1.83,0,0,0,.45-.35,1.87,1.87,0,0,0,.33-.51l1.17.67a2.19,2.19,0,0,1-.51.73,3.29,3.29,0,0,1-.73.54,4.12,4.12,0,0,1-.87.33,4.18,4.18,0,0,1-.91.11,3.12,3.12,0,0,1-1.44-.33,3.81,3.81,0,0,1-1.12-.86,4.06,4.06,0,0,1-.74-1.21A3.92,3.92,0,0,1,212.22,166.45Z" style="fill:#a6a6a6"></path><path d="M221.74,162.83H223l2.79,7.34h-1.46l-.69-1.83h-2.56l-.67,1.83h-1.47Zm1.65,4.51-1-2.89-1.05,2.89Z" style="fill:#a6a6a6"></path><path d="M228,165.46v4.71H226.6v-7.34h1.11l3.82,4.82v-4.81H233v7.33H231.8Z" style="fill:#a6a6a6"></path><path d="M234,166.45a3.87,3.87,0,0,1,.25-1.33,3.54,3.54,0,0,1,1.84-2,3.44,3.44,0,0,1,1.53-.32,3.33,3.33,0,0,1,1.76.44,2.85,2.85,0,0,1,1.1,1.16l-1.1.75a2,2,0,0,0-.35-.52,1.87,1.87,0,0,0-.44-.33,1.91,1.91,0,0,0-.5-.19,2.94,2.94,0,0,0-.51,0,1.83,1.83,0,0,0-.93.22,2,2,0,0,0-.67.56,2.59,2.59,0,0,0-.39.78,3,3,0,0,0-.14.88,2.68,2.68,0,0,0,.16.93,2.34,2.34,0,0,0,.44.79,2.14,2.14,0,0,0,.68.55,1.83,1.83,0,0,0,.87.21,2.37,2.37,0,0,0,.52-.06,1.87,1.87,0,0,0,.51-.2,1.83,1.83,0,0,0,.45-.35,1.5,1.5,0,0,0,.33-.51l1.17.67a2.16,2.16,0,0,1-.5.73,3.54,3.54,0,0,1-.73.54,4.43,4.43,0,0,1-.88.33,4.11,4.11,0,0,1-.91.11,3.17,3.17,0,0,1-1.44-.33A3.94,3.94,0,0,1,235,169a4,4,0,0,1-.73-1.21A3.72,3.72,0,0,1,234,166.45Z" style="fill:#a6a6a6"></path><path d="M246.68,168.92v1.25h-5.1v-7.34h5v1.25H243v1.77h3.09V167H243v1.92Z" style="fill:#a6a6a6"></path><path d="M247.8,170.17v-7.34h1.42v6.09H253v1.25Z" style="fill:#a6a6a6"></path><path d="M253.83,170.17v-7.34h1.43v6.09H259v1.25Z" style="fill:#a6a6a6"></path><path d="M265,168.92v1.25h-5.1v-7.34h5v1.25H261.3v1.77h3.09V167H261.3v1.92Z" style="fill:#a6a6a6"></path><path d="M266.08,170.17v-7.34h2.67a3.88,3.88,0,0,1,1.58.29,3.17,3.17,0,0,1,1.13.78,3.25,3.25,0,0,1,.68,1.17,4.11,4.11,0,0,1,.23,1.42,4.23,4.23,0,0,1-.25,1.51,3.17,3.17,0,0,1-1.87,1.9,4,4,0,0,1-1.5.27Zm4.85-3.68a3,3,0,0,0-.14-1,2.28,2.28,0,0,0-.42-.77,2,2,0,0,0-.69-.5,2.45,2.45,0,0,0-.93-.17h-1.24v4.84h1.24a2.16,2.16,0,0,0,.94-.19,1.82,1.82,0,0,0,.68-.51,2.38,2.38,0,0,0,.42-.77A3,3,0,0,0,270.93,166.49Z" style="fill:#a6a6a6"></path><path d="M273.62,167.41v-4.65H275v4.65Zm0,2.76v-1.56H275v1.56Z" style="fill:#a6a6a6"></path></g><g id="freepik--speech-bubble--inject-9"><path d="M433.21,85.45a23.93,23.93,0,0,1-40,15.15l-12,1.76,6-10.36a23.94,23.94,0,1,1,46-6.55Z" style="fill:#fff"></path><path d="M433.21,85.45a24.15,24.15,0,0,1-4.83,12.14,28.57,28.57,0,0,1-2.17,2.5,27.24,27.24,0,0,1-2.53,2.14A24.29,24.29,0,0,1,411.46,107a23.14,23.14,0,0,1-3.33.06,20.53,20.53,0,0,1-3.31-.34A24.14,24.14,0,0,1,393,100.85l.28.09-12,1.83-.87.14.44-.77,6-10.37,0,.41a24.18,24.18,0,1,1,46.42-6.73Zm0,0a23.69,23.69,0,0,0-27.15-25.91,23.46,23.46,0,0,0-9.89,3.91A24.64,24.64,0,0,0,389,71.26a23.54,23.54,0,0,0-3,10.13,23.82,23.82,0,0,0,1.68,10.43l.09.22-.11.19-6,10.34-.43-.63,12-1.68.16,0,.12.11a23.51,23.51,0,0,0,11.47,5.91,19.63,19.63,0,0,0,3.25.39,22.31,22.31,0,0,0,3.27,0,23.43,23.43,0,0,0,6.4-1.41,22.19,22.19,0,0,0,5.77-3.11,26.93,26.93,0,0,0,2.53-2.11,25.61,25.61,0,0,0,2.18-2.48A24,24,0,0,0,433.21,85.45Z" style="fill:#263238"></path><path d="M407.13,85.31V69.53h4.69V85.31Zm0,9.36V89.38h4.69v5.29Z" style="fill:#FFC727"></path></g><g id="freepik--Plant--inject-9"><path d="M77.44,333s-16.59-3.76-25.68-12.14-14.18-23.39-14.18-23.39a142.62,142.62,0,0,1,18.61,4.89,31.55,31.55,0,0,1,5.63,8,37.83,37.83,0,0,0,0-5.69,25.17,25.17,0,0,1,5.91,3.58C75.31,314.79,77.44,333,77.44,333Z" style="fill:#FFC727"></path><path d="M47.94,304.75c-2.26-1.57-4.56-3.08-6.81-4.66-.14-.09,0-.31.13-.22,4.28,2.55,8.49,5.28,12.57,8.14,1.42,1,2.82,2,4.2,3.09l-.29-.49c-.5-.83-1-1.65-1.55-2.47a35.75,35.75,0,0,0-3.52-4.7c-.05-.05,0-.13.08-.08,1.29,1.49,2.58,3,3.76,4.55.56.75,1.08,1.53,1.58,2.32.26.42.51.83.74,1.26.08.14.17.28.25.43,2.15,1.68,4.24,3.44,6.23,5.29q1.84,1.73,3.56,3.57c-.64-2-1.2-4-1.94-6,0-.07.08-.1.11,0,.72,2.08,1.51,4.16,2.07,6.29,1.27,1.37,2.49,2.8,3.63,4.28l-.06-.27c-.19-.79-.38-1.57-.59-2.34-.41-1.5-.85-3-1.35-4.46a25.93,25.93,0,0,0-4.46-8.42c0-.06,0-.14.08-.08A32.51,32.51,0,0,1,72.72,323c.17.7.34,1.41.5,2.12.09.38.19.76.25,1.15.5.68,1,1.36,1.47,2.07a72.21,72.21,0,0,1,7,13.76,157.51,157.51,0,0,1,5.31,16.58c0,.11-.13.15-.17,0C83.86,349,80.54,339.17,75,330.49a62.15,62.15,0,0,0-3.79-5.3,31.75,31.75,0,0,1-8.07-1.61,35.26,35.26,0,0,1-8.08-3.91,48.46,48.46,0,0,1-4.15-3.13.05.05,0,1,1,.07-.08,33.48,33.48,0,0,0,7.61,4.6A41.62,41.62,0,0,0,67,323.87c1.22.26,2.46.46,3.71.63a71.81,71.81,0,0,0-4.89-5.42c-.56-.56-1.14-1.1-1.72-1.64a39.64,39.64,0,0,0-6.13-3.51c-2.72-1.31-5.4-2.71-8.09-4.07-1.52-.78-3-1.57-4.56-2.31-.06,0,0-.13.06-.1,2.73,1.32,5.5,2.55,8.25,3.81,2.59,1.19,5.21,2.38,7.7,3.77l.31.19c-2.24-2-4.57-3.82-7-5.62C52.44,307.94,50.21,306.31,47.94,304.75Z" style="fill:#263238"></path><path d="M48.89,313.3c1.34.59,2.72,1.12,4,1.74a42.52,42.52,0,0,1,4,2.17c.06,0,0,.11-.05.08-1.32-.63-2.66-1.22-4-1.88s-2.67-1.4-4-2C48.79,313.38,48.82,313.27,48.89,313.3Z" style="fill:#263238"></path><path d="M131.34,249.37a23.68,23.68,0,0,0-5,13.78c0,1.48.18,3.56.35,6a39.35,39.35,0,0,0-10.82,9.25,19.66,19.66,0,0,1,10.94-2.62,32.57,32.57,0,0,1-.64,5,18.59,18.59,0,0,0-7,1.39,15.75,15.75,0,0,1,6.34,1.26c-3,9.41-11.75,19.08-36,23.18a50.88,50.88,0,0,1,4.3-34.16C101.07,258.1,131.34,249.37,131.34,249.37Z" style="fill:#FFC727"></path><path d="M81.1,346.83q.63-6,1.57-12a240,240,0,0,1,4.89-23.76,95.68,95.68,0,0,1,3.51-10.83,15.75,15.75,0,0,1-.09-1.94c0-.78,0-1.56,0-2.34,0-1.55.09-3.1.22-4.65a55.89,55.89,0,0,1,1.49-9.1c.44-1.73,1-3.44,1.47-5.15a.06.06,0,0,1,.11,0,66.73,66.73,0,0,0-1.8,9.09,86.81,86.81,0,0,0-.81,9.11c0,.83-.05,1.67-.05,2.5,0,.36,0,.72,0,1.08a76.66,76.66,0,0,1,4.09-8.47A103.48,103.48,0,0,1,104,278a5.2,5.2,0,0,1,.2-1.36c.11-.54.23-1.08.35-1.62.25-1.11.53-2.22.83-3.31.6-2.2,1.4-4.33,2.09-6.5a.06.06,0,0,1,.11,0c-.65,2.15-1.07,4.38-1.56,6.57-.25,1.08-.48,2.17-.72,3.25-.12.54-.24,1.08-.35,1.63,0,0,0,.08,0,.12q1.47-1.86,3-3.66c4.64-5.44,9.72-10.45,14.84-15.43.63-.61,1.27-1.21,1.91-1.81.05-.06.13,0,.08.08-4.89,5.1-9.71,10.26-14.26,15.66-1.09,1.28-2.15,2.58-3.2,3.89L109,274.4c1.42-.93,2.85-1.83,4.32-2.65s3-1.64,4.47-2.39,3.22-1.39,4.72-2.27c.07,0,.12.07.06.1a35.37,35.37,0,0,0-4.43,2.45c-1.48.88-3,1.76-4.4,2.68s-2.87,1.8-4.28,2.72c-1.18.77-2.35,1.61-3.57,2.32a114,114,0,0,0-7.78,11.32,84,84,0,0,0-4,7.62l.87-.38,2.23-1c1.42-.63,2.86-1.25,4.29-1.87,2.72-1.18,5.49-2.27,8.16-3.57a37.8,37.8,0,0,0,4.36-2.42c.06,0,.11.06,0,.1-5,3.43-10.56,5.85-16.07,8.28l-2.38,1.06c-.66.29-1.32.62-2,.87a84.9,84.9,0,0,0-4.11,11.25,230.13,230.13,0,0,0-5.28,23.48C82.81,340,81.87,348,81.14,356c-.09,1-.18,2-.3,3a.32.32,0,0,1-.63,0C80.25,355,80.67,350.88,81.1,346.83Z" style="fill:#263238"></path><path d="M95.86,279.79c.45-2.47,1.11-4.88,1.77-7.29a.06.06,0,0,1,.11,0c-.61,2.37-1,4.79-1.5,7.2s-.86,4.91-1.2,7.38c0,.05-.07.05-.07,0A66.77,66.77,0,0,1,95.86,279.79Z" style="fill:#263238"></path><path d="M106.33,286.49a42,42,0,0,1,5.28-3c.88-.46,1.78-.9,2.67-1.33s1.89-.82,2.8-1.28a.06.06,0,0,1,.06.1c-.89.44-1.73,1-2.6,1.46l-2.7,1.47c-1.77.95-3.52,2-5.38,2.78A.13.13,0,1,1,106.33,286.49Z" style="fill:#263238"></path><path d="M77.14,304.24s-15.35-3.67-22.4-14c-6.73-9.83-8.91-26.6-9.08-28.07.27,1.35,3.44,16,13.89,22.83C67.56,290.26,75.29,294.56,77.14,304.24Z" style="fill:#263238;opacity:0.1"></path><path d="M63,277.71A19.58,19.58,0,0,1,68.63,287s0,0,0,0a22.82,22.82,0,0,0-5.69-9.25C62.84,277.75,62.92,277.66,63,277.71Z" style="fill:#263238"></path><path d="M77.14,304.24s-15.35-3.67-22.4-14c-6.73-9.83-8.91-26.6-9.08-28.07a.45.45,0,0,1,0-.11s7.36,10.47,15.1,13.14S79.36,287.13,77.14,304.24Z" style="fill:#FFC727"></path><path d="M48.36,267.87A62.07,62.07,0,0,0,53.11,276a32.39,32.39,0,0,0,6.31,6.5c2.09,1.66,4.29,3.16,6.4,4.78l0-.07c-.4-.59-.82-1.16-1.26-1.72-.88-1.13-1.84-2.19-2.81-3.23-1.91-2.07-3.85-4.11-5.56-6.35a23.84,23.84,0,0,1-2.47-4c0-.07.08-.1.11,0,2.49,5.19,7.47,8.51,11,12.89a21.87,21.87,0,0,1,1.42,1.94,8.28,8.28,0,0,1,.89,1.56,32.37,32.37,0,0,1,5.23,5.3,19.93,19.93,0,0,0-.61-3,14.79,14.79,0,0,0-1.63-3.89c0-.06.06-.12.09-.06a18.33,18.33,0,0,1,1.8,3.86,14,14,0,0,1,.55,3.32h0a29.46,29.46,0,0,1,2.08,3.22c-.07-.33-.13-.65-.19-1-.31-1.53-.65-3.06-1-4.57a27.54,27.54,0,0,0-3.7-8.65c0-.06.06-.12.1-.06a33.24,33.24,0,0,1,4.09,8.46c.49,1.51.88,3,1.23,4.59.16.75.32,1.51.46,2.27.08.39.16.8.22,1.2a55.11,55.11,0,0,1,3.55,10.41,153.59,153.59,0,0,1,3.27,19.41,161.33,161.33,0,0,1,1.06,20.61c0,.87-.07,1.73-.11,2.59,0,.22-.35.26-.36,0-.15-3.4-.24-6.81-.44-10.22s-.5-6.8-.86-10.2a182.29,182.29,0,0,0-3.2-19.85c-1.25-5.61-2.86-11.26-5.93-16.18a30.63,30.63,0,0,0-5.54-6.58c-2.15-1.94-4.5-3.63-6.77-5.42a37.07,37.07,0,0,1-6.22-6A48.71,48.71,0,0,1,49.37,270l-1.1-2.08C48.23,267.86,48.33,267.8,48.36,267.87Z" style="fill:#263238"></path><path d="M51,270.12a52.11,52.11,0,0,0,3.42,6s0,.09-.07,0a41.42,41.42,0,0,1-3.46-6C50.87,270.09,51,270.05,51,270.12Z" style="fill:#263238"></path><path d="M133.48,297.45s.24,21.82-12.8,28.12-20,1.05-28.91,3.16h0c.34-.52,6.67-9.62,16.73-12.12C118.87,314,130.34,306.54,133.48,297.45Z" style="fill:#FFC727"></path><path d="M133.48,297.45s.24,21.82-12.8,28.12-20,1.05-28.91,3.16h0a49.32,49.32,0,0,1,14.83-4.38C114.85,323.35,130.56,318,133.48,297.45Z" style="opacity:0.1"></path><path d="M90.91,329.12a22,22,0,0,1,5.19-3.52c.28-.13.57-.24.86-.36.13-.17.28-.34.43-.5q.58-.62,1.23-1.17a18.26,18.26,0,0,1,2.63-1.89c2.16-1.27,4.53-2.16,6.74-3.34.06,0,.11.06.05.1-1.09.57-2.15,1.19-3.21,1.81s-2.09,1.18-3.1,1.83A23.1,23.1,0,0,0,99.15,324c-.23.21-.45.42-.67.65a35.4,35.4,0,0,1,4.41-1.18c2.39-.48,4.8-.82,7.18-1.33a34.09,34.09,0,0,0,3.47-.93c1.08-.87,2.16-1.74,3.18-2.69a26.55,26.55,0,0,0,3.38-3.73c0-.06.14,0,.09.06a39.84,39.84,0,0,1-5.35,5.9c.57-.22,1.12-.45,1.67-.69a27,27,0,0,0,11.12-9.25c0-.06.14,0,.09.06a30.45,30.45,0,0,1-9,8.63,27.1,27.1,0,0,1-5.68,2.69,53.25,53.25,0,0,1-7.06,1.67,49.71,49.71,0,0,0-6.92,1.64,20.71,20.71,0,0,0-5.79,3.05,27.13,27.13,0,0,0-7.82,9.7,48.74,48.74,0,0,0-4.31,15.95c0,.23-.39.23-.37,0C81.39,345,83.85,335.49,90.91,329.12Z" style="fill:#263238"></path><path d="M106.05,322a7.57,7.57,0,0,1,2.69-2.43,9.92,9.92,0,0,0,3.19-2.64c0-.06.14,0,.09.06a10.77,10.77,0,0,1-2.82,2.52,10,10,0,0,0-3.06,2.54C106.1,322.1,106,322.06,106.05,322Z" style="fill:#263238"></path><polygon points="99.13 345.22 98.54 357.22 96.72 393.87 69.35 393.87 67.53 357.22 66.94 345.22 99.13 345.22" style="fill:#37474f"></polygon><polygon points="99.13 345.22 98.54 357.22 67.53 357.22 66.94 345.22 99.13 345.22" style="fill:#263238"></polygon><rect x="65.02" y="340.21" width="36.03" height="11.45" style="fill:#37474f"></rect></g><g id="freepik--Character--inject-9"><path d="M354.58,385.86s-2.86,39.72-2.86,39.74c0,7.78.06,14.6.45,18.13a0,0,0,0,0,0,0,5.68,5.68,0,0,0,.56,2.41l0,.05c2.31,1.58,64.46,3.71,66.65,3.05s.5-7-1.84-9-25.79-13.47-25.79-13.47l2.47-39.7Z" style="fill:#eb9481"></path><path d="M351.72,417.25v8.35c0,7.78.06,14.6.45,18.13a0,0,0,0,0,0,0,10.67,10.67,0,0,0,.56,2.41l0,.05c2.31,1.58,64.46,3.71,66.65,3.05s.5-7-1.84-9-25.79-13.47-25.79-13.47l.11-8.47Z" style="fill:#fff"></path><path d="M419.44,449.29c-2.2.66-64.35-1.47-66.66-3.05-.89-.59-1.11-9.66-1.06-20.64,0-.11,0-.22,0-.34l40.11.93,0,.68s23.42,11.45,25.79,13.46S421.63,448.64,419.44,449.29Z" style="fill:#FFC727"></path><path d="M418.82,446.86c-10.47-.62-52.75-2.11-63.15-1.93-.08,0-.08.06,0,.07,10.36.84,52.65,2,63.14,2C419,447,419,446.87,418.82,446.86Z" style="fill:#263238"></path><path d="M395.16,427.1c-4.09-.91-9.16-.45-12.41,2.38-.12.11,0,.29.17.25a58,58,0,0,1,12.21-2.11A.26.26,0,0,0,395.16,427.1Z" style="fill:#263238"></path><path d="M398.08,429c-4.1-.91-9.16-.45-12.41,2.38-.13.11,0,.28.16.25A57.5,57.5,0,0,1,398,429.52.26.26,0,0,0,398.08,429Z" style="fill:#263238"></path><path d="M401,430.89c-4.09-.91-9.16-.45-12.41,2.38-.12.11,0,.29.17.25A58,58,0,0,1,401,431.41.26.26,0,0,0,401,430.89Z" style="fill:#263238"></path><path d="M349.33,427.32l43.5-.87s5.31-78.29,4.32-104.39c-1.07-28.35-13.25-112.71-13.25-112.71H347.15s9.4,84.69,9.59,113C356.93,348.69,349.33,427.32,349.33,427.32Z" style="fill:#37474f"></path><path d="M376.68,209.35l-22.07,76.36c-2.62-36.14-7.46-76.36-7.46-76.36Z" style="fill:#263238"></path><path d="M354.13,213.51l2.33,25.18,2.16,25.2c1.39,16.8,2.7,33.61,3.7,50.45.24,4.2.39,8.43.33,12.66s-.26,8.44-.47,12.65q-.65,12.64-1.62,25.25t-2,25.21l-2.35,25.18,1.88-25.22q.94-12.61,1.77-25.22c.53-8.41,1.1-16.82,1.49-25.24q.3-6.32.43-12.62c0-4.2-.12-8.4-.38-12.6-.91-16.83-2.24-33.64-3.47-50.45Z" style="fill:#263238"></path><path d="M391,419.19c-6.79-.06-4.84-.14-11.63-.12-3.33,0-25.17.08-28.27.64a.07.07,0,0,0,0,.13c3.11.48,24.95,0,28.28,0,6.79-.14,4.84-.18,11.63-.4C391.14,419.39,391.14,419.19,391,419.19Z" style="fill:#263238"></path><path d="M283.86,364.55s-21,34.11-21,34.14c-3.41,7-6.27,13.18-7.46,16.52,0,0,0,0,0,.06a5.32,5.32,0,0,0-.54,2.41s0,0,0,.06c1.39,2.43,56.48,31.3,58.74,31.66s3.46-6.06,2.22-8.88-17.4-23.32-17.4-23.32l20.63-34.26Z" style="fill:#eb9481"></path><path d="M254.85,417.68a.13.13,0,0,0,0,.06c1.4,2.43,56.49,31.3,58.75,31.66s3.46-6.06,2.22-8.88-17.4-23.32-17.4-23.32l3.68-6.12c-9-4.79-25.37-13.22-35.53-18.44l-3.72,6.05c-3.41,7-6.28,13.18-7.45,16.52a.14.14,0,0,0,0,.06A5.18,5.18,0,0,0,254.85,417.68Z" style="fill:#fff"></path><path d="M313.61,449.4c-2.27-.36-57.35-29.23-58.74-31.66-.55-.92,3.19-9.19,8-19.05.05-.1.1-.21.16-.31l35.74,18.23-.33.59s16.14,20.48,17.4,23.32S315.87,449.77,313.61,449.4Z" style="fill:#FFC727"></path><path d="M314.1,446.94c-9.16-5.1-46.61-24.78-56.06-29.12-.07,0-.1,0,0,.06,9,5.25,46.58,24.62,56,29.21C314.22,447.18,314.3,447,314.1,446.94Z" style="fill:#263238"></path><path d="M301.36,418.88c-3.3-2.6-8.06-4.38-12.22-3.24-.16,0-.09.27.05.3a57.59,57.59,0,0,1,11.91,3.39A.26.26,0,0,0,301.36,418.88Z" style="fill:#263238"></path><path d="M303.16,421.85c-3.29-2.6-8.06-4.38-12.21-3.24-.16,0-.1.27,0,.3a58.31,58.31,0,0,1,11.92,3.39A.26.26,0,0,0,303.16,421.85Z" style="fill:#263238"></path><path d="M305,424.82c-3.3-2.6-8.06-4.38-12.22-3.24-.16.05-.09.27,0,.3a58.31,58.31,0,0,1,11.92,3.39A.26.26,0,0,0,305,424.82Z" style="fill:#263238"></path><path d="M380.14,209.31v0c-.16.76-2.73,12.68-5.4,22.92-1.93,7.48-3.93,14-5.07,14.73-1.29.77-7.6,3.56-9.72,4.44,0,0-14.19,70.84-21.68,92.81-6.91,20.27-35.52,74.45-35.52,74.45l-41.5-21s32.41-55,35.82-64.86c5.28-15.29,25.08-90,25.08-90s-.16-23.38,7.72-33.59Z" style="fill:#37474f"></path><path d="M302.13,410.6c-5.93-3.31-4.18-2.44-10.15-5.69-2.92-1.59-22.12-12-25.1-13-.06,0-.12.08-.06.12,2.5,1.91,21.87,12,24.82,13.53,6,3.13,4.34,2.17,10.4,5.23C302.15,410.84,302.24,410.67,302.13,410.6Z" style="fill:#263238"></path><path d="M332.78,236.4c1.14-.29,2.36-.39,3.51-.57.94-.15,1.87-.31,2.8-.52a12.11,12.11,0,0,0,4.93-2.07c1.61-1.25,2.42-3.15,3.2-5,.46-1.08.94-2.16,1.42-3.23.23-.52.47-1,.71-1.56a16.52,16.52,0,0,0,.87-1.86c0-.09.18-.05.15,0A10.32,10.32,0,0,0,350,223c-.16.53-.31,1.05-.47,1.57-.29.93-.57,1.86-.87,2.78a21.89,21.89,0,0,1-2,4.89c-1.71,2.73-4.78,3.83-7.84,4.22-.88.11-1.76.17-2.65.22a18.63,18.63,0,0,1-3.34,0A.15.15,0,0,1,332.78,236.4Z" style="fill:#263238"></path><path d="M373,245.33a82.63,82.63,0,0,0-13,6.06.15.15,0,0,0,.12.27c4.39-1.89,8.85-3.69,13.13-5.81A.29.29,0,0,0,373,245.33Z" style="fill:#263238"></path><path d="M374.34,215.32c0-.15-.28-.19-.28,0a144.35,144.35,0,0,1-.73,14.64c-.21,2.25-2,14.73-5.94,13.82-.65-.15-1-.8-1.09-1.79a16.19,16.19,0,0,1,.52-3.82c.44-2.61.79-5.23,1-7.87a71.39,71.39,0,0,0-.16-14.76.13.13,0,0,0-.25,0,136,136,0,0,1-1.19,20.37c-.49,3.24-2.13,8.13,1.27,8.63s5.69-7.68,6.11-9.92A74.69,74.69,0,0,0,374.34,215.32Z" style="fill:#263238"></path><path d="M367.5,244.09a21.34,21.34,0,0,0-.88,2.59,6,6,0,0,0-.37,2.12.15.15,0,0,0,.27.06,7.25,7.25,0,0,0,.91-2.07c.3-.8.62-1.59.89-2.4A.44.44,0,0,0,367.5,244.09Z" style="fill:#263238"></path><path d="M272.44,390.84c5.91-11.12,12-22.14,18.11-33.15,3-5.43,6.16-10.79,9-16.29a98.61,98.61,0,0,0,6.56-17q5.49-17.82,10.39-35.81t9.2-36.13c.72-3,1.51-6,2.09-9.09a27.77,27.77,0,0,0,0-9.32,30,30,0,0,1-.07-8.67,57.19,57.19,0,0,1,2-8.48c.46-1.46,1-2.91,1.46-4.36a.13.13,0,0,1,.25.08c-1.79,5.86-3.62,11.78-3.23,18,.18,3,1,5.9.92,8.9a42.42,42.42,0,0,1-1.5,8.8q-4.24,18.26-9.1,36.34t-10.27,36c-1.76,5.81-3.41,11.71-5.91,17.26s-5.67,10.81-8.66,16.11Q284.5,370.5,275,386.81l-2.43,4.12A.08.08,0,0,1,272.44,390.84Z" style="fill:#263238"></path><path d="M412.38,114.82l-9.19,25.88a1,1,0,0,0,.74,1.49l13.68,1.29a2.22,2.22,0,0,0,2-1.23l9.19-25.87c.35-.76,0-1.42-.74-1.49l-13.68-1.3A2.24,2.24,0,0,0,412.38,114.82Z" style="fill:#263238"></path><path d="M414,115l-9.19,25.88c-.35.75,0,1.42.74,1.49l13.68,1.29a2.2,2.2,0,0,0,2-1.23l9.19-25.87c.36-.76,0-1.42-.74-1.5L416,113.73A2.24,2.24,0,0,0,414,115Z" style="fill:#455a64"></path><path d="M417.64,116.53a1.17,1.17,0,1,1-1-1.3A1.18,1.18,0,0,1,417.64,116.53Z" style="fill:#263238"></path><path d="M363.36,155.92c8.05,16.43,24.4,35.58,31.62,35.55,3.44,0,10.45,1.12,14.9-2.91,9.69-8.78,18.89-23.08,21-31.93.79-3.31-17.12-11.63-19.48-8.86-5.54,6.49-11.89,19.16-12.89,19.1-3.7-.22-18.36-12-28.59-20.32C357.48,136.46,360.16,149.37,363.36,155.92Z" style="fill:#eb9481"></path><path d="M432.55,141c-1-6.95-2.35-8.58-.09-14.91,1.48-4.15-.53-6.88-3.9-3.77-5.52,5.08-6.09,14.32-5.37,17.59Z" style="fill:#eb9481"></path><path d="M429.26,161s4-9.13,3.66-16.65c-.24-5.19-2-16.45-15.76-23.71-3.26-1.72-9.12-1.87-4.83,2.88,3.06,3.37,6,4.58,7.43,6.87,0,0-7.48.7-9.08,4a69.2,69.2,0,0,0-3.56,9,16.27,16.27,0,0,0,1.63.82s-1.4,3.16.55,8.06Z" style="fill:#eb9481"></path><path d="M431.89,139.41c-1.88-2-5.95-6.08-10.45-8.28-5-2.44-15.28-5.81-17.05-2.1-1.29,2.72,2.52,4.35,2.52,4.35s-4.54-.5-5.18,2.21c-.57,2.47,2.45,3.56,2.45,3.56s-2.81.17-2.9,2.66c-.12,3,5.78,2.13,8.28,5.27C410.12,147.78,431.89,139.41,431.89,139.41Z" style="fill:#eb9481"></path><path d="M419.74,136.84A22.21,22.21,0,0,0,407,133.31c-.11,0-.16.1-.06.11a54.86,54.86,0,0,1,12.77,3.47A0,0,0,0,0,419.74,136.84Z" style="fill:#263238"></path><path d="M417.12,141.81a24.83,24.83,0,0,0-12.92-2.76c-.11,0-.16.1-.06.11a59,59,0,0,1,13,2.7A0,0,0,0,0,417.12,141.81Z" style="fill:#263238"></path><path d="M405.81,151.9l24.4,15.7s-10.52,15.52-21.81,22.88c-5.27,3.43-13.32,3-15.8,2.17-7.78-2.48-26.93-26.22-33.37-40.45-3.92-8.65,1.31-14.16,10.86-6.27,9.82,8.12,27.07,18.26,28.14,18.69S405.81,151.9,405.81,151.9Z" style="fill:#FFC727"></path><path d="M414.94,164.5c-1.83-1.2-9.09-6.05-10.8-7.38,0,0,0-.08,0-.06,1.89,1,9.2,5.56,11,6.76a123.24,123.24,0,0,1,10.74,7.48c.05,0,0,.16-.08.12C422.07,169.35,418.53,166.86,414.94,164.5Z" style="fill:#263238"></path><path d="M359.23,152.2c5.22,11.53,18.79,29.31,27.88,37l-22.94-46.68h0C358.59,140.79,356.22,145.56,359.23,152.2Z" style="opacity:0.1"></path><path d="M329.86,209.31c.15.17,53.46.72,54,0,.81-1-11.69-54.57-16.34-64.51-2-4.24-12.43-5.36-16.77-1.68C339.91,152.39,329.31,208.71,329.86,209.31Z" style="fill:#fff"></path><path d="M351.71,142s5.88,27.57,6.43,29.56S360.79,224,360.79,224l-36.58-4.43s7.8-28.05,8.67-29.32,7.82-31,13.49-41.81C348.93,143.53,351.71,142,351.71,142Z" style="fill:#FFC727"></path><path d="M366.27,143.24s2.89,22.06,3,23.37,10,55.86,10,55.86l9.46-5.06s-10.1-35.91-10.56-37.58S370,150,368.74,146.91,366.27,143.24,366.27,143.24Z" style="fill:#FFC727"></path><path d="M344.94,149.35c-10.41,13-32.88,42.84-27.08,50.29,9.54,12.25,33.76,23.79,41.39,26.5,3.3,1.18,16.51-22.52,13.46-24.68-3.66-2.59-27.42-13.35-27.48-14.53s5.33-17.7,7.49-30.75C355.4,140,349.28,143.91,344.94,149.35Z" style="fill:#eb9481"></path><path d="M367.12,199.76s10.45,2,17.22,3.64c3.78.91,10.11,3,12.58,5,3.7,2.9,17.29,17.38,13.85,20.76-3.11,3.05-13.21-10.88-13.21-10.88s11.43,13.15,7,16.14-13.75-14.26-13.75-14.26,11.45,13.77,6.4,16.13c-3.82,1.78-13.14-13.37-13.14-13.37s9.75,11.91,5.91,13.91c-4.25,2.21-13.74-11.23-13.74-11.23-10.63,3.44-17.2,1.25-21.47-1.75C353.78,223.13,367.12,199.76,367.12,199.76Z" style="fill:#eb9481"></path><path d="M394.41,214.1c9.17,9,10.89,16.29,10.8,16.1-2-4.32-6.42-10.18-7.69-11.79s-1.91-2.65-3.17-4.26C394.32,214.11,394.38,214.07,394.41,214.1Z" style="fill:#263238"></path><path d="M388,217.91a43.91,43.91,0,0,1,9.5,12.26c.08.19,0,.18-.13,0-1.55-2.1-7.78-10.22-9.42-12.23C387.9,217.92,388,217.88,388,217.91Z" style="fill:#263238"></path><path d="M382.21,220.82a32.29,32.29,0,0,1,7.08,9.71c.09.17-.06.16-.17,0-2.3-3.27-4.07-5.86-7-9.61C382.07,220.85,382.16,220.76,382.21,220.82Z" style="fill:#263238"></path><path d="M365.45,197.32l-15.14,28.4s-31.63-19.19-33.67-27.56,21.94-43.46,29-50.51,9.13-3.91,8.51,4.52-8.59,34.36-8.46,34.86S365.45,197.32,365.45,197.32Z" style="fill:#FFC727"></path><path d="M348.78,174.74q.81-2.93,1.59-5.85c.27-1,.53-2,.82-3l.39-1.4c.06-.23.15-.46.2-.69a4.17,4.17,0,0,1,.28-.93s.11,0,.1,0c-.08.54,0,.33-.09.74a9.4,9.4,0,0,0-.2.92l-.3,1.42c-.21,1-.43,1.94-.67,2.9l-.09.38a.42.42,0,0,1,0-.1c.41-1,.84-2.07,1.26-3.1a0,0,0,0,1,.08,0c-.31,1.08-.65,2.14-1.06,3.18-.23.6-.5,1.19-.77,1.78-.33,1.28-.64,2.57-1,3.85-1.05,4-2.13,7.95-3.5,11.82,1.66.87,3.37,1.65,5,2.53s3.32,1.76,5,2.66,3.31,1.78,4.95,2.7l2.33,1.34c.85.49,1.64,1.07,2.49,1.54.09,0,0,.17-.08.12-.89-.46-1.85-.82-2.75-1.26l-2.38-1.18c-1.68-.86-3.34-1.75-5-2.63s-3.33-1.76-5-2.66-3.25-1.89-4.89-2.79a.18.18,0,0,1-.1-.13.21.21,0,0,1-.08-.23C346.44,182.67,347.67,178.72,348.78,174.74Z" style="fill:#263238"></path><path d="M351.29,208.1c1.13-2,5.68-10.25,7-12.19,0,0,.08,0,.07,0-.87,2.1-5.12,10.32-6.24,12.38A127.66,127.66,0,0,1,345,220.45c-.05.07-.18,0-.14-.06C346.73,216.16,349.08,212.16,351.29,208.1Z" style="fill:#263238"></path><path d="M326.44,209.17c1.78,1.07,17.37,12.55,21,14.71.21.12-.06.18-.26.06-3.71-2.24-17.64-11.6-20.84-14.62C326.23,209.2,326.29,209.07,326.44,209.17Z" style="fill:#263238"></path><path d="M363,152.23c-3.33.38-9-5.71-10.69-10-.12-.29.65-3.14,1.41-6.64.45-2.13.9-4.51,1.16-6.71l13.41,5a35.7,35.7,0,0,0-2.32,8.3,4.64,4.64,0,0,0,0,.91v.15C366,145,366.21,151.85,363,152.23Z" style="fill:#eb9481"></path><path d="M366,143.09a.74.74,0,0,0,0,.15,9.06,9.06,0,0,1-1.43-.08c-8-1.12-8.7-11.12-8.74-13.91l3.35,1.24,9.15,3.4a35,35,0,0,0-2.32,8.29A4.64,4.64,0,0,0,366,143.09Z" style="fill:#263238"></path><path d="M353.05,115.4c-1.13,5,2.52,19,6.26,21.93,5.41,4.21,13.74,4,17.18-2.35,3.34-6.19-1.75-24.36-5.87-26.94C364.55,104.23,354.72,108,353.05,115.4Z" style="fill:#eb9481"></path><path d="M358.11,122.49c.71-2.85-1.27-7.36,0-8.72,2.76-2.94,9.33,1.7,13.54,1.37s5.22-3,4.2-6.3-4-5.23-8.64-5.53A17.21,17.21,0,0,0,356.05,107s.89-1.74.46-2.22-2.29,1.27-2.85,2a6.19,6.19,0,0,0-.83,2,6.43,6.43,0,0,0-1.88,0,3.85,3.85,0,0,0-2.32,1.28c-.06.25,1.44.32,2.49.28,0,0-1.72,2.74-1.5,4.94s4.55,12.39,5.38,12.43C356.07,127.77,357.82,123.64,358.11,122.49Z" style="fill:#263238"></path><path d="M351.5,110s.09,0,.06,0a7.13,7.13,0,0,0-1.95,3.31A8.7,8.7,0,0,0,350,118a42.25,42.25,0,0,0,4,7.92c.05.07-.08.15-.13.07a31.24,31.24,0,0,1-4.3-8.53C348.8,114.81,349.16,111.72,351.5,110Z" style="fill:#263238"></path><path d="M357.87,112.72a9.9,9.9,0,0,1,3.72-.07,14.34,14.34,0,0,1,3.3,1.3,14.22,14.22,0,0,0,7.71,1.43,0,0,0,0,1,0,.06,12.51,12.51,0,0,1-7.14-.91,30.31,30.31,0,0,0-3.44-1.46,12.77,12.77,0,0,0-4.14-.13A.11.11,0,0,1,357.87,112.72Z" style="fill:#263238"></path><path d="M358.46,105.61a19.24,19.24,0,0,1,5.09-2.17,15.14,15.14,0,0,1,5.26-.63c3.06.23,6,1.92,7,5a6.63,6.63,0,0,1-.21,4.76.09.09,0,0,1-.16-.07,6.83,6.83,0,0,0-2.23-7.88c-2.66-1.94-6.15-1.81-9.2-1.06a28.66,28.66,0,0,0-5.51,2.09S358.45,105.61,358.46,105.61Z" style="fill:#263238"></path><path d="M357,126.74s-3.64-4.28-5.61-2.94,1.07,7.76,3.6,8.43a2.5,2.5,0,0,0,3.2-1.65Z" style="fill:#eb9481"></path><path d="M352.26,125.62a0,0,0,0,0,0,.07,6.31,6.31,0,0,1,3.62,3.61,1.39,1.39,0,0,0-2.09-.18s0,.11.05.09a1.55,1.55,0,0,1,1.74.38,7,7,0,0,1,.93,1.28c.1.14.36,0,.29-.13l0,0C356.61,128.51,354.62,125.62,352.26,125.62Z" style="fill:#263238"></path><path d="M367.46,123.61s-.06.07,0,.11c.26.94.4,2.07-.39,2.59,0,0,0,.07,0,0C368.06,126,367.86,124.47,367.46,123.61Z" style="fill:#263238"></path><path d="M366.37,122.82c-1.56.26-.94,3.36.51,3.12S367.68,122.61,366.37,122.82Z" style="fill:#263238"></path><path d="M373.17,122.32s.08,0,.09.07c.16,1,.51,2,1.44,2.19,0,0,0,0,0,0C373.62,124.7,373.17,123.26,373.17,122.32Z" style="fill:#263238"></path><path d="M373.82,121.14c1.53-.43,2.27,2.65.86,3S372.55,121.5,373.82,121.14Z" style="fill:#263238"></path><path d="M364.15,119.77c.29-.34.61-.6.93-.91a2.07,2.07,0,0,1,1.13-.73.66.66,0,0,1,.68.45,1.68,1.68,0,0,1-.6,1.58,2.42,2.42,0,0,1-1.57.78A.71.71,0,0,1,364.15,119.77Z" style="fill:#263238"></path><path d="M375.38,119.43a10.47,10.47,0,0,0-1.2-.5,2.05,2.05,0,0,0-1.32-.28.66.66,0,0,0-.46.67,1.65,1.65,0,0,0,1.12,1.25,2.41,2.41,0,0,0,1.75.16A.71.71,0,0,0,375.38,119.43Z" style="fill:#263238"></path><path d="M369,130.93a8.23,8.23,0,0,1,3.73-1c.11,0,.16-.28.16-.39h0l-.48-2c.29.08,1.78.41,1.68,0a50,50,0,0,0-3.29-9.51.09.09,0,0,0-.17.06c.7,3,1.92,5.92,2.66,9a5.82,5.82,0,0,0-1.62-.15c-.09,0,.63,2.11.66,2.44a4.84,4.84,0,0,0-3.43,1.16C368.53,130.86,368.45,131.28,369,130.93Z" style="fill:#263238"></path><path d="M367.34,132.75c.27.17.57.43.92.38a2.6,2.6,0,0,0,1-.45s.06,0,0,0a1.33,1.33,0,0,1-1.1.77,1,1,0,0,1-.92-.68C367.23,132.76,367.3,132.72,367.34,132.75Z" style="fill:#263238"></path><path d="M366,143l-3.8,8-9.52-11-3.08,3.14s8.91,17.06,9,16.32l3.81-6.84,4.56,5.21.37-12.34Z" style="fill:#fff"></path><path d="M367.55,151.74c0-2,0-4.09-.06-6.13,0-.07-.11-.11-.13,0-.53,1.93-.47,9.73-.59,11.59l0,0c-.19-.23-4.24-4.6-4.29-4.54-.8,1.08-3.6,6.06-3.79,6.51-1.41-2.71-6.84-12.58-8.55-15.16a.07.07,0,0,0-.13.06c1.22,2.84,8.39,16.13,8.52,16.1a79.06,79.06,0,0,0,4-7.23c.67.94,4.73,5.84,4.76,5.54A62.34,62.34,0,0,0,367.55,151.74Z" style="fill:#263238"></path></g></svg>