<svg xmlns="http://www.w3.org/2000/svg" viewBox="0 0 500 500"><g id="freepik--background-complete--inject-6"><path d="M65.21,239.56l-13.13.27-6.66.12c-2.22,0-4.46,0-6.69.05h-.45v-.44l-.05-11.19v-.51h.5l13.24.06c4.41,0,8.82.11,13.24.16h.27v.27c0,1.89-.09,3.78-.13,5.65Zm0,0-.14-5.66c0-1.86-.12-3.7-.14-5.53l.28.27c-4.42.05-8.83.16-13.24.16l-13.24.07.5-.5-.06,11.19-.44-.45c2.18,0,4.35,0,6.54,0l6.58.12Z" style="fill:#ebebeb"></path><path d="M50.44,253.67l-13.13.27-6.66.12c-2.23,0-4.46,0-6.69.05h-.45v-.44l-.05-11.19V242H24L37.2,242c4.41,0,8.82.11,13.24.16h.27v.27c0,1.89-.09,3.78-.13,5.65Zm0,0L50.29,248c0-1.86-.11-3.7-.13-5.53l.28.27c-4.42.05-8.83.16-13.24.16L24,243l.49-.49-.05,11.19-.44-.45c2.18,0,4.35,0,6.54.05l6.58.12Z" style="fill:#ebebeb"></path><path d="M324.8,118.87l-13.12.28-6.66.11c-2.23,0-4.47,0-6.7.06h-.44v-.45l-.05-11.19v-.5h.5l13.24.06c4.41,0,8.83.12,13.24.17h.28v.27c0,1.9-.08,3.79-.13,5.65Zm0,0-.14-5.65c-.05-1.87-.11-3.71-.13-5.54l.27.27c-4.41,0-8.83.16-13.24.17l-13.24.06.5-.5-.05,11.19-.45-.45c2.18,0,4.36,0,6.55.06l6.58.11Z" style="fill:#ebebeb"></path><path d="M295.15,118.87l-13.13.28-6.66.11c-2.22,0-4.46,0-6.69.06h-.44v-.45l-.05-11.19v-.5h.5l13.24.06c4.41,0,8.83.12,13.24.17h.28v.27c0,1.9-.08,3.79-.13,5.65Zm0,0-.14-5.65c-.05-1.87-.11-3.71-.13-5.54l.27.27c-4.41,0-8.83.16-13.24.17l-13.24.06.5-.5-.06,11.19-.44-.45c2.18,0,4.36,0,6.54.06l6.58.11Z" style="fill:#ebebeb"></path><path d="M310,133l-13.13.28-6.66.11c-2.23,0-4.46,0-6.7.06h-.44V133L283,121.79v-.5h.5l13.25.06c4.41,0,8.82.12,13.24.17h.27v.27c0,1.9-.09,3.79-.13,5.65Zm0,0-.15-5.65c0-1.87-.11-3.71-.13-5.54l.28.27c-4.42,0-8.83.16-13.24.17l-13.25.06.5-.5L283.94,133l-.45-.45c2.19,0,4.36,0,6.55.06l6.58.11Z" style="fill:#ebebeb"></path><path d="M461.27,253.67l-13.12.27-6.66.12c-2.23,0-4.47,0-6.7.05h-.44v-.44l-.06-11.19V242h.5L448,242c4.42,0,8.83.11,13.24.16h.28v.27c0,1.89-.09,3.78-.13,5.65Zm0,0-.14-5.66c0-1.86-.11-3.7-.13-5.53l.27.27c-4.41.05-8.82.16-13.24.16l-13.24.06.5-.49-.05,11.19-.45-.45c2.18,0,4.36,0,6.55.05l6.58.12Z" style="fill:#ebebeb"></path><path d="M446.5,55.2l-13.12.28-6.66.11c-2.23,0-4.47,0-6.7.06h-.44V55.2L419.52,44v-.5h.5l13.24.06c4.41,0,8.83.12,13.24.17h.28V44c0,1.9-.08,3.79-.13,5.65Zm0,0-.14-5.65c-.05-1.87-.11-3.71-.13-5.54l.27.27c-4.41,0-8.83.16-13.24.17L420,44.51l.5-.5,0,11.19-.45-.45c2.18,0,4.36,0,6.55.06l6.58.11Z" style="fill:#ebebeb"></path><path d="M461.27,69.31l-13.12.28-6.66.11c-2.23,0-4.47,0-6.7.06h-.44v-.45l-.06-11.19v-.5h.5l13.24.06c4.42,0,8.83.12,13.24.17h.28v.27c0,1.9-.09,3.79-.13,5.65Zm0,0-.14-5.65c0-1.87-.11-3.71-.13-5.54l.27.27c-4.41,0-8.82.16-13.24.17l-13.24.06.5-.5-.05,11.19-.45-.45c2.18,0,4.36,0,6.55.06l6.58.11Z" style="fill:#ebebeb"></path><path d="M65.21,55.2l-13.13.28-6.66.11c-2.22,0-4.46,0-6.69.06h-.45V55.2L38.23,44v-.5h.5L52,43.57c4.41,0,8.82.12,13.24.17h.27V44c0,1.9-.09,3.79-.13,5.65Zm0,0-.14-5.65c0-1.87-.12-3.71-.14-5.54l.28.27c-4.42,0-8.83.16-13.24.17l-13.24.06.5-.5L39.17,55.2l-.44-.45c2.18,0,4.35,0,6.54.06l6.58.11Z" style="fill:#ebebeb"></path><path d="M162.77,147.49v134H53v-134c0-53.75,37.72-96.94,54.86-96.94S162.77,93.74,162.77,147.49Z" style="fill:#ebebeb"></path><path d="M154.44,149.44V272.72H61.37V149.44c0-45.59,32-89.09,46.53-89.09S154.44,103.85,154.44,149.44Z" style="fill:#fff"></path><path d="M154.44,149.44V272.73H61.37V149.44c0-1.67,0-3.33.14-5a122.27,122.27,0,0,1,10.56-42.81c10.65-24.1,26.69-41.3,35.84-41.3a10.8,10.8,0,0,1,4.4,1.08c5,2.17,11,7.61,16.89,15.33a117.89,117.89,0,0,1,11.62,18.72c1.79,3.54,3.47,7.26,5,11.13s3,8.18,4.23,12.48c.23.85.46,1.7.68,2.56A111,111,0,0,1,154.44,149.44Z" style="fill:#fff"></path><g style="opacity:0.5"><path d="M129.2,76.75l-67.69,67.7a122.27,122.27,0,0,1,10.56-42.81l40.24-40.22C117.27,63.59,123.29,69,129.2,76.75Z" style="fill:#ebebeb"></path><polygon points="154.44 203.55 154.44 235.79 117.5 272.73 85.27 272.73 154.44 203.55" style="fill:#ebebeb"></polygon><polygon points="154.44 241.45 154.44 257.56 139.27 272.73 123.17 272.73 154.44 241.45" style="fill:#ebebeb"></polygon><path d="M145.82,106.6,61.37,191V174.93l79.45-79.46C142.61,99,144.29,102.73,145.82,106.6Z" style="fill:#ebebeb"></path><path d="M150.73,121.64,61.37,211v-3.23l88.68-88.68C150.28,119.93,150.51,120.78,150.73,121.64Z" style="fill:#ebebeb"></path><polygon points="154.44 168.3 154.44 171.53 61.37 264.6 61.37 261.37 154.44 168.3" style="fill:#ebebeb"></polygon></g><rect x="61.37" y="130.14" width="93.07" height="6.65" style="fill:#ebebeb"></rect><rect x="61.37" y="177.59" width="93.07" height="6.65" style="fill:#ebebeb"></rect><rect x="61.37" y="225.03" width="93.07" height="6.65" style="fill:#ebebeb"></rect><rect x="-2.73" y="160.13" width="221.27" height="6.65" transform="translate(271.36 55.55) rotate(90)" style="fill:#ebebeb"></rect><path d="M447,147.49v134H337.23v-134c0-53.75,37.72-96.94,54.86-96.94S447,93.74,447,147.49Z" style="fill:#ebebeb"></path><path d="M438.63,149.44V272.72H345.56V149.44c0-45.59,32-89.09,46.53-89.09S438.63,103.85,438.63,149.44Z" style="fill:#fff"></path><rect x="345.56" y="130.14" width="93.07" height="6.65" style="fill:#ebebeb"></rect><rect x="345.56" y="177.59" width="93.07" height="6.65" style="fill:#ebebeb"></rect><rect x="345.56" y="225.03" width="93.07" height="6.65" style="fill:#ebebeb"></rect><rect x="281.46" y="160.13" width="221.27" height="6.65" transform="translate(555.55 -228.64) rotate(90)" style="fill:#ebebeb"></rect><g style="opacity:0.5"><path d="M426.36,98.22,345.56,179V149.44c0-.9,0-1.8,0-2.69L414.33,78A120.75,120.75,0,0,1,425,95.47C425.47,96.37,425.92,97.29,426.36,98.22Z" style="fill:#ebebeb"></path><polygon points="438.63 196.31 438.63 228.55 394.45 272.73 362.21 272.73 438.63 196.31" style="fill:#ebebeb"></polygon><polygon points="438.63 244.34 438.63 260.44 426.34 272.73 410.24 272.73 438.63 244.34" style="fill:#ebebeb"></polygon><path d="M436.93,130.86l-91.37,91.37V206.11l88.3-88.3c.12.43.25.85.37,1.27.24.85.47,1.7.68,2.56C435.7,124.67,436.38,127.74,436.93,130.86Z" style="fill:#ebebeb"></path><path d="M406.36,68.68,348,127.05q.44-2.13,1-4.2L404.7,67.11C405.24,67.6,405.8,68.13,406.36,68.68Z" style="fill:#ebebeb"></path><polygon points="438.63 182.28 438.63 185.52 351.42 272.73 348.19 272.73 438.63 182.28" style="fill:#ebebeb"></polygon></g></g><g id="freepik--Shadow--inject-6"><ellipse cx="250" cy="434.9" rx="216.05" ry="34.6" style="fill:#ebebeb"></ellipse></g><g id="freepik--Floor--inject-6"><polygon points="28.88 388.04 84.16 387.79 139.44 387.71 250 387.54 360.56 387.7 415.84 387.79 471.12 388.04 415.84 388.28 360.56 388.37 250 388.54 139.44 388.37 84.16 388.28 28.88 388.04" style="fill:#263238"></polygon></g><g id="freepik--Plant--inject-6"><path d="M434.78,330a46.75,46.75,0,0,1,1.5,8.5c-.07.15-.06.67,0,.53,0,.46.72.38.72-.08,0-.3,0-.6,0-.89,1.67-2.07,4.08-3.37,6-5.16a11.33,11.33,0,0,0,3.3-5.26c1.61-5.57.1-11.47,2-17,1.68-4.79,4.69-9,7.23-13.3,2.69-4.6,4.67-9.42,4.87-14.8.16-4.12-.34-9.61-3.47-12.69-3.33-3.27-7.45-.82-10,2.1-7.38,8.47-10.79,19.18-12.17,30.12a119,119,0,0,0-1.37,18.27A48.61,48.61,0,0,0,434.78,330Z" style="fill:#FFC727"></path><path d="M436.25,340.73a104.71,104.71,0,0,1,.2-17.17l0-.06c-.09-4.64-.46-9.26-.27-13.9a81.65,81.65,0,0,1,2-14.92,0,0,0,0,1,.09,0,97.82,97.82,0,0,0-1.62,14.58c-.09,2.62-.07,5.25.07,7.87,0,.85.12,1.71.18,2.57h0a91.85,91.85,0,0,1,13.8-36.53c.1-.15.37,0,.27.17a95.26,95.26,0,0,0-11.23,27.08c3.55-6.58,8.91-12,12.88-18.3,0,0,.08,0,.06,0-3.57,7-9.47,12.59-13.23,19.52q-1,4.23-1.59,8.54a96.41,96.41,0,0,0-.86,11.87,133.72,133.72,0,0,0,6.18-12.18c.05-.11.21,0,.17.08A47.5,47.5,0,0,1,437,333q0,4.22.24,8.43c.44,7.49,1.72,14.88,2.31,22.35a.17.17,0,0,1-.34,0A170.93,170.93,0,0,1,436.25,340.73Z" style="fill:#263238"></path><path d="M444.21,282.94c0-.05.1,0,.08,0-1.37,3.78-2.14,7.62-3.13,11.5a.14.14,0,0,1-.28-.05A41,41,0,0,1,444.21,282.94Z" style="fill:#263238"></path><path d="M409.45,298.8a56.83,56.83,0,0,0,3.15,6.47c2.47,4.48,5,8.58,5.5,13.79a32.09,32.09,0,0,0,1,6.9,20.75,20.75,0,0,0,2.75,5.41c2.68,3.89,6,7.24,8.49,11.28a47.28,47.28,0,0,1,5.64,13.6c.06.26.47.19.41-.07l0-.06s0,0,0-.06c.39-11.17-.5-22.43-3.91-33.14a115.48,115.48,0,0,0-5.41-13.78,32.69,32.69,0,0,0-7.31-10.52c-2.08-1.87-6.59-5.42-9.55-3.54C408.79,296,408.89,297.41,409.45,298.8Z" style="fill:#FFC727"></path><path d="M420.68,324.13a91.08,91.08,0,0,0,6.5,9.34c1.08,1.41,2.18,2.81,3.26,4.23.51.66,1.08,1.33,1.55,2.05l-.89-3.53a137.87,137.87,0,0,0-5-16.77,113.36,113.36,0,0,0-7.76-15.21c-.07-.13.13-.22.21-.09,2.36,3.88,4.76,7.76,6.74,11.85a62.74,62.74,0,0,1,2.86,7,107.43,107.43,0,0,0-3.81-15s.05-.07.07,0a51.72,51.72,0,0,1,4,15.64v0c.48,1.45.93,2.92,1.34,4.39,1.76,6.25,3.31,12.57,4.74,18.91a67.3,67.3,0,0,0-1.08-12.42.08.08,0,0,1,.15,0,39.32,39.32,0,0,1,1.08,13.1q.81,3.62,1.58,7.24c1.1,5.15,2.45,10.39,3.09,15.62a.1.1,0,0,1-.2,0c-.77-2.82-1.23-5.75-1.86-8.6s-1.28-5.72-1.94-8.58c-1-4.15-2-8.3-3-12.44a22.13,22.13,0,0,0-3-4.14c-1.1-1.4-2.2-2.8-3.27-4.22a63.2,63.2,0,0,1-5.38-8.32C420.55,324.12,420.65,324.08,420.68,324.13Z" style="fill:#263238"></path><path d="M420.21,319.36a58.43,58.43,0,0,1,6.35,10.09c0,.05-.05.1-.08.05-2.13-3.35-4.24-6.73-6.37-10.08C420.07,319.36,420.17,319.3,420.21,319.36Z" style="fill:#263238"></path><path d="M467.77,309.4c-1.44,2.49-3.1,5.49-2.48,8.48.4,1.9,1.79,3.44,2,5.37.56,4.27-3.7,7.09-6.77,9.1-7.68,5-18.2,9.53-19.59,19.81-.06.36-.69.27-.64-.09,0,0,0,0,0-.06s0,0,0-.07a39.34,39.34,0,0,1,.14-15.7,49.75,49.75,0,0,1,6.19-14.71c4.61-7.88,9.5-15.95,16.49-22,1.93-1.67,5.89-4.67,7.43-.9S469.55,306.36,467.77,309.4Z" style="fill:#FFC727"></path><path d="M460.75,326.1c-5.09,5.51-13.17,8.59-17.55,14.76a61.78,61.78,0,0,1,13.49-25.34c.17-.19-.1-.46-.28-.28a50.08,50.08,0,0,0-11,16,71.57,71.57,0,0,1,4.75-12.14c.07-.15-.14-.28-.22-.14a46.25,46.25,0,0,0-5.12,13.65c-5.77,14-6.31,30.35-5.1,45.07,0,.21.34.22.34,0-.34-11.6-.15-23.4,2.63-34.73l.18-.71c4.77-6.64,12.82-9.72,18-16C460.89,326.13,460.81,326,460.75,326.1Z" style="fill:#263238"></path><path d="M461.93,321.37c-2.67,2.45-5.3,4.95-8,7.4,0,0,0,.08,0,.05a39.24,39.24,0,0,0,8.09-7.29A.11.11,0,0,0,461.93,321.37Z" style="fill:#263238"></path><path d="M462.35,310.75a82.85,82.85,0,0,1-8,11c0,.05,0,.11.07.07a38.89,38.89,0,0,0,8.07-11A.09.09,0,0,0,462.35,310.75Z" style="fill:#263238"></path><polygon points="450.33 388.04 426.94 388.04 430.09 356.57 446.73 356.57 450.33 388.04" style="fill:#455a64"></polygon><polygon points="447.31 361.68 429.57 361.68 430.09 356.57 446.73 356.57 447.31 361.68" style="fill:#263238"></polygon><rect x="427.67" y="353.08" width="21.93" height="5.02" style="fill:#455a64"></rect></g><g id="freepik--Cross--inject-6"><polygon points="284.87 78.15 284.87 88.28 255.04 88.28 255.04 156.35 244.9 156.35 244.9 88.28 215.13 88.28 215.13 78.15 244.9 78.15 244.9 50.55 255.04 50.55 255.04 78.15 284.87 78.15" style="fill:#FFC727"></polygon><polygon points="283.63 78.15 283.63 87.26 254.86 87.26 254.86 153.8 245.08 153.8 245.08 87.26 216.37 87.26 216.37 78.15 245.08 78.15 245.08 50.55 254.86 50.55 254.86 78.15 283.63 78.15" style="fill:#fff;opacity:0.4"></polygon></g><g id="freepik--character-4--inject-6"><path d="M324.1,428.32c2.13.7,63,.13,65.31-1.36.89-.56,1.32-9.43,1.54-20.17v-.34c.05-2.21-2.69-39.34-2.69-39.34l-39.79.26,3,32.53.22,6.48,0,.67s-23.2,10.63-25.56,12.55S322,427.63,324.1,428.32Z" style="fill:#f7a9a0"></path><path d="M390.81,412.36c-.25,8.09-.67,14.14-1.4,14.6-2.3,1.49-63.18,2.06-65.32,1.36s-.31-6.82,2-8.72a90.39,90.39,0,0,1,9.51-5c-2.39,2.59-3.6,5.46,2.8,5.46C349.8,420.06,369.63,418.19,390.81,412.36Z" style="fill:#263238"></path><path d="M351.67,405.83H391s-6.2-102.4-5.85-104.19c.44-2.29,3-12.66,6.47-26.2,1.08-4.24,2.25-8.78,3.46-13.49,3.27-12.74,6.87-26.66,10-38.78,4.71-18.15,8.39-32.25,8.39-32.25H376.27s-4.33,13.73-9.79,31.59c-8.89,29-20.77,69-22,78.69C342.63,316.88,351.67,405.83,351.67,405.83Z" style="fill:#f7a9a0"></path><path d="M371.36,428.32c2.14.7,63,.13,65.32-1.36.88-.56,1.32-9.43,1.53-20.17,0-.11,0-.23,0-.34,0-2.21-1.87-39.34-1.87-39.34l-38.79.26,1.11,31.29,0,1.24.23,6.48,0,.67s-23.21,10.63-25.57,12.55S369.23,427.63,371.36,428.32Z" style="fill:#f7a9a0"></path><path d="M438.08,412.36c-.26,8.09-.68,14.14-1.41,14.6-2.29,1.49-63.18,2.06-65.31,1.36s-.31-6.82,2-8.72a92.07,92.07,0,0,1,9.52-5c-2.39,2.59-3.6,5.46,2.79,5.46C397.07,420.06,416.89,418.19,438.08,412.36Z" style="fill:#263238"></path><path d="M377.47,190.92s.86,17.78,4.93,31.86c.32,1.16.68,2.31,1.06,3.41a65.42,65.42,0,0,1,10.71,5.5s1.82,68,1.72,72.2c-.37,15.79,3.05,102.58,3.05,102.58l39.14.18s-4.3-96.93-4.25-102.71c.09-9.3-2.12-50.37-3.83-80.33a236.87,236.87,0,0,0-4.09-32.69Z" style="fill:#f7a9a0"></path><path d="M376.27,190.92s-30.22,93.39-32,104.76a184.38,184.38,0,0,0-2.09,18.79s26.27,13.22,44.16,12.77S436,319.68,436,319.68s-4.94-93.76-5.05-94.74,6.58-11.53-3.51-34.24Z" style="fill:#263238"></path><path d="M397.47,104.28c1,0,5.11-1,8.37,2.46,3.1,3.27,5.39,14.11,6.25,16.43s4,2.29,5.12,5c.93,2.3-.69,3.39-.65,5.17,0,1.37,1.65,3.23.66,5.4-.9,2-2.93,1.82-4.05,2.54s-1.53,3.58-3.65,4.61-4.33-.76-5.5-.6-2.11,3.94-6,4.1-5.38-2.94-7-3.39-5.5,1.16-7.56-.59-2.7-4.35-3.64-5.22-2.62-.51-3.92-2.63.62-3.81.67-5.8c0-1.38-1.33-2.48-.74-4.66.82-3,4.39-2.83,5.35-5.92.76-2.43,1.68-12.7,7.41-15.91C392.52,103,397.47,104.28,397.47,104.28Z" style="fill:#263238"></path><path d="M411.9,122.61a3.39,3.39,0,0,0,1.19,1.16l1.38.92a10.46,10.46,0,0,1,2.5,2.06,3.34,3.34,0,0,1,.73,2.86,4.92,4.92,0,0,1-.64,1.43,5.73,5.73,0,0,0-.76,1.57,2.85,2.85,0,0,0,.38,1.79c.24.51.5,1,.71,1.48a3.93,3.93,0,0,1,.28,3,2.26,2.26,0,0,1-.92,1.17,4.33,4.33,0,0,1-1.49.52c-.53.1-1.08.15-1.63.23a2.82,2.82,0,0,0-1.56.56,3,3,0,0,1,1.57-.39c.55,0,1.11,0,1.67-.1a4.24,4.24,0,0,0,1.64-.48,2.71,2.71,0,0,0,1.17-1.33,4.28,4.28,0,0,0-.19-3.42c-.22-.52-.48-1-.7-1.51a2.21,2.21,0,0,1-.31-1.4c.22-.91,1.11-1.82,1.34-3a3.72,3.72,0,0,0-.92-3.31,10.68,10.68,0,0,0-2.71-2l-1.45-.8A3.76,3.76,0,0,1,411.9,122.61Z" style="fill:#263238"></path><path d="M383.68,111.57a47.85,47.85,0,0,0-1.86,5.65c-.3.94-.57,1.89-.93,2.79a6.67,6.67,0,0,1-.64,1.25,1.45,1.45,0,0,1-.45.45c-.19.14-.4.26-.61.39-.83.5-1.72,1-2.54,1.58a5.09,5.09,0,0,0-1.89,2.44,3.21,3.21,0,0,0-.11,1.57,4,4,0,0,0,.63,1.41,6.29,6.29,0,0,1,1.26,2.63,6,6,0,0,0-1-2.79,3.77,3.77,0,0,1-.51-1.32,2.8,2.8,0,0,1,.18-1.34,4.89,4.89,0,0,1,1.78-2.13,25.83,25.83,0,0,1,2.52-1.51c.21-.13.43-.27.64-.42a2.11,2.11,0,0,0,.58-.61,6.87,6.87,0,0,0,.68-1.39,23,23,0,0,0,.87-2.87l.67-2.9A25.79,25.79,0,0,1,383.68,111.57Z" style="fill:#263238"></path><path d="M378.77,139.6a5.17,5.17,0,0,1,.88,1.9c.24.67.47,1.34.74,2a10.06,10.06,0,0,0,1,1.93A4.69,4.69,0,0,0,383,147a5.94,5.94,0,0,0,4.37,0c.68-.22,1.34-.47,2-.67a4.55,4.55,0,0,1,2.07-.25,4.09,4.09,0,0,0-2.14-.05c-.7.14-1.39.34-2.07.5a6.05,6.05,0,0,1-3.95-.06,4.34,4.34,0,0,1-1.42-1.35,13.71,13.71,0,0,1-1-1.79c-.32-.63-.6-1.28-.89-1.92-.16-.33-.31-.65-.49-1A2,2,0,0,0,378.77,139.6Z" style="fill:#263238"></path><path d="M387.56,144.41c-10,5.79-45.44,27.6-46.89,41.2-.92,8.64,10.62,13.37,17.49,10.23,5-2.29,29.77-34.76,34.36-42.83C396.89,145.32,397,139,387.56,144.41Z" style="fill:#455a64"></path><path d="M392.52,153c-4.52,7.94-28.53,39.5-34.1,42.7l-.26.13a11.6,11.6,0,0,1-4.8,1l-.92,0-.25,0c-.32,0-.63-.06-.95-.11s-.67-.11-1-.18l-.31-.07-.74-.19-.38-.12c-.24-.07-.47-.15-.7-.24s-.62-.24-.93-.38-.7-.33-1-.51-.61-.36-.9-.55l47.4-52C396.69,142,395.87,147.11,392.52,153Z" style="fill:#263238"></path><path d="M376.77,180S346,268.85,341.38,300c-3.62,24.41-1.16,107.49-1.16,107.49s10.78,6.55,20.33,7.67l2.93,5.59s27.76,7.47,71.75-.27c1.09-.19,1.63-4.87,1.63-4.87,7-1.18,20.21-7.77,20.21-7.77L440,320.5s-.52-91.52-14.56-123.68c-2-4.58-5.81-38.68-16.62-50.81-6.26-7-13.82-6.47-18.62-1.65-1.21,1.22-15.55,15.84-17.1,23.1C371.69,173.87,376.77,180,376.77,180Z" style="fill:#455a64"></path><path d="M393.14,177.15a45.93,45.93,0,0,0-6.84-.12c-1.13.08-2.25.22-3.37.37-.56.08-1.12.14-1.68.2a8.06,8.06,0,0,1-1.77,0c-.05,0-.07.07,0,.08a11.72,11.72,0,0,0,1.66.27,12.51,12.51,0,0,0,1.62,0c1.15-.07,2.3-.2,3.44-.28,2.32-.17,4.64-.33,7-.33C393.25,177.34,393.25,177.16,393.14,177.15Z" style="fill:#263238"></path><path d="M398.31,180.13a49.24,49.24,0,0,0-5.5-1.27c-.93-.16-1.86-.26-2.8-.34-.45,0-.89-.07-1.34-.09s-1,0-1.49,0c-.05,0-.07.08,0,.08.46,0,.92.17,1.38.24l1.39.22c.93.14,1.86.3,2.79.43,1.86.28,3.71.57,5.56.91A.08.08,0,0,0,398.31,180.13Z" style="fill:#263238"></path><path d="M360.55,415.17a43.45,43.45,0,0,1-10.61-2.91c-.38-11.74-.66-40.77.31-46,1.21-6.56,7.87-50.75,8.75-48.87s-4,45.34-3.77,49.68S359.11,411.1,360.55,415.17Z" style="fill:#37474f"></path><path d="M446.75,412.47a53.84,53.84,0,0,1-9.89,3.15s-10.46-26.46-12.35-34.5-3.32-36.42-.88-40.41,5.54,29.27,8.2,35.47C433.8,380.79,442.43,401.89,446.75,412.47Z" style="fill:#37474f"></path><path d="M409.33,331.07c-2.58,3.15-4.88,15.74-4.44,21.06s2.44,15.13,4.44,15.21,1-12.11,1.66-17.43S413.76,325.64,409.33,331.07Z" style="fill:#37474f"></path><path d="M361,378.29c-1.33,2.46.4,17.51,2.06,20.95s4.88,14.19,5.88,14-3.79-13.34-3.66-16.52S362.42,375.74,361,378.29Z" style="fill:#37474f"></path><path d="M454,392.31a60.29,60.29,0,0,1-22.62,9.24c-1.85.78-13.5,5.28-36.06,5.28-2.26,0-4.63,0-7.11-.14-22.07-.88-30.19-5.17-32-6.34a96.45,96.45,0,0,1-16.32-5.77c0-1.41-.06-2.93-.09-4.52,7.07,3.86,17.59,6.46,17.72,6.49l.42.11.34.27s6.72,4.83,30.1,5.76c27.88,1.1,41.46-4.83,41.6-4.89l.22-.1.25,0A56.61,56.61,0,0,0,453.18,388Z" style="fill:#ebebeb"></path><path d="M452.29,383.48a46.49,46.49,0,0,1-24,9.18c-1.55.89-10.95,5.69-32.47,5.69q-3.57,0-7.6-.19c-22-1.06-30.68-6.71-32-7.71a98.88,98.88,0,0,1-16.51-5.8c0-.75,0-1.51,0-2.28,6.5,3.47,17.12,6.16,17.24,6.19l.21.06.17.13c.08.06,8.19,6.31,31.07,7.41,28.05,1.36,39-5.26,39.13-5.33l.2-.12.25,0a44.85,44.85,0,0,0,23.92-9.43Z" style="fill:#ebebeb"></path><path d="M409.41,144.78c9.3,6,44.61,33.24,45.55,42.62.87,8.64-11.57,8.84-18.46,5.74-5-2.26-29.39-31.8-34-39.85C398.07,145.62,400.27,138.94,409.41,144.78Z" style="fill:#455a64"></path><path d="M419.87,175.91c-.94-1.12-1.83-2.28-2.76-3.42s-1.91-2.23-2.88-3.33-1.91-2.24-2.9-3.32-2-2.07-3-3.08c0,0-.1,0-.07.07.88,1.16,1.79,2.32,2.73,3.44.52.63,1.06,1.24,1.61,1.85a25.13,25.13,0,0,0-2.79-2c-.05,0-.09,0-.05.08.73.62,1.48,1.19,2.24,1.78.37.28.73.57,1.09.86l.4.3.37.42c.93,1.06,1.86,2.14,2.83,3.17s2.1,2.16,3.12,3.26C419.84,176,419.91,176,419.87,175.91Z" style="fill:#263238"></path><path d="M373.33,190.28c-1.16-1-.66-1.69,2-1.66s13.22,2.6,13.79-1.46-14.35-7.46-18.81-7.14-11.61,2.53-11.61,2.53C361.49,183.84,367.93,187.67,373.33,190.28Z" style="fill:#f7a9a0"></path><path d="M419,191.46c1.45-.74,1.07-1.51-1.77-2.06S402.7,189.06,403,185s16.81-4.17,21.48-2.88,11.75,5,11.75,5C433,187.75,425.33,190.09,419,191.46Z" style="fill:#f7a9a0"></path><path d="M365,166.71l1.11-.8s8.49,2.57,11.14,3.2,15.93.46,20.69,7.19l-1.49,29.86-26.71-7.65Z" style="fill:#ebebeb"></path><path d="M431.7,170l-1-.91s-8.7,1.71-11.41,2.08-15.89-1.13-21.29,5.1l-1.49,29.86,27.34-5Z" style="fill:#ebebeb"></path><polygon points="396.41 207.83 397.88 178.17 432.75 169.23 424.74 202.14 396.41 207.83" style="fill:#263238"></polygon><polygon points="396.41 207.83 397.88 178.17 364.08 165.81 368.78 199.35 396.41 207.83" style="fill:#263238"></polygon><path d="M357.09,231.09s-7.45-36,6.84-50.09c0,0,1.93,21.73-1.81,37.95C361,223.78,357.09,231.09,357.09,231.09Z" style="fill:#37474f"></path><path d="M350.09,177.25c-7-.75-10.13,8.42-8.11,13.26a29.37,29.37,0,0,0,16.69,16c3.2,1.11,11.34-21.88,8-23.39C363.79,181.81,360,178.32,350.09,177.25Z" style="fill:#f7a9a0"></path><path d="M353.47,204c8.6,5.5,18.38,9.16,27.92,7.46A4.76,4.76,0,0,0,384.2,210c4.29-.68,5.31-3.07,5.31-3.07,3.83-2,4.56-4.55,4.56-4.55s5-.86,5.09-4.22c.09-3.78-7-1.83-11.45-3.33-10.23-3.43-23.83-11.41-26.69-12.71Z" style="fill:#f7a9a0"></path><path d="M374.56,199.37a65.5,65.5,0,0,0,9.11,2.45,64.59,64.59,0,0,0,10.31.42.09.09,0,0,1,0,.18,33.88,33.88,0,0,1-19.49-2.9C374.37,199.45,374.4,199.32,374.56,199.37Z" style="fill:#263238"></path><path d="M371.66,205.77c3,.74,8.27,2,17.84,1,0,0,0,0,0,.06a30.3,30.3,0,0,1-17.88-.91C371.44,205.86,371.46,205.72,371.66,205.77Z" style="fill:#263238"></path><path d="M370.16,209.24c5.15,1,8.52,1,14,.68,0,0,0,.06,0,.07-6.23,1.07-8.59.7-14.09-.56C369.91,209.38,370,209.2,370.16,209.24Z" style="fill:#263238"></path><path d="M363.9,181c.32.15-2.33,6.69-5.12,18.46-3.58,15.1-1.47,31.8-1.69,31.68s-6.45-4.91-11.29-17.52c-2.46-6.42-5.37-16-5.3-23.56.05-5,1.41-11.65,6.89-12.72C353.46,176.1,358.33,178.17,363.9,181Z" style="fill:#455a64"></path><path d="M353.41,227.26a41.42,41.42,0,0,1-3.62-5.29,82.2,82.2,0,0,1,.28-18.38c1.31-8.74,6.31-19.4,9.09-24.83.91.37,1.82.78,2.75,1.22-2.67,5.22-7.63,15.74-8.87,24.05C351.73,212.82,352.81,222.91,353.41,227.26Z" style="fill:#ebebeb"></path><path d="M348,201.41a76,76,0,0,0-.8,15.46c-.36-.81-.72-1.65-1.07-2.54a72.21,72.21,0,0,1,.88-13.09c1.4-8.07,6.21-18,9.14-23.52.33.09.65.18,1,.29C354.21,183.43,349.36,193.38,348,201.41Z" style="fill:#ebebeb"></path><path d="M363.91,180.91a18.47,18.47,0,0,0-2.78-1.54c-.8-.37-1.61-.72-2.43-1-.2-.14-.42-.27-.62-.4s-.68-.4-1-.59c-.7-.37-1.41-.7-2.12-1,0,0,0,0,0,0,.66.45,1.32.89,2,1.3l.23.13c-.68-.23-1.36-.45-2-.63-.49-.12-1-.21-1.48-.3a8.32,8.32,0,0,0-1.55-.24s0,0,0,.07a13.35,13.35,0,0,0,1.51.5c.48.17,1,.36,1.45.52,1,.32,2,.64,3,1s1.94.72,2.9,1.11,2,.85,3,1.18C363.92,181,364,180.94,363.91,180.91Z" style="fill:#263238"></path><path d="M429.51,234.57s15.64-33.42,3.52-50.27c0,0-6.71,20.64-6.24,37.3C426.93,226.57,429.51,234.57,429.51,234.57Z" style="fill:#37474f"></path><path d="M448.51,183.48c7.61.79,8.93,10.43,5.74,14.72a31.57,31.57,0,0,1-21.14,12c-3.62.39-7.31-23.85-3.49-24.61C433,184.94,437.8,182.36,448.51,183.48Z" style="fill:#f7a9a0"></path><path d="M439.17,208.9c-10.29,3.5-21.45,4.95-31.2,1.21a5.19,5.19,0,0,1-2.64-2.12c-4.4-1.6-5-4.15-5-4.15-3.64-2.75-3.86-5.44-3.86-5.44s-5.14-1.93-4.49-5.24c.72-3.7,7.8-.26,12.86-.75,11.57-1.12,27.71-6,31-6.61Z" style="fill:#f7a9a0"></path><path d="M417.82,199.76a73.78,73.78,0,0,1-10.19.4,74.74,74.74,0,0,1-11-1.83.09.09,0,0,0-.05.18,39.6,39.6,0,0,0,21.28,1.4C418,199.88,418,199.74,417.82,199.76Z" style="fill:#263238"></path><path d="M419.52,206.65c-3.34.07-9.2.15-19.13-2.92a0,0,0,0,0,0,.06,35.48,35.48,0,0,0,19.15,3C419.73,206.78,419.74,206.64,419.52,206.65Z" style="fill:#263238"></path><path d="M420.36,210.36c-5.68-.09-9.25-.87-15-2.38,0,0-.05,0,0,.06,6.37,2.4,8.95,2.55,15.05,2.52C420.59,210.56,420.58,210.37,420.36,210.36Z" style="fill:#263238"></path><path d="M433.07,184.08c-.37.08,1,7,1.46,19.16.55,15.53-5.27,31.4-5,31.33s7.9-3.4,15.73-14.66c4-5.74,9.14-14.48,10.68-21.88,1-4.92,1-11.69-4.56-13.93C445.18,181.62,439.58,182.58,433.07,184.08Z" style="fill:#455a64"></path><path d="M442.75,210.12A80.47,80.47,0,0,1,439.48,227a43.32,43.32,0,0,1-4.5,4.1c1.63-4.67,4.25-13.22,4.77-21.14.59-8.95-2.43-21.26-3.85-26.46,1-.21,2-.39,3-.52C440.38,188.45,443.36,200.78,442.75,210.12Z" style="fill:#ebebeb"></path><path d="M446.27,208.47A72.15,72.15,0,0,1,444.45,221q-.76,1-1.5,2a74.94,74.94,0,0,0,2.32-14.57c.36-8.59-2.59-20.08-4.23-25.74.34,0,.68-.06,1-.08C443.72,188.39,446.63,199.84,446.27,208.47Z" style="fill:#ebebeb"></path><path d="M433.07,184a20.21,20.21,0,0,1,3.28-.9c.93-.19,1.86-.35,2.8-.47.24-.1.5-.18.74-.26.41-.12.81-.25,1.22-.35.82-.21,1.64-.38,2.47-.55a0,0,0,0,1,0,0c-.79.29-1.58.58-2.39.83l-.27.07c.77-.07,1.54-.14,2.3-.16.55,0,1.09,0,1.64,0a9.53,9.53,0,0,1,1.69.1,0,0,0,0,1,0,.07,16.41,16.41,0,0,1-1.72.16c-.55.06-1.1.14-1.65.19-1.12.1-2.25.19-3.37.34s-2.21.28-3.31.45-2.28.4-3.42.5C433,184.14,433,184.06,433.07,184Z" style="fill:#263238"></path><path d="M402.42,143.78c-.25.95-5,7-9.29,6.62-1.41-.12-1.14-7.84-1.14-7.84l-.11-.57-1.53-8,9.57-5.72,1.38-.76s.28,2.23.59,5c0,.13,0,.26,0,.4a3.47,3.47,0,0,1,.06.45c.05.41.11.83.15,1.26s.07.63.09,1,0,.67.09,1A50.84,50.84,0,0,1,402.42,143.78Z" style="fill:#f7a9a0"></path><path d="M401.89,132.48a16.43,16.43,0,0,1-10,9.51l-1.53-8,9.57-5.72,1.38-.76S401.58,129.7,401.89,132.48Z" style="fill:#263238"></path><path d="M379.33,120.09c-2.82,14.09,5.31,17.36,8.34,18,2.76.54,12.22,2.06,16.48-11.67s-1.41-19.48-7.65-21.07S382.14,106,379.33,120.09Z" style="fill:#f7a9a0"></path><path d="M383.68,118.31c.34,0,.66,0,1-.08a1.67,1.67,0,0,0,1-.28.51.51,0,0,0,.07-.62,1.27,1.27,0,0,0-1.2-.45,1.87,1.87,0,0,0-1.24.51A.55.55,0,0,0,383.68,118.31Z" style="fill:#263238"></path><path d="M393.81,120.46c-.33-.08-.62-.21-.94-.32a1.59,1.59,0,0,1-.89-.52.5.5,0,0,1,.08-.62,1.26,1.26,0,0,1,1.27-.13,1.82,1.82,0,0,1,1.08.8A.54.54,0,0,1,393.81,120.46Z" style="fill:#263238"></path><path d="M391.36,122.94s.06,0,.06.09c-.18,1-.22,2.1.6,2.55,0,0,0,.06,0,0C391,125.32,391,123.82,391.36,122.94Z" style="fill:#263238"></path><path d="M392.37,122.06c1.58.11,1.22,3.25-.23,3.14S391.05,122,392.37,122.06Z" style="fill:#263238"></path><path d="M393,122.29c.25.21.49.55.81.62s.71-.21,1-.5c0,0,.06,0,.05,0-.06.6-.36,1.19-1,1.21s-1-.56-1-1.18C392.75,122.36,392.87,122.21,393,122.29Z" style="fill:#263238"></path><path d="M385.35,121.73s-.08,0-.09.07c-.07,1-.31,2.09-1.23,2.32,0,0,0,0,0,0C385.13,124.13,385.44,122.66,385.35,121.73Z" style="fill:#263238"></path><path d="M384.58,120.62c-1.55-.28-2,2.84-.56,3.1S385.89,120.86,384.58,120.62Z" style="fill:#263238"></path><path d="M383.9,120.73c-.27.13-.56.4-.85.37s-.55-.4-.72-.75c0,0-.05,0-.06,0-.1.59,0,1.24.57,1.44s1-.28,1.19-.85C384.07,120.86,384,120.68,383.9,120.73Z" style="fill:#263238"></path><path d="M389.41,131c-.25.22-.5.51-.86.52a2.51,2.51,0,0,1-1-.31,0,0,0,0,0,0,0,1.36,1.36,0,0,0,1.21.62,1,1,0,0,0,.82-.82C389.52,131,389.45,131,389.41,131Z" style="fill:#263238"></path><path d="M385.79,127s-.38,1.43-.47,2.11c0,.06.16.11.39.16h0a3.28,3.28,0,0,0,3.31-.82c.06-.06,0-.14-.09-.11a4.89,4.89,0,0,1-3.07.48c0-.19.73-2.42.62-2.44a6.15,6.15,0,0,0-1.6.16c.71-3,1.89-5.84,2.55-8.83a.1.1,0,0,0-.18-.07,50.63,50.63,0,0,0-3.14,9.4C384,127.42,385.5,127.08,385.79,127Z" style="fill:#263238"></path><path d="M385.81,129a4,4,0,0,0,1.33,1.5,1.81,1.81,0,0,0,1.06.27c.81-.06,1-.77.93-1.4a4.54,4.54,0,0,0-.18-1A5.15,5.15,0,0,1,385.81,129Z" style="fill:#263238"></path><path d="M387.14,130.52a1.81,1.81,0,0,0,1.06.27c.81-.06,1-.77.93-1.4A1.84,1.84,0,0,0,387.14,130.52Z" style="fill:#ff9bbc"></path><path d="M404.06,127.17a5.93,5.93,0,0,1-3.09-5,15.42,15.42,0,0,1-6.06-5.39c.09.31.68,2.48,1,3.58-9-2.15-11.53-9.28-11.53-9.28a15.72,15.72,0,0,0-4.26,5.6s.21-5.61,3.27-9.22a9,9,0,0,1,8.51-3.31,12.92,12.92,0,0,1,12.42,4.49C409.94,115.4,404.06,127.17,404.06,127.17Z" style="fill:#263238"></path><path d="M389.06,118.52a16.81,16.81,0,0,0,4.6,2s0,0,0,0a14.36,14.36,0,0,1-6.5-4.38,13.61,13.61,0,0,1-1.84-2.85,9.4,9.4,0,0,1-1-3.54c0-.09-.15-.09-.14,0a10.93,10.93,0,0,0,.54,3.64,10.07,10.07,0,0,0,1.89,3.12,11.57,11.57,0,0,0,2.49,2.08" style="fill:#263238"></path><path d="M390.65,128a4.21,4.21,0,0,1-2.53-5.4h0a4.25,4.25,0,1,1,2.53,5.41Zm-2-5.21a3.66,3.66,0,1,0,4.68-2.2,4,4,0,0,0-.88-.2A3.66,3.66,0,0,0,388.65,122.79Z" style="fill:#455a64"></path><path d="M381.94,126.07c-1.69-.37-2.66-2.52-2.17-4.79a5.07,5.07,0,0,1,1.5-2.7,2.63,2.63,0,0,1,4.4,1,5,5,0,0,1,.25,3.07c-.48,2.15-2.1,3.66-3.7,3.5Zm-.29-7.06a4.54,4.54,0,0,0-1.33,2.39c-.43,2,.35,3.82,1.74,4.12s2.87-1,3.3-3a4.47,4.47,0,0,0-.2-2.73,2.25,2.25,0,0,0-1.54-1.39l-.21,0A2.29,2.29,0,0,0,381.65,119Z" style="fill:#455a64"></path><path d="M388.15,123.1l.45-.34c-.51-.66-1.81-1.69-3.05-.83l.32.47C387,121.62,388.1,123,388.15,123.1Z" style="fill:#455a64"></path><path d="M406.3,128.18l.54-.14c-.06-.26-.7-2.5-1.88-3s-8.66-1.36-9-1.4l-.07.56c2.17.26,8,1,8.84,1.36S406.13,127.57,406.3,128.18Z" style="fill:#455a64"></path><path d="M401.69,127s3.61-4.11,5.51-2.78-1.16,7.54-3.63,8.16a2.43,2.43,0,0,1-3.09-1.66Z" style="fill:#f7a9a0"></path><path d="M406.28,126a0,0,0,0,1,0,.06,6.15,6.15,0,0,0-3.58,3.47,1.34,1.34,0,0,1,2-.14s0,.1-.05.08a1.48,1.48,0,0,0-1.69.34,6.7,6.7,0,0,0-.93,1.24c-.1.14-.36,0-.28-.14l0,0C402,128.76,404,126,406.28,126Z" style="fill:#263238"></path><path d="M391.87,143l2.92,6.36,7.65-8.6,2.41,2.52s-7.23,13.41-7.31,12.83l-3-5.46-3.66,4.08-.17-9.77Z" style="fill:#ebebeb"></path><path d="M390.57,149.88c0-1.61,0-3.24.11-4.85,0-.06.09-.09.11,0,.4,1.54.26,7.71.34,9.19l0,0c.15-.18,3.41-3.6,3.44-3.55.62.86,2.79,4.83,2.94,5.2,1.14-2.14,5.54-9.89,6.92-11.92a.06.06,0,0,1,.1.05c-1,2.24-6.81,12.68-6.91,12.66s-2.74-4.84-3.08-5.77a42.4,42.4,0,0,1-3.83,4.34A52.23,52.23,0,0,1,390.57,149.88Z" style="fill:#263238"></path></g><g id="freepik--character-3--inject-6"><path d="M230.37,443.42c2.19.68,64.39-.65,66.73-2.2.89-.58,1.22-9.66,1.32-20.63q0-3.55,0-7.3c0-2.94,0-5.92-.05-8.81-.17-13-.56-24.43-.56-24.43l-40.5.75.47,24.43L258,414l.34,7.3s-23.59,11.16-26,13.14S228.18,442.75,230.37,443.42Z" style="fill:#dd6a57"></path><path d="M230.37,443.42c2.19.68,64.39-.65,66.73-2.2.89-.58,1.22-9.66,1.32-20.63q0-3.55,0-7.3c0-2.94,0-5.92-.05-8.81l-40.59.75L258,414l.34,7.3s-23.59,11.16-26,13.14S228.18,442.75,230.37,443.42Z" style="fill:#fff"></path><path d="M230.18,443.52c1.43.44,27.93,0,47.21-.72,4.46-.17,8.54-.37,11.83-.58,4.54-.29,7.58-.59,8.07-.92,1.08-.72,1.36-14,1.35-28.08l-40.7.75.34,7.34s-23.71,11.22-26.12,13.21S228,442.82,230.18,443.52Z" style="fill:#455a64"></path><path d="M231,441c10.48-.48,52.8-1.43,63.19-1.11.09,0,.09.06,0,.06-10.38.71-52.7,1.32-63.19,1.23C230.81,441.16,230.8,441,231,441Z" style="fill:#263238"></path><path d="M256.75,419c4.11-.86,9.17-.33,12.39,2.54.12.11,0,.29-.17.25a58,58,0,0,0-12.19-2.27A.26.26,0,0,1,256.75,419Z" style="fill:#263238"></path><path d="M253.81,420.87c4.11-.86,9.17-.33,12.39,2.54.12.11,0,.29-.17.25a58,58,0,0,0-12.19-2.27A.26.26,0,0,1,253.81,420.87Z" style="fill:#263238"></path><path d="M250.87,422.73c4.11-.86,9.17-.33,12.39,2.54.12.11,0,.28-.17.24a58.61,58.61,0,0,0-12.19-2.26A.26.26,0,0,1,250.87,422.73Z" style="fill:#263238"></path><path d="M247.93,424.59c4.11-.86,9.17-.34,12.39,2.54.12.11,0,.28-.17.24A58.61,58.61,0,0,0,248,425.11.26.26,0,0,1,247.93,424.59Z" style="fill:#263238"></path><path d="M262,443.29c5.23-.13,10.53-.3,15.37-.49,4.46-.17,8.54-.37,11.83-.58,4.54-.29,7.58-.59,8.07-.92.94-.63,1.28-10.92,1.33-22.9C289.39,424.57,271.25,437,262,443.29Z" style="fill:#263238"></path><path d="M254.31,420.83l46.22.05s-2.54-104-2-106.45c1.19-5.79,27.47-97.51,27.47-97.51l-36.49.63-9.81.22s-1.58,15.27-2,16.89c-6.09,22.25-18,60.25-20.43,74.33C253,333.4,254.31,420.83,254.31,420.83Z" style="fill:#a6a6a6"></path><path d="M255.81,413.11c7.21-.18,32.74-.95,42.36-.23a.07.07,0,0,1,0,.14c-3.3.54-35.15.39-42.36.29A.1.1,0,1,1,255.81,413.11Z" style="fill:#263238"></path><path d="M294.87,312.13c1.38-5.63,11.67-40.66,14.82-51.73s6.1-22.17,8.81-33.34c.35-1.42.7-2.83,1.07-4.24a.1.1,0,0,1,.19.05c-1,5.62-2.42,11.2-3.74,16.77s-2.73,11.11-4.22,16.64q-4.47,16.67-9.76,33.09c-1.76,5.45-4.67,16.66-6.21,22.18s1,96.11.81,97.58a.33.33,0,0,1-.65,0C295.79,398.45,293.5,317.68,294.87,312.13Z" style="fill:#263238"></path><path d="M289.46,217.54s8.93,97.35,9,96.88c1.15-5.6,25.85-91.85,27.41-97.24.05-.17.07-.26.07-.26Z" style="fill:#263238"></path><path d="M277.92,448.75c2.19.68,64.39-.65,66.73-2.2.89-.57,1.22-9.65,1.32-20.62,0-2.38,0-4.81,0-7.31,0-2.94,0-5.92-.05-8.81-.17-13-.56-24.43-.56-24.43l-40.5.75.47,24.43.18,8.81.34,7.3s-23.59,11.16-26,13.14S275.73,448.08,277.92,448.75Z" style="fill:#dd6a57"></path><path d="M277.92,448.75c2.19.68,64.39-.65,66.73-2.2.89-.57,1.22-9.65,1.32-20.62,0-2.38,0-4.81,0-7.31,0-2.94,0-5.92-.05-8.81l-40.59.75.18,8.81.34,7.3s-23.59,11.16-26,13.14S275.73,448.08,277.92,448.75Z" style="fill:#fff"></path><path d="M277.73,448.85c1.43.44,27.93,0,47.21-.71,4.46-.18,8.54-.38,11.83-.59,4.54-.29,7.58-.59,8.07-.92,1.08-.72,1.36-14,1.35-28.08l-40.7.75.34,7.34s-23.71,11.22-26.12,13.21S275.54,448.15,277.73,448.85Z" style="fill:#455a64"></path><path d="M278.57,446.33c10.48-.49,52.8-1.44,63.19-1.12.09,0,.09.06,0,.07-10.38.7-52.7,1.31-63.19,1.22C278.36,446.5,278.35,446.34,278.57,446.33Z" style="fill:#263238"></path><path d="M304.3,424.34c4.11-.86,9.17-.33,12.39,2.54.12.11,0,.29-.17.25a58,58,0,0,0-12.19-2.27A.26.26,0,0,1,304.3,424.34Z" style="fill:#263238"></path><path d="M301.36,426.2c4.11-.86,9.17-.33,12.39,2.54.12.11,0,.29-.17.25a58,58,0,0,0-12.19-2.27A.26.26,0,0,1,301.36,426.2Z" style="fill:#263238"></path><path d="M298.42,428.06c4.11-.86,9.17-.33,12.39,2.54.12.11,0,.29-.17.25a58,58,0,0,0-12.19-2.27A.26.26,0,0,1,298.42,428.06Z" style="fill:#263238"></path><path d="M295.48,429.92c4.11-.86,9.17-.33,12.39,2.54.12.11,0,.28-.17.24a58.61,58.61,0,0,0-12.19-2.26A.26.26,0,0,1,295.48,429.92Z" style="fill:#263238"></path><path d="M303.52,425.54l44.84-.83S335.77,263,337.33,254.4c2.57-14-.25-26.82-4-37.63l-46.08.81s-.64,12.28,4,19.52c0,0,4.14,2.51,6.16,3.62Z" style="fill:#a6a6a6"></path><path d="M304.75,417.58c6.8-.3,4.85-.31,11.65-.54,3.33-.11,25.2-.82,28.33-.38.07,0,.07.12,0,.14-3.1.59-25,.92-28.31,1-6.81.1-4.86,0-11.66,0A.1.1,0,0,1,304.75,417.58Z" style="fill:#263238"></path><path d="M288.51,235.18a83.46,83.46,0,0,1,12.42,7,.14.14,0,0,1-.14.25c-4.2-2.23-8.49-4.38-12.56-6.82A.28.28,0,0,1,288.51,235.18Z" style="fill:#263238"></path><path d="M294.07,234.45a20.53,20.53,0,0,1,.64,2.57,5.63,5.63,0,0,1,.17,2.08c0,.13-.21.13-.28,0a7.43,7.43,0,0,1-.72-2.08c-.22-.8-.46-1.59-.66-2.39A.44.44,0,0,1,294.07,234.45Z" style="fill:#263238"></path><path d="M294.38,230.23c-.13-.73-.26-1.45-.41-2.18s-.35-1.5-.44-2.26c0-.12-.21-.08-.18,0,.12.73.15,1.49.22,2.22s.16,1.48.25,2.22a41.08,41.08,0,0,0,.72,4.11,4.88,4.88,0,0,1-2-.8,3.8,3.8,0,0,1-1.12-2.08c-.23-.83-.43-1.67-.67-2.5a16.61,16.61,0,0,1-.69-2.78c0-.12-.2-.08-.19,0a29.52,29.52,0,0,0,1.23,5.86,3.17,3.17,0,0,0,1.13,1.93,6.36,6.36,0,0,0,2.46.68c.1.05.24,0,.23-.12A42.89,42.89,0,0,0,294.38,230.23Z" style="fill:#263238"></path><path d="M330.23,254c.25-3.22.72-6.42,1-9.63.58-6.47-.45-12.82-1.52-19.21-.25-1.48.43-.73.46-.61a76,76,0,0,1,1.75,17.41c-.17,5.67-1.07,11.27-1.06,16.95s.57,11.49,1.05,17.21.95,11.53,1.43,17.29c1.92,23.15,3.73,46.32,5.57,69.48q.76,9.7,1.49,19.4c.5,6.58,1.26,22.82,1.63,29.4,0,.57-.82.55-.87,0C340,400.06,339,378.73,338,367.1s-1.84-23.05-2.75-34.57-1.83-23-2.73-34.56q-.68-8.64-1.32-17.29c-.43-5.74-1-11.48-1.16-17.23A85.47,85.47,0,0,1,330.23,254Z" style="fill:#263238"></path><path d="M314.22,225a.1.1,0,0,1,.17,0,7.66,7.66,0,0,1,.46,2.35,15.63,15.63,0,0,0,.64,2.53,10.17,10.17,0,0,0,2.7,4.36c2.8,2.52,6.5,3.41,10.07,4.21.13,0,.09.21,0,.22a16,16,0,0,1-6.21-.85,13.08,13.08,0,0,1-4.83-2.59,8.91,8.91,0,0,1-2.67-4.63,15.63,15.63,0,0,1-.34-2.82c0-.45,0-.91-.05-1.37A3.42,3.42,0,0,1,314.22,225Z" style="fill:#263238"></path><path d="M291,157.92c-9.71,6.28-44,29.82-44.78,43.48-.48,8.67,11.27,12.82,18,9.35,4.91-2.54,28-36.2,32.18-44.49C300.32,158.36,300.07,152,291,157.92Z" style="fill:#FFC727"></path><path d="M251.19,210c3.88,2.29,9.21,2.74,13,.79,4.91-2.53,28-36.19,32.18-44.49.43-.86.82-1.7,1.14-2.52Z" style="opacity:0.1"></path><path d="M245,425.54c.25.29,12.86,6.75,20.73,8.23.68.12-.53,5.68.56,6,32.38,10.84,63.32,1.33,68.53.7.88-.11.26-4.89,1.12-5a70.87,70.87,0,0,0,23.73-8.83c3-1.94-13-94.76-18.15-154.65-1.48-17.26-1.87-35.37-3.27-47.58-.87-7.63-10.26-51.84-26.32-69.24a10.44,10.44,0,0,0-16.35.79c-10.62,15-15,42.25-20.58,74.39-4.83,28.05-18.57,54.32-21.35,81.21C251.46,332.28,244.75,425.31,245,425.54Z" style="fill:#FFC727"></path><path d="M359.62,426.65a72.34,72.34,0,0,1-17.93,7.58,51.44,51.44,0,0,1-5.8,1.25c-.86.14-.24,4.92-1.12,5-5.21.63-36.15,10.14-68.53-.7-1.09-.36.12-5.92-.56-6a40.64,40.64,0,0,1-5.42-1.49A104,104,0,0,1,245,425.54c-.2-.23,6.51-93.26,8.65-114,2.78-26.89,16.52-53.16,21.35-81.21,5.54-32.14,10-59.4,20.58-74.39a10.44,10.44,0,0,1,16.35-.79c16.06,17.4,25.45,61.61,26.32,69.24,1.4,12.21,1.79,30.32,3.27,47.58C346.63,331.89,362.65,424.71,359.62,426.65Z" style="fill:#FFC727"></path><path d="M359.33,415a51.62,51.62,0,0,1-22.45,7.57c-2.22,1.18-12.77,6.07-34.84,6.07q-3,0-6.31-.13c-21.5-.85-28.71-5.09-30.62-6.61-2.42-.53-12.42-2.86-19.52-6.5.09-1.35.19-2.82.29-4.38,7.18,4.25,20.41,7,20.56,7.07l.63.13.43.47s5.36,4.91,28.38,5.82c27.7,1.11,39.26-5.54,39.37-5.61l.4-.24.46,0a48.27,48.27,0,0,0,22.73-8.1C359,412.11,359.19,413.6,359.33,415Z" style="fill:#263238"></path><path d="M358.34,406.35a46.39,46.39,0,0,1-22.42,8.08c-1.56.89-11,5.73-32.6,5.73q-3.56,0-7.56-.19c-21.3-1-27.81-5.78-29.08-6.92-2-.5-13.82-3.65-20.44-7.1,0-.72.1-1.45.16-2.19,6.59,3.72,20.88,7.38,21,7.42l.3.07.2.23s5.29,5.4,27.92,6.49c28.18,1.36,39.12-5.3,39.22-5.36l.21-.13.24,0a44.86,44.86,0,0,0,22.54-8.39C358.16,404.85,358.25,405.61,358.34,406.35Z" style="fill:#263238"></path><g style="opacity:0.1"><path d="M265.68,433.77a40.64,40.64,0,0,1-5.42-1.49c.21-14,1.13-48.87.86-51.11-.33-2.82,2.5-41.57,4.56-42.9s3.09,44.56,3.5,50.72S265.68,433.77,265.68,433.77Z"></path><path d="M341.69,434.23a51.44,51.44,0,0,1-5.8,1.25s-.26-28-1.52-33.52-2.08-25.61-1.08-27.94,7.24,31.34,7.69,35.79C341.27,412.69,341.54,425.52,341.69,434.23Z"></path><path d="M324.72,334.28c-3.41,16.13-2.58,42.57,0,42.74s1.4-17.3,1.24-20.12,7.66-40.25,5.16-38S325.82,329.08,324.72,334.28Z"></path><path d="M273.46,397.1c-1.5,1-2.62,17.74,0,17.57S276,395.32,273.46,397.1Z"></path></g><path d="M317.89,157.12c9.35,5.87,44.91,32.83,45.94,42.19.94,8.64-11.49,8.95-18.41,5.92C340.36,203,315.74,173.7,311,165.69,306.56,158.06,308.69,151.36,317.89,157.12Z" style="fill:#FFC727"></path><path d="M328.64,188.15c-.95-1.12-1.86-2.27-2.8-3.4s-1.93-2.21-2.91-3.3-1.92-2.22-2.93-3.29-2-2-3-3c0,0-.1,0-.07.07.9,1.15,1.81,2.3,2.76,3.41.53.63,1.08,1.23,1.63,1.83a25.11,25.11,0,0,0-2.81-2c-.05,0-.09.05-.05.08.74.61,1.5,1.18,2.26,1.76l1.1.85.4.3.37.41c.95,1.06,1.89,2.13,2.87,3.15s2.11,2.14,3.14,3.23C328.6,188.24,328.67,188.19,328.64,188.15Z" style="fill:#263238"></path><path d="M281.31,204.27c-1.21-1-.75-1.66,1.92-1.76s13.33,1.94,13.69-2.14-14.69-6.74-19.14-6.2-11.46,3.1-11.46,3.1C269.16,198.42,275.78,201.93,281.31,204.27Z" style="fill:#dd6a57"></path><path d="M327,203.18c1.41-.82,1-1.56-1.88-2s-14.56.39-14.49-3.71,16.58-5,21.3-3.94,12,4.41,12,4.41C340.76,198.77,333.23,201.49,327,203.18Z" style="fill:#dd6a57"></path><path d="M271.86,181.14l1.06-.85s8.61,2.14,11.29,2.64,15.93-.34,21,6.15V219l-27.06-6.32Z" style="fill:#ebebeb"></path><path d="M338.59,181.14l-1.06-.85s-8.61,2.14-11.29,2.64-15.93-.34-21,6.15V219l27.07-6.32Z" style="fill:#ebebeb"></path><polygon points="305.22 220.65 305.22 190.96 339.6 180.29 333.24 213.56 305.22 220.65" style="fill:#263238"></polygon><polygon points="305.22 220.65 305.22 190.96 270.85 180.29 277.21 213.56 305.22 220.65" style="fill:#263238"></polygon><path d="M264.83,246s-9.23-35.62,4.35-50.37c0,0,3,21.61.08,38C268.39,238.51,264.83,246,264.83,246Z" style="fill:#FFC727"></path><g style="opacity:0.2"><path d="M264.83,246s-9.23-35.62,4.35-50.37c0,0,3,21.61.08,38C268.39,238.51,264.83,246,264.83,246Z"></path></g><path d="M255.17,192.59c-7.06-.41-9.7,8.9-7.44,13.64a29.36,29.36,0,0,0,17.46,15.18c3.25,1,10.24-22.41,6.87-23.76C269.08,196.45,265.1,193.16,255.17,192.59Z" style="fill:#dd6a57"></path><path d="M259.88,219.15c8.85,5.07,18.81,8.24,28.25,6.07a4.78,4.78,0,0,0,2.73-1.68c4.25-.89,5.15-3.33,5.15-3.33,3.73-2.14,4.33-4.76,4.33-4.76s5-1.11,4.88-4.47c-.11-3.78-7.08-1.49-11.61-2.76-10.38-2.91-24.37-10.21-27.29-11.37Z" style="fill:#dd6a57"></path><path d="M280.7,213.46a64.85,64.85,0,0,0,9.23,2,63.51,63.51,0,0,0,10.32-.09.09.09,0,0,1,0,.18,33.89,33.89,0,0,1-19.61-1.93C280.52,213.55,280.55,213.42,280.7,213.46Z" style="fill:#263238"></path><path d="M278.13,220c3,.6,8.36,1.6,17.86.11,0,0,.05.05,0,.06a30.3,30.3,0,0,1-17.91,0C277.91,220.1,277.92,220,278.13,220Z" style="fill:#263238"></path><path d="M276.8,223.54c5.19.79,8.56.58,14,0,0,0,0,.06,0,.06-6.17,1.39-8.54,1.13-14.1.15C276.56,223.69,276.6,223.51,276.8,223.54Z" style="fill:#263238"></path><path d="M269.15,195.59c.32.14-2,6.8-4.21,18.7-2.82,15.25.11,31.83-.11,31.72s-6.68-4.59-12.14-16.94c-2.78-6.29-6.16-15.72-6.46-23.27-.2-5,.82-11.7,6.24-13C258.48,191.27,263.44,193.09,269.15,195.59Z" style="fill:#FFC727"></path><path d="M269.15,195.55a17.6,17.6,0,0,0-2.86-1.4c-.81-.33-1.64-.63-2.47-.9a7,7,0,0,0-.64-.37c-.35-.19-.7-.38-1.06-.54-.72-.33-1.44-.63-2.17-.93a0,0,0,0,0,0,0c.67.41,1.35.82,2.05,1.19l.23.12c-.69-.2-1.37-.38-2.07-.52-.49-.1-1-.17-1.49-.23a9.19,9.19,0,0,0-1.56-.17,0,0,0,0,0,0,.07,13.5,13.5,0,0,0,1.54.43c.49.15,1,.31,1.47.44,1,.28,2,.55,3,.87s2,.62,2.95,1,2,.75,3,1A0,0,0,0,0,269.15,195.55Z" style="fill:#263238"></path><path d="M261.6,243.08a40.69,40.69,0,0,1-4-5.05,84.5,84.5,0,0,1-1-20.1c.78-8.37,4.79-18.64,7.31-24.42.94.31,1.88.67,2.83,1.06-2.44,5.59-6.41,15.7-7.15,23.64C258.64,228.59,261.06,240.6,261.6,243.08Z" style="fill:#263238"></path><path d="M254.64,233.09c-.42-.79-.84-1.63-1.26-2.51a75.79,75.79,0,0,1,0-14.83c.9-7.72,4.78-17.29,7.42-23.1l1,.24c-2.61,5.73-6.52,15.3-7.42,23A79,79,0,0,0,254.64,233.09Z" style="fill:#263238"></path><path d="M340,246.56s13.95-34.15,1-50.38c0,0-5.68,20.95-4.38,37.57C337,238.7,340,246.56,340,246.56Z" style="fill:#FFC727"></path><g style="opacity:0.2"><path d="M340,246.56s13.95-34.15,1-50.38c0,0-5.68,20.95-4.38,37.57C337,238.7,340,246.56,340,246.56Z"></path></g><path d="M356.43,194.59c7.64.41,9.43,10,6.46,14.42a31.54,31.54,0,0,1-20.51,13.06c-3.6.57-8.49-23.45-4.71-24.41C341,196.82,345.67,194,356.43,194.59Z" style="fill:#dd6a57"></path><path d="M348.36,220.45c-10.1,4-21.18,6-31.1,2.75a5.18,5.18,0,0,1-2.74-2c-4.48-1.38-5.17-3.9-5.17-3.9-3.77-2.56-4.12-5.24-4.12-5.24s-5.24-1.68-4.75-5c.54-3.74,7.78-.65,12.8-1.39,11.51-1.7,27.39-7.33,30.66-8.14Z" style="fill:#dd6a57"></path><path d="M326.59,212.37a73.63,73.63,0,0,1-10.16.92,75.34,75.34,0,0,1-11.1-1.29.09.09,0,0,0,0,.18,39.58,39.58,0,0,0,21.32.35C326.77,212.49,326.76,212.35,326.59,212.37Z" style="fill:#263238"></path><path d="M328.62,219.17c-3.33.24-9.18.61-19.24-2a0,0,0,1,0,0,.06,35.48,35.48,0,0,0,19.27,2.06C328.84,219.3,328.84,219.15,328.62,219.17Z" style="fill:#263238"></path><path d="M329.64,222.84c-5.67.19-9.27-.41-15.1-1.64,0,0-.05.05,0,.06,6.47,2.09,9.06,2.11,15.15,1.78C329.89,223,329.87,222.83,329.64,222.84Z" style="fill:#263238"></path><path d="M341,196c-.37.1,1.38,7,2.41,19.06,1.32,15.49-3.7,31.62-3.45,31.54s7.71-3.78,15-15.42c3.7-5.93,8.4-14.92,9.58-22.38.78-5,.43-11.73-5.25-13.69C353,192.9,347.46,194.14,341,196Z" style="fill:#FFC727"></path><path d="M341,195.92a19.68,19.68,0,0,1,3.23-1.06c.92-.24,1.84-.44,2.77-.62.24-.11.49-.2.73-.29.4-.14.79-.29,1.19-.41.82-.25,1.63-.46,2.45-.67a0,0,0,0,1,0,0c-.78.33-1.55.65-2.34,1-.09,0-.18,0-.27.09.76-.12,1.53-.23,2.29-.28.54,0,1.09,0,1.63-.06a10.71,10.71,0,0,1,1.7,0,0,0,0,0,1,0,.07,16.19,16.19,0,0,1-1.7.25l-1.64.27c-1.12.15-2.24.3-3.36.5s-2.18.39-3.28.62-2.26.51-3.39.67C341,196,341,195.94,341,195.92Z" style="fill:#263238"></path><path d="M351.49,221a83.13,83.13,0,0,1-3.07,18.71,41.89,41.89,0,0,1-4.35,4.06c1.34-4.15,4.18-13.95,4.42-22.85.23-8.67-3-20.35-4.71-25.75,1-.25,2-.48,2.94-.67C348.48,200.2,351.73,212,351.49,221Z" style="fill:#263238"></path><path d="M354.94,219.25a75.58,75.58,0,0,1-1.7,14.52c-.49.7-1,1.36-1.46,2a78.34,78.34,0,0,0,2.16-16.51c0-8.36-3.18-19.33-5.06-25.07l1-.13C351.8,199.9,355,210.85,354.94,219.25Z" style="fill:#263238"></path><path d="M297.61,163.62c3.22,1.12,9.33-3,12-6.89.18-.27,0-3.27.06-6.93,0-2.21.09-4.68.32-6.93,0-.46-14.45,2-14.45,2a36,36,0,0,1,.49,8.77,5.16,5.16,0,0,1-.2.92,1.31,1.31,0,0,1,0,.15C295.32,156.42,294.49,162.54,297.61,163.62Z" style="fill:#dd6a57"></path><path d="M309.11,142.84c-1,3.73-4.34,12.68-11.88,12.08a8.39,8.39,0,0,1-1.44-.22,1,1,0,0,1,0-.15,6.37,6.37,0,0,0,.19-.91,36.06,36.06,0,0,0-.49-8.78S306,143.09,309.11,142.84Z" style="fill:#263238"></path><path d="M312,125.54c1.37,5.07-1.76,19.5-5.44,22.62-5.33,4.52-13.83,4.69-17.61-1.67-3.67-6.16.74-24.89,4.83-27.7C299.83,114.65,310,118,312,125.54Z" style="fill:#dd6a57"></path><path d="M299.62,134.24s.06.07.05.11c-.25,1-.38,2.1.42,2.63,0,0,0,.06,0,.05C299,136.63,299.22,135.11,299.62,134.24Z" style="fill:#263238"></path><path d="M300.72,133.43c1.58.25,1,3.4-.49,3.17S299.39,133.23,300.72,133.43Z" style="fill:#263238"></path><path d="M293.76,133.09s-.09,0-.09.07c-.16,1-.51,2.08-1.45,2.24,0,0,0,0,0,0C293.32,135.51,293.77,134.05,293.76,133.09Z" style="fill:#263238"></path><path d="M293.08,131.9c-1.55-.42-2.27,2.71-.84,3.1S294.38,132.26,293.08,131.9Z" style="fill:#263238"></path><path d="M302.24,132.23a13,13,0,0,1-1.14-.66,2.16,2.16,0,0,1-1-.9.68.68,0,0,1,.26-.79,1.68,1.68,0,0,1,1.7.15,2.5,2.5,0,0,1,1.2,1.32A.73.73,0,0,1,302.24,132.23Z" style="fill:#263238"></path><path d="M292.17,130.08c.45,0,.86-.05,1.31-.08a2.14,2.14,0,0,0,1.33-.35.68.68,0,0,0,.11-.82,1.66,1.66,0,0,0-1.58-.62,2.46,2.46,0,0,0-1.66.64A.72.72,0,0,0,292.17,130.08Z" style="fill:#263238"></path><path d="M298.13,143.37c-.28.18-.57.45-.93.41a2.73,2.73,0,0,1-1-.45s-.07,0-.05,0a1.32,1.32,0,0,0,1.13.76,1.06,1.06,0,0,0,.94-.71A.06.06,0,0,0,298.13,143.37Z" style="fill:#263238"></path><path d="M297.67,140.25a3.39,3.39,0,0,1-2.51,1.05,4.11,4.11,0,0,1-1.2-.18.88.88,0,0,1-.23-.07l-.2-.07a.26.26,0,0,1-.16-.26h0l0-.1h0l0-.08c.13-.76.42-1.89.42-1.89-.3.09-1.82.45-1.73.06a50.64,50.64,0,0,1,3.23-9.82.09.09,0,0,1,.17.06c-.67,3.12-1.87,6.11-2.59,9.23a5.85,5.85,0,0,1,1.66-.18c.1.06-.6,2.18-.63,2.52,0,0,0,0,0,0a4.71,4.71,0,0,0,3.64-.41C297.68,140.1,297.74,140.18,297.67,140.25Z" style="fill:#263238"></path><path d="M294.47,140.86a4,4,0,0,0,1.41,1.47,1.86,1.86,0,0,0,1.07.23c.82-.09.94-.81.89-1.45a4.42,4.42,0,0,0-.21-1A5.18,5.18,0,0,1,294.47,140.86Z" style="fill:#263238"></path><path d="M295.88,142.33a1.86,1.86,0,0,0,1.07.23c.82-.09.94-.81.89-1.45A1.86,1.86,0,0,0,295.88,142.33Z" style="fill:#ff9bbc"></path><path d="M311.25,139.83s5.24-8.57,4.77-13.55c-.21-2.24-3.27-3.77-3.27-3.77a5.07,5.07,0,0,0-1.58-5.11c-2.65-2.51-9.09-2-9.09-2s-4.14-6-10.05-3.68-2.09,9.08-2.09,9.08-2.18,3.06,3.1,5.48,15.68.1,15.68.1a36.71,36.71,0,0,0,.12,10.9A3.33,3.33,0,0,0,311.25,139.83Z" style="fill:#263238"></path><path d="M301.07,115.5a10.28,10.28,0,0,1,4.15-.74,11.31,11.31,0,0,1,3.74.6,6.2,6.2,0,0,1,4.35,4.67,4.32,4.32,0,0,1-.84,3.26s-.09,0-.05-.05c1.37-1.68.66-4.31-.75-5.73a9.3,9.3,0,0,0-6.21-2.32,18.29,18.29,0,0,0-4.36.44C301,115.65,301,115.54,301.07,115.5Z" style="fill:#263238"></path><path d="M287.8,114.59a5,5,0,0,1,3.51-3.21,8.61,8.61,0,0,1,5.58.21,10.91,10.91,0,0,1,4.56,3.41s0,.08-.06,0a9.52,9.52,0,0,0-9.11-3.42,4.66,4.66,0,0,0-3.67,6.95,9.75,9.75,0,0,0,3.78,3.81s0,.08,0,.06a9.86,9.86,0,0,1-3.77-3.24A5.63,5.63,0,0,1,287.8,114.59Z" style="fill:#263238"></path><path d="M291.76,126.59a17.91,17.91,0,0,0,7.42,1.31,36.77,36.77,0,0,0,7.81-1c1.49-.36,3-.77,4.44-1.2.05,0,.07,0,0,.07a40,40,0,0,1-8,2.44,20,20,0,0,1-7.71-.1,17.2,17.2,0,0,1-4-1.43S291.73,126.57,291.76,126.59Z" style="fill:#263238"></path><path d="M308.54,137.26s3.53-4.51,5.59-3.23-.76,7.95-3.3,8.75a2.55,2.55,0,0,1-3.33-1.55Z" style="fill:#dd6a57"></path><path d="M313.28,135.92s0,.06,0,.07a6.46,6.46,0,0,0-3.54,3.84,1.4,1.4,0,0,1,2.12-.27c.05,0,0,.1-.05.09a1.57,1.57,0,0,0-1.75.45,8.35,8.35,0,0,0-.9,1.35c-.09.15-.36.05-.29-.12v0C309,139.05,310.87,136,313.28,135.92Z" style="fill:#263238"></path><path d="M296,153.75l3.63,8.27,10.07-10.93,3.06,3.31s-9.65,17.16-9.73,16.4l-3.69-7.11-4.82,5.18V156.25Z" style="fill:#455a64"></path><path d="M294.17,162.63c.07-2.08.08-4.18.25-6.26,0-.08.12-.11.14,0,.48,2,.17,10,.24,11.87l0,0c.2-.23,4.48-4.57,4.52-4.5.79,1.12,3.49,6.3,3.68,6.77,1.52-2.73,8-13.48,9.85-16.07a.07.07,0,1,1,.12.06c-1.33,2.87-9.72,17.07-9.84,17A78.38,78.38,0,0,1,299.3,164c-.72.93-5,5.82-5.05,5.51A65.2,65.2,0,0,1,294.17,162.63Z" style="fill:#263238"></path></g><g id="freepik--character-1--inject-6"><path d="M172,427.07c-2.07.67-60.89-.09-63.11-1.55-.86-.53-1.24-9.11-1.42-19.49v-.33c0-2.13-.07-4.34-.07-6.57,0-.31,0-.61,0-.92-.08-15,.15-30.52.15-30.52l39.35.4-1.18,30.23,0,1.19-.24,6.26,0,.65s22.38,10.36,24.66,12.21S174.07,426.42,172,427.07Z" style="fill:#dd6a57"></path><path d="M172,427.07c-2.07.67-60.89-.09-63.11-1.55-.86-.53-1.24-9.11-1.42-19.49v-.33c0-2.13-.07-4.34-.07-6.57,0-.31,0-.61,0-.92l38.32.11,0,1.19-.24,6.26,0,.65s22.38,10.36,24.66,12.21S174.07,426.42,172,427.07Z" style="fill:#ebebeb"></path><path d="M172,427.07c-1.28.42-24.07.28-41.91-.22-11.14-.31-20.35-.77-21.2-1.33s-1.23-8.87-1.41-19.06V406c0-.11,0-.22,0-.33l38,.07v.65s22.38,10.36,24.65,12.21S174.07,426.42,172,427.07Z" style="fill:#a6a6a6"></path><path d="M171.37,424.78c-9.91-.37-49.93-.93-59.76-.55-.08,0-.08.06,0,.06,9.82.59,49.84.83,59.76.66C171.58,424.94,171.58,424.79,171.37,424.78Z" style="fill:#263238"></path><path d="M149.66,405.93c-3.89-.77-8.67-.24-11.69,2.5-.12.11,0,.28.16.24a54.26,54.26,0,0,1,11.51-2.24A.25.25,0,0,0,149.66,405.93Z" style="fill:#263238"></path><path d="M152.46,407.67c-3.9-.78-8.68-.24-11.69,2.5-.12.1,0,.27.16.23a55.45,55.45,0,0,1,11.5-2.24A.25.25,0,0,0,152.46,407.67Z" style="fill:#263238"></path><path d="M155.25,409.4c-3.89-.78-8.67-.24-11.69,2.5-.12.11,0,.27.16.24a54.26,54.26,0,0,1,11.51-2.24A.25.25,0,0,0,155.25,409.4Z" style="fill:#263238"></path><path d="M130.1,426.85c-11.14-.31-20.35-.77-21.2-1.33s-1.23-8.87-1.41-19.06C112.07,410.54,123.41,420.67,130.1,426.85Z" style="fill:#263238"></path><path d="M95.48,198.24s8.83,99.4,10.27,107c.34,1.73.54,11.12.68,23.2.3,26.35.12,73.87.12,73.87H148S146.79,320,145,304.81s-13.57-106.57-13.57-106.57Z" style="fill:#37474f"></path><path d="M146.14,395.08c-6.47-.14-4.61-.19-11.08-.25-3.17,0-24-.22-26.94.27-.06,0-.06.12,0,.14,3,.49,23.77.3,26.94.27,6.47-.06,4.61-.11,11.08-.25A.09.09,0,0,0,146.14,395.08Z" style="fill:#263238"></path><path d="M114.43,348q-.08-9-.14-18c0-5.82,0-11.65-.31-17.47-.56-11.79-3-23.37-4.65-35s-3.12-23.36-4.4-35.07c-1.44-13.14-2.72-26.29-4.07-39.44a.07.07,0,0,0-.14,0c2,23.48,4.14,46.95,7.39,70.28q1.22,8.7,2.65,17.38c1,5.85,1.93,11.7,2.39,17.62s.52,11.61.58,17.41l.18,18c.13,13.35.26,33.9.39,47.25a.2.2,0,0,0,.4,0C114.61,379,114.52,359.91,114.43,348Z" style="fill:#263238"></path><path d="M86.74,198.24s17.57,99.4,19,107c.34,1.73.54,11.12.68,23.2v0L126.2,198.24Z" style="fill:#263238"></path><path d="M123.85,430.58c-2.1.52-60.73-4.41-62.84-6-.81-.59-.59-9.18,0-19.54,0-.11,0-.22,0-.33.12-2.13.24-4.33.4-6.56,0-.3,0-.61.05-.92,1-14.94,2.32-30.43,2.32-30.43L103,370,99.67,400l-.13,1.19-.68,6.23-.07.64S120.39,420,122.53,422,126,430.07,123.85,430.58Z" style="fill:#dd6a57"></path><path d="M123.85,430.58c-2.1.52-60.73-4.41-62.84-6-.81-.59-.59-9.18,0-19.54,0-.11,0-.22,0-.33.12-2.13.24-4.33.4-6.56,0-.3,0-.61.05-.92L99.67,400l-.13,1.19-.68,6.23-.07.64S120.39,420,122.53,422,126,430.07,123.85,430.58Z" style="fill:#ebebeb"></path><path d="M123.85,430.58c-2.1.52-60.73-4.41-62.84-6-.81-.59-.59-9.18,0-19.54,0-.11,0-.22,0-.33l37.86,2.76-.07.64S120.39,420,122.53,422,126,430.07,123.85,430.58Z" style="fill:#a6a6a6"></path><path d="M123.38,428.25c-9.86-1.07-49.74-4.47-59.57-4.78-.08,0-.08,0,0,.06,9.75,1.28,49.65,4.35,59.56,4.88C123.58,428.42,123.59,428.27,123.38,428.25Z" style="fill:#263238"></path><path d="M103.06,407.91c-3.83-1.05-8.63-.85-11.84,1.67-.12.09,0,.27.15.24A54.9,54.9,0,0,1,103,408.4.25.25,0,0,0,103.06,407.91Z" style="fill:#263238"></path><path d="M105.73,409.84c-3.83-1-8.64-.86-11.84,1.66-.13.1,0,.28.14.25a54.9,54.9,0,0,1,11.64-1.42A.25.25,0,0,0,105.73,409.84Z" style="fill:#263238"></path><path d="M108.39,411.77c-3.83-1.06-8.63-.86-11.84,1.66-.12.1,0,.27.15.25a54.25,54.25,0,0,1,11.63-1.42A.25.25,0,0,0,108.39,411.77Z" style="fill:#263238"></path><path d="M100.55,404.54l-41.43-1.76s11.31-90.91,11.52-96.49c.54-14.5,10.18-108.08,10.18-108.08h50.6s-3.19,21.6-8.66,35.3a63.45,63.45,0,0,0-10.58,4.83s-4.74,61.89-4.92,69.61C106.91,323.21,100.55,404.54,100.55,404.54Z" style="fill:#37474f"></path><path d="M99.45,397c-6.46-.41-4.6-.39-11.06-.72-3.17-.17-24-1.23-26.93-.86-.06,0-.07.11,0,.13,2.93.61,23.73,1.31,26.9,1.42,6.47.21,4.61.08,11.08.22C99.56,397.14,99.57,397,99.45,397Z" style="fill:#263238"></path><path d="M84.53,203.75c-1.88,23.57-3.81,47.14-6,70.69s-4.69,47.23-7.77,70.76c-1.73,13.14-3.64,31.65-5.67,44.75,0,.09.12.13.13,0,4.18-23.28,7.24-52.15,9.86-75.64s4.74-47.05,6.64-70.61c1.08-13.32,2-26.66,3.07-40C84.84,203.56,84.54,203.57,84.53,203.75Z" style="fill:#263238"></path><path d="M124.57,232.57a78.77,78.77,0,0,0-12.39,5.77c-.16.09-.05.33.11.26,4.18-1.8,8.44-3.51,12.51-5.53A.28.28,0,0,0,124.57,232.57Z" style="fill:#263238"></path><path d="M125.9,203.93c0-.15-.27-.18-.27,0a136.68,136.68,0,0,1-.7,13.95c-.19,2.15-1.92,14-5.65,13.17-.62-.15-.94-.76-1-1.7a14.79,14.79,0,0,1,.5-3.65c.41-2.48.74-5,1-7.49a68.83,68.83,0,0,0-.16-14.06.12.12,0,0,0-.24,0,128.45,128.45,0,0,1-1.13,19.41c-.47,3.09-2,7.74,1.21,8.22s5.42-7.31,5.82-9.44A71.23,71.23,0,0,0,125.9,203.93Z" style="fill:#263238"></path><path d="M119.38,231.34a19.82,19.82,0,0,0-.84,2.46,5.67,5.67,0,0,0-.35,2,.15.15,0,0,0,.26,0,7.12,7.12,0,0,0,.87-2c.28-.76.58-1.52.84-2.29A.41.41,0,0,0,119.38,231.34Z" style="fill:#263238"></path><path d="M102.51,207.81a6.6,6.6,0,0,0-.16-1.54.08.08,0,0,0-.15,0,6,6,0,0,0-.17,1.34l-.18,1.53a21.63,21.63,0,0,1-.55,3.1,11,11,0,0,1-2.84,5.12,14.79,14.79,0,0,1-4.82,3.17,53.11,53.11,0,0,1-6.18,1.77.08.08,0,0,0,0,.16,18.08,18.08,0,0,0,6.69-1.32,14.24,14.24,0,0,0,5-3.21,11.13,11.13,0,0,0,2.93-5.26,15.49,15.49,0,0,0,.4-3.11A14.6,14.6,0,0,0,102.51,207.81Z" style="fill:#263238"></path><path d="M124.59,137.94c9.71,6.28,44,29.83,44.78,43.48.48,8.67-11.27,12.83-18,9.36-4.91-2.54-28-36.2-32.18-44.5C115.22,138.39,115.47,132.05,124.59,137.94Z" style="fill:#FFC727"></path><path d="M164.36,190c-3.89,2.3-9.22,2.74-13,.79-4.91-2.53-28-36.19-32.18-44.48-.43-.86-.82-1.71-1.14-2.52Z" style="opacity:0.1"></path><path d="M157.9,406.12c-.25.29-4.64,3-12.51,4.49-.67.13.49,5.55-.56,6.05-27,12.72-66.15,5.51-71.36,4.88-.88-.11-.26-4.9-1.12-5-9.18-1.39-17.45-4.13-23.73-8.83-4.21-3.15,29-203.11,29-203.18,1.18-7.59,11.62-50.68,26.32-69.25,2.23-2.81,13.31-2.39,14.16-1.06,18.62,28.91,26.06,121.44,32,179.13C152.29,334,158.1,405.89,157.9,406.12Z" style="fill:#FFC727"></path><g style="opacity:0.1"><path d="M72.35,416.51A71.62,71.62,0,0,1,64.74,415c3.18-26.52,9.92-82.22,10.23-79.69C75.37,338.61,72.35,416.51,72.35,416.51Z"></path><path d="M152.88,408.57a47.11,47.11,0,0,1-7.49,2s-7.65-46.73-6.48-48.39C139.73,361.05,148,390.75,152.88,408.57Z"></path><path d="M128.27,338.11c-3.92-4.84-.76,42.31,2.87,41.94S134.9,346.27,128.27,338.11Z"></path><path d="M67.81,350.91c-2.83,3.52,6.4-74.16,7.74-75.49S70.53,347.53,67.81,350.91Z"></path></g><path d="M156.85,391.46a84.35,84.35,0,0,1-12.4,4.5c-2,1.51-10.69,7-35,8.34q-4.73.26-8.74.25c-18.81,0-26.32-3.8-28.35-5.1a52.22,52.22,0,0,1-23-7.9c.15-1.42.32-2.92.5-4.49a48.52,48.52,0,0,0,23.42,8.45l.65.05.49.42s7.65,5.81,34.86,4.32c25.79-1.4,32.85-7.56,32.92-7.62l.37-.33.49-.14a79.6,79.6,0,0,0,13.5-5C156.63,388.67,156.74,390.1,156.85,391.46Z" style="fill:#263238"></path><path d="M156.19,383.09a100.86,100.86,0,0,1-14,4.81c-1.34,1.26-8.29,6.53-32.83,7.87q-4.77.25-8.8.25C81.1,396,74.12,392,72.7,391a51.09,51.09,0,0,1-22.45-7.52l.27-2.22A49.58,49.58,0,0,0,73.15,389l.32,0,.25.21c.07.06,7.74,6.08,35.57,4.56,26.06-1.42,31.59-7.35,31.64-7.4l.21-.26.32-.08A97.33,97.33,0,0,0,156,381Z" style="fill:#263238"></path><path d="M97.66,137.14C88.3,143,52.74,170,51.71,179.34c-.94,8.63,11.5,8.94,18.41,5.91,5.06-2.22,29.68-31.53,34.38-39.54C109,138.09,106.85,131.38,97.66,137.14Z" style="fill:#FFC727"></path><path d="M86.9,168.17c.95-1.11,1.86-2.26,2.8-3.39s1.93-2.22,2.91-3.31,1.93-2.22,2.93-3.28,2-2.06,3-3.06c0,0,.1,0,.07.07-.9,1.16-1.81,2.3-2.76,3.42-.53.62-1.08,1.22-1.63,1.83a25.2,25.2,0,0,1,2.81-2c.05,0,.09.05.05.08-.73.62-1.5,1.19-2.26,1.76l-1.1.85-.4.31-.37.4C92,162.9,91.1,164,90.12,165S88,167.13,87,168.23A.05.05,0,0,1,86.9,168.17Z" style="fill:#263238"></path><path d="M117.51,142.88c-3.14,1-8.93-3.54-11.36-7.33-.16-.26.24-11.15.09-13.32,0-.44,13.82,2.39,13.82,2.39a34.5,34.5,0,0,0-.75,8.4C119.33,133.34,120.54,141.94,117.51,142.88Z" style="fill:#ad6359"></path><path d="M119.31,133s0,.19,0,.42c-7.85-.46-11.48-4.7-13.11-7.83,0-1.52,0-2.78,0-3.38,0-.45,13.82,2.38,13.82,2.38A34.61,34.61,0,0,0,119.31,133Z" style="fill:#263238"></path><path d="M119.41,133.74l-4.61,8.39L106,132.06l-2.73,3.38s8.5,14.95,8.53,14.22l3.09-6.14,5,4.68L121,136.05Z" style="fill:#ebebeb"></path><path d="M121.1,136.16c0-.07-.12-.1-.14,0-.33,2-1.35,10.86-1.36,11.45l0,0c-.21-.21-4.61-4.11-4.65-4-.68,1.13-3,5.34-3.1,5.81-1.65-2.52-6-10.75-8-13.12-.06-.07-.17,0-.12.07,1.47,2.68,7.89,14.08,8,14.05a51.81,51.81,0,0,0,3.22-6.54c.76.86,4.9,5.13,4.94,4.83C120.2,146.81,121.39,138.15,121.1,136.16Z" style="fill:#263238"></path><path d="M103.29,104.23c-1.56,4.79.72,18.78,4.09,22,4.9,4.6,13.05,5.19,17-.72,3.82-5.73.53-23.9-3.25-26.8C115.55,94.4,105.61,97.14,103.29,104.23Z" style="fill:#ad6359"></path><path d="M114.05,112.6s-.07.06-.06.1c.17,1,.2,2.13-.65,2.58,0,0,0,.07,0,.06C114.42,115,114.37,113.5,114.05,112.6Z" style="fill:#263238"></path><path d="M113,111.7c-1.6.1-1.28,3.29.2,3.2S114.37,111.61,113,111.7Z" style="fill:#263238"></path><path d="M120.13,111.92s.08,0,.08.08c.07,1,.32,2.12,1.25,2.36,0,0,0,0,0,0C120.35,114.37,120,112.87,120.13,111.92Z" style="fill:#263238"></path><path d="M120.91,110.8c1.58-.28,2,2.89.56,3.16S119.58,111,120.91,110.8Z" style="fill:#263238"></path><path d="M111.62,110.36a10.74,10.74,0,0,0,1.19-.56,2.15,2.15,0,0,0,1.11-.8.69.69,0,0,0-.19-.81,1.71,1.71,0,0,0-1.71,0,2.5,2.5,0,0,0-1.31,1.21A.72.72,0,0,0,111.62,110.36Z" style="fill:#a6a6a6"></path><path d="M122,109.06a9.49,9.49,0,0,1-1.3-.2,2.1,2.1,0,0,1-1.29-.45.68.68,0,0,1,0-.83,1.7,1.7,0,0,1,1.64-.49,2.55,2.55,0,0,1,1.6.79A.72.72,0,0,1,122,109.06Z" style="fill:#a6a6a6"></path><path d="M114.63,121.72c.26.21.53.51.89.5a2.67,2.67,0,0,0,1-.35,0,0,0,0,1,0,0,1.33,1.33,0,0,1-1.2.67,1.07,1.07,0,0,1-.86-.8A.06.06,0,0,1,114.63,121.72Z" style="fill:#263238"></path><path d="M115.37,118.66a3.38,3.38,0,0,0,2.4,1.27,4.11,4.11,0,0,0,1.21-.07.86.86,0,0,0,.23,0l.22,0a.25.25,0,0,0,.17-.24h0a.3.3,0,0,0,0-.1h0v-.09c-.06-.76-.25-1.91-.25-1.91.3.11,1.78.61,1.72.21a51,51,0,0,0-2.34-10.06.09.09,0,0,0-.18,0c.39,3.17,1.33,6.25,1.76,9.42a6.08,6.08,0,0,0-1.64-.32c-.1,0,.41,2.22.41,2.56v0a4.73,4.73,0,0,1-3.6-.73C115.37,118.51,115.3,118.59,115.37,118.66Z" style="fill:#263238"></path><path d="M118.5,119.58a4,4,0,0,1-1.53,1.33,1.68,1.68,0,0,1-1.09.13c-.81-.16-.87-.88-.76-1.52a4.56,4.56,0,0,1,.3-1A5.2,5.2,0,0,0,118.5,119.58Z" style="fill:#263238"></path><path d="M117,120.91a1.68,1.68,0,0,1-1.09.13c-.81-.16-.87-.88-.76-1.52A1.87,1.87,0,0,1,117,120.91Z" style="fill:#ff9bbc"></path><path d="M123.92,101.81c-4.36,4.56-12.44.75-12.44.75a5.66,5.66,0,0,1-4.88,4.69s.81,8.83-1.46,9.29c-3.47.71-7-10.81-6.42-13.35s3.42-3.75,3.42-3.75a5.78,5.78,0,0,1,1.64-3.92c2-2.31,10.66-1.59,10.66-1.59a7.7,7.7,0,0,1,1.5-3.26,2.18,2.18,0,0,1,3.14-.37,5.2,5.2,0,0,0-.38,2.3c.12,2.6,2.18,2.17,1.68-.12a3.61,3.61,0,0,0-1.3-2.18c.7-1.71,2.26-2.55,3.44-2C124.66,89.41,127.55,98,123.92,101.81Z" style="fill:#a6a6a6"></path><path d="M106.26,116.33s-3.16-4.51-5.21-3.38.33,7.66,2.74,8.55a2.44,2.44,0,0,0,3.27-1.32Z" style="fill:#ad6359"></path><path d="M101.78,114.8s0,0,0,.07a6.21,6.21,0,0,1,3.2,3.86,1.35,1.35,0,0,0-2-.37s0,.1,0,.09a1.51,1.51,0,0,1,1.66.52,7.49,7.49,0,0,1,.79,1.34c.08.15.35.07.29-.1v0C105.76,118,104.09,115,101.78,114.8Z" style="fill:#263238"></path><g style="opacity:0.2"><path d="M116,105.93a10.31,10.31,0,0,0,1.57-.06c.53-.08,1-.26,1.56-.33a8.48,8.48,0,0,1,3,.29c.08,0,.08.07,0,.06a7.39,7.39,0,0,0-3.14-.07,9.38,9.38,0,0,1-2.58.34,9.41,9.41,0,0,0-5.67,1.26s0,0,0,0A9.55,9.55,0,0,1,116,105.93Z"></path><path d="M115.79,104.54a12.46,12.46,0,0,0,1.49-.06c.5-.08,1-.25,1.48-.32a8.29,8.29,0,0,1,2.83.28c.08,0,.07.07,0,.06a7.13,7.13,0,0,0-3-.07,8.76,8.76,0,0,1-2.44.33,8.93,8.93,0,0,0-5.38,1.19s0,0,0,0A8.94,8.94,0,0,1,115.79,104.54Z"></path></g><path d="M134.23,183.87c1.21-1,.75-1.65-1.92-1.76S119,184.06,118.62,180s14.69-6.74,19.14-6.2,11.46,3.1,11.46,3.1C146.38,178,139.76,181.53,134.23,183.87Z" style="fill:#ad6359"></path><path d="M88.52,182.78c-1.41-.81-1-1.56,1.88-2s14.56.39,14.49-3.72-16.58-5-21.3-3.94-12,4.41-12,4.41C74.78,178.38,82.31,181.1,88.52,182.78Z" style="fill:#ad6359"></path><path d="M143.69,160.74l-1.07-.85s-8.6,2.14-11.29,2.64-15.93-.33-21,6.15v29.9l27.06-6.31Z" style="fill:#ebebeb"></path><path d="M77,160.74l1.06-.85s8.61,2.14,11.29,2.64,15.93-.33,21,6.15v29.9l-27.06-6.31Z" style="fill:#ebebeb"></path><polygon points="110.32 200.26 110.32 170.56 75.94 159.89 82.31 193.16 110.32 200.26" style="fill:#263238"></polygon><polygon points="110.32 200.26 110.32 170.56 144.69 159.89 138.33 193.16 110.32 200.26" style="fill:#263238"></polygon><path d="M150.71,226s9.23-35.62-4.34-50.36c0,0-3,21.6-.09,38C147.16,218.53,150.71,226,150.71,226Z" style="fill:#FFC727"></path><g style="opacity:0.2"><path d="M150.71,226s9.23-35.62-4.34-50.36c0,0-3,21.6-.09,38C147.16,218.53,150.71,226,150.71,226Z"></path></g><path d="M160.38,172.61c7.05-.41,9.69,8.91,7.43,13.64a29.33,29.33,0,0,1-17.46,15.18c-3.25,1-10.24-22.41-6.87-23.76C146.46,176.47,150.45,173.18,160.38,172.61Z" style="fill:#ad6359"></path><path d="M155.66,199.18c-8.85,5.06-18.81,8.23-28.25,6.06a4.79,4.79,0,0,1-2.73-1.67c-4.25-.9-5.14-3.33-5.14-3.33-3.73-2.14-4.34-4.77-4.34-4.77s-5-1.11-4.87-4.47c.1-3.77,7.07-1.48,11.6-2.75,10.38-2.92,24.37-10.21,27.29-11.38Z" style="fill:#ad6359"></path><path d="M134.84,193.48a63.5,63.5,0,0,1-9.23,2,64.66,64.66,0,0,1-10.32-.08c-.1,0-.12.15,0,.18a34,34,0,0,0,19.61-1.94C135,193.57,135,193.44,134.84,193.48Z" style="fill:#263238"></path><path d="M137.41,200c-3,.59-8.36,1.59-17.86.11,0,0,0,.05,0,.06a30.38,30.38,0,0,0,17.91,0C137.63,200.12,137.62,200,137.41,200Z" style="fill:#263238"></path><path d="M138.74,203.56c-5.19.79-8.56.58-14,0,0,0,0,0,0,.06,6.17,1.38,8.54,1.13,14.1.14C139,203.71,138.94,203.53,138.74,203.56Z" style="fill:#263238"></path><path d="M146.39,175.61c-.32.14,2,6.8,4.21,18.7,2.82,15.25-.11,31.83.11,31.72s6.68-4.58,12.14-16.93c2.78-6.29,6.16-15.73,6.46-23.27.21-5-.82-11.71-6.24-13.05C157.06,171.29,152.1,173.12,146.39,175.61Z" style="fill:#FFC727"></path><path d="M159.46,215.66a45.85,45.85,0,0,1-4.08,5.81c1-4.79,2.5-13.76,2-21.8-.6-8.87-5.14-20.54-7.26-25.58,1-.37,1.91-.69,2.86-1,2.23,5.3,6.77,17.05,7.39,26.34A77.61,77.61,0,0,1,159.46,215.66Z" style="fill:#263238"></path><path d="M163.67,207.18c-.27.67-.55,1.31-.82,1.92-.13.28-.25.57-.38.84a70.1,70.1,0,0,0,.14-12.48c-.78-8.51-5.17-19.43-7.56-24.85.34-.07.68-.12,1-.17,2.43,5.55,6.76,16.41,7.53,24.93A64.27,64.27,0,0,1,163.67,207.18Z" style="fill:#263238"></path><path d="M146.39,175.58a17.6,17.6,0,0,1,2.86-1.4c.81-.34,1.64-.64,2.47-.91a7,7,0,0,1,.64-.37c.35-.18.7-.37,1.06-.54.72-.33,1.44-.63,2.17-.92,0,0,0,0,0,0-.67.41-1.35.82-2,1.2l-.23.11c.69-.2,1.38-.38,2.07-.52.49-.1,1-.17,1.49-.23a9.17,9.17,0,0,1,1.56-.16,0,0,0,0,1,0,.06,16,16,0,0,1-1.54.44l-1.47.44c-1,.27-2,.54-3,.86s-2,.62-2.95,1-2,.75-3,1C146.37,175.68,146.34,175.6,146.39,175.58Z" style="fill:#263238"></path><path d="M75.55,226.59s-14-34.16-1-50.39c0,0,5.68,21,4.38,37.57C78.52,218.72,75.55,226.59,75.55,226.59Z" style="fill:#FFC727"></path><g style="opacity:0.2"><path d="M75.55,226.59s-14-34.16-1-50.39c0,0,5.68,21,4.38,37.57C78.52,218.72,75.55,226.59,75.55,226.59Z"></path></g><path d="M59.11,174.61c-7.64.42-9.43,10-6.46,14.42A31.56,31.56,0,0,0,73.16,202.1c3.6.57,8.49-23.46,4.71-24.41C74.52,176.85,69.87,174,59.11,174.61Z" style="fill:#ad6359"></path><path d="M67.18,200.47c10.1,4,21.18,6,31.1,2.76a5.13,5.13,0,0,0,2.74-2c4.48-1.38,5.17-3.91,5.17-3.91,3.77-2.56,4.12-5.24,4.12-5.24s5.24-1.68,4.75-5c-.54-3.73-7.78-.65-12.8-1.39-11.51-1.69-27.39-7.32-30.66-8.14Z" style="fill:#ad6359"></path><path d="M89,192.4a75.2,75.2,0,0,0,10.16.91,75.32,75.32,0,0,0,11.1-1.28.09.09,0,0,1,0,.17,39.39,39.39,0,0,1-21.32.35C88.77,192.51,88.78,192.38,89,192.4Z" style="fill:#263238"></path><path d="M86.92,199.19c3.33.24,9.18.62,19.24-2,0,0,.06.05,0,.06a35.52,35.52,0,0,1-19.28,2.06C86.7,199.32,86.7,199.18,86.92,199.19Z" style="fill:#263238"></path><path d="M85.9,202.87c5.67.18,9.27-.42,15.1-1.64,0,0,0,.05,0,.06-6.48,2.08-9.07,2.11-15.16,1.77C85.65,203.05,85.67,202.86,85.9,202.87Z" style="fill:#263238"></path><path d="M74.5,176c.37.1-1.38,7-2.41,19.07-1.32,15.48,3.7,31.62,3.46,31.54s-7.72-3.79-15-15.43c-3.7-5.93-8.4-14.92-9.58-22.38-.78-5-.43-11.72,5.25-13.68C62.53,172.92,68.08,174.16,74.5,176Z" style="fill:#FFC727"></path><path d="M74.51,175.94a21.14,21.14,0,0,0-3.24-1.06c-.92-.24-1.84-.44-2.77-.61a7.38,7.38,0,0,0-.73-.29c-.39-.15-.79-.29-1.19-.42-.81-.24-1.63-.46-2.45-.67a0,0,0,0,0,0,0c.78.33,1.56.66,2.34.95l.27.09c-.76-.12-1.52-.22-2.29-.28-.54,0-1.09-.05-1.63-.05a9.65,9.65,0,0,0-1.7,0,0,0,0,0,0,0,.07,16.19,16.19,0,0,0,1.7.25l1.64.27c1.12.16,2.24.31,3.36.51s2.19.39,3.28.61,2.26.51,3.39.67A0,0,0,0,0,74.51,175.94Z" style="fill:#263238"></path><path d="M67.64,202.17c.31,8.47,3,17.71,4.44,22.15a39.44,39.44,0,0,1-4.32-3.88,81.74,81.74,0,0,1-3.11-18.16c-.36-9.68,3.21-22.44,4.8-27.59,1,.2,1.94.44,2.93.7C70.89,180.26,67.31,192.94,67.64,202.17Z" style="fill:#263238"></path><path d="M62.18,200.52a77.85,77.85,0,0,0,2.25,16.12c-.49-.61-1-1.25-1.46-1.92a74.1,74.1,0,0,1-1.79-14.19c-.13-9,3.36-20.9,5.15-26.38l1,.14C65.59,179.62,62.06,191.58,62.18,200.52Z" style="fill:#263238"></path></g><g id="freepik--character-2--inject-6"><path d="M259.31,453.6c-2.05.62-60.25-1.34-62.42-2.83-.83-.55-1-9-1-19.32v-.32c0-2.11,0-4.3.06-6.5,0-.31,0-.61,0-.92.22-14.82.78-30.19.78-30.19l38.43,1-1.29,30.14-.07,1.18-.36,6.19,0,.63s21.94,10.72,24.16,12.6S261.37,453,259.31,453.6Z" style="fill:#eb9481"></path><path d="M243,436.72c-.13,0-.21-.08-.22-.12Z" style="fill:#FFC727"></path><path d="M195.9,436.57c0,7.85.3,13.75,1,14.21,2.17,1.48,60.37,3.43,62.43,2.82s.45-6.52-1.74-8.39c-1-.82-5.61-3.29-10.57-5.82C252.48,443.78,251.4,448.15,195.9,436.57Z" style="fill:#FFC727"></path><path d="M175.45,224.09s20.25,101.72,21.68,109.23c.23,1.21-5.35,96.27-5.35,96.27l44.71,1.1s.63-87.71-.75-99.15c-1.82-15-24.76-107.45-24.76-107.45Z" style="fill:#263238"></path><path d="M195.34,420c6.4.08,4.57,0,11,.12,3.13.08,23.73.6,26.64,1.18a.07.07,0,0,1,0,.13c-2.94.39-23.52-.49-26.65-.63-6.4-.28-4.56-.27-11-.62C195.21,420.22,195.22,420,195.34,420Z" style="fill:#37474f"></path><path d="M202.38,333.63A154,154,0,0,0,199.59,317c-1.08-5.65-2.14-11.3-3.22-17-2.12-11.19-4.2-22.39-6.35-33.57-2.43-12.65-5.88-25-8.44-37.62-.06-.29-.49-.16-.44.13,4,22.44,9.23,44.54,13.47,66.93q1.6,8.48,3.22,16.95c1,5.51,2.21,11,3.11,16.55a46,46,0,0,1,.62,8.69c-.08,2.74-2.43,71.38-2.74,77.81,0,.08.13.09.14,0C200.47,404.59,202.82,339.2,202.38,333.63Z" style="fill:#37474f"></path><path d="M206.74,224.09l-12.64,93.8c-6-30.38-18.65-93.8-18.65-93.8Z" style="fill:#37474f"></path><path d="M191.69,456.12c-2.09.51-60.11-4.37-62.2-6-.81-.59-.59-9.08,0-19.34,0-.11,7.68-37.85,7.68-37.85L176,396.12l-9.09,37.74s21.38,11.8,23.49,13.79S193.77,455.62,191.69,456.12Z" style="fill:#eb9481"></path><path d="M129.49,450.17c2.09,1.58,60.12,6.47,62.2,5.95s.78-6.48-1.31-8.47c-1.16-1.08-8-5.08-14.06-8.5,7.16,4.89,16.53,13.65-47.14-2.54C128.86,444.11,128.85,449.69,129.49,450.17Z" style="fill:#FFC727"></path><path d="M176.29,438.45c-.14-.06-.21-.1-.22-.14Z" style="fill:#FFC727"></path><path d="M170,432.22l-42.74-5.06s22-84.7,23-88.32c1.53-5.51,4.93-50,8.25-77.43,0,0-6.28-14.88,5.47-37.35H211s-3.16,21.38-8.56,34.94c0,0,1-.76-5.36,2.74,0,0-3.9,69.8-6.75,83C188,355.67,170,432.22,170,432.22Z" style="fill:#263238"></path><path d="M131.39,418.63c6.38.59,4.55.33,10.93,1,3.11.33,23.6,2.48,26.46,3.29.06,0,.05.13,0,.13-3,.15-23.41-2.36-26.52-2.74-6.36-.79-4.52-.63-10.87-1.49A.09.09,0,0,1,131.39,418.63Z" style="fill:#37474f"></path><path d="M204.24,258.07A78.44,78.44,0,0,0,192,263.78c-.16.09,0,.33.11.26,4.13-1.78,8.35-3.48,12.38-5.48A.27.27,0,0,0,204.24,258.07Z" style="fill:#37474f"></path><path d="M205.56,229.72c0-.14-.26-.18-.26,0a136.73,136.73,0,0,1-.7,13.8c-.19,2.13-1.9,13.89-5.59,13-.62-.15-.93-.75-1-1.69a14.32,14.32,0,0,1,.49-3.6c.41-2.47.74-4.94.95-7.42a68.16,68.16,0,0,0-.15-13.92.12.12,0,0,0-.24,0,127.05,127.05,0,0,1-1.12,19.2c-.47,3.06-2,7.67,1.19,8.14s5.37-7.24,5.77-9.35A70.64,70.64,0,0,0,205.56,229.72Z" style="fill:#37474f"></path><path d="M199.11,256.85a19.48,19.48,0,0,0-.83,2.44,5.57,5.57,0,0,0-.35,2,.15.15,0,0,0,.26.05,7.42,7.42,0,0,0,.86-2c.28-.75.57-1.5.83-2.26A.41.41,0,0,0,199.11,256.85Z" style="fill:#37474f"></path><path d="M167,226.35a39.26,39.26,0,0,0-5.17,14.28,43.65,43.65,0,0,0,.49,15.29,34.2,34.2,0,0,1,.69,9c-.22,3.06-.64,6.12-1,9.18q-1,9-2,18c-1.32,11.93-3.7,30.48-5.26,42.38-.77,5.84-17.13,79.48-17.54,80.92,0,.12.15.16.19.05,3.87-11.3,16.64-71.1,18.46-82.66.93-5.88,1.56-11.81,2.23-17.73s1.36-12,2-18,1.36-11.86,2-17.79l1-9a60.78,60.78,0,0,0,.62-8.63,65.9,65.9,0,0,0-1.24-8.48,39.57,39.57,0,0,1-.46-7.84,41,41,0,0,1,3.66-15.24c.54-1.18.84-2.4,1.48-3.53C167.34,226.22,167.14,226,167,226.35Z" style="fill:#37474f"></path><path d="M180.86,228.35c-.75,2-1.61,4-2.53,5.87a15,15,0,0,1-3.14,4.77,11.91,11.91,0,0,1-4.78,2.42,26.81,26.81,0,0,1-3.08.67,22,22,0,0,0-3.14.57.22.22,0,0,0,0,.41,14.16,14.16,0,0,0,3.38.09,20.73,20.73,0,0,0,3.23-.44A11.63,11.63,0,0,0,176,240a13.89,13.89,0,0,0,3.19-5.2,34.32,34.32,0,0,0,1.91-6.42A.14.14,0,0,0,180.86,228.35Z" style="fill:#37474f"></path><path d="M197.1,261.74c0-.13-.24-.16-.27,0-.36,1.63-1,8.34-1.15,10-.33,3.41-.56,6.82-.81,10.23-.51,6.74-1.46,31.26-1.5,33.19,0,.11.18.1.19,0,.2-1.68,1.33-18.27,1.58-21.65.52-6.77,1-13.55,1.47-20.34C196.74,271.28,197.22,263.65,197.1,261.74Z" style="fill:#37474f"></path><path d="M202.49,258.93c.06,0,0,.05,0,.06A.21.21,0,0,1,202.49,258.93Zm1.75-.86A78.44,78.44,0,0,0,192,263.78c-.16.09,0,.33.11.26,4.13-1.78,8.35-3.48,12.38-5.48A.27.27,0,0,0,204.24,258.07Zm1.32-28.35c0-.14-.26-.18-.26,0a136.73,136.73,0,0,1-.7,13.8c-.19,2.13-1.9,13.89-5.59,13-.62-.15-.93-.75-1-1.69a14.32,14.32,0,0,1,.49-3.6c.41-2.47.74-4.94.95-7.42a68.16,68.16,0,0,0-.15-13.92.12.12,0,0,0-.24,0,127.05,127.05,0,0,1-1.12,19.2c-.47,3.06-2,7.67,1.19,8.14s5.37-7.24,5.77-9.35A70.64,70.64,0,0,0,205.56,229.72Zm-6.45,27.13a19.48,19.48,0,0,0-.83,2.44,5.57,5.57,0,0,0-.35,2,.15.15,0,0,0,.26.05,7.42,7.42,0,0,0,.86-2c.28-.75.57-1.5.83-2.26A.41.41,0,0,0,199.11,256.85Zm-18.25-28.5c-.75,2-1.61,4-2.53,5.87a15,15,0,0,1-3.14,4.77,11.91,11.91,0,0,1-4.78,2.42,26.81,26.81,0,0,1-3.08.67,22,22,0,0,0-3.14.57.22.22,0,0,0,0,.41,14.16,14.16,0,0,0,3.38.09,20.73,20.73,0,0,0,3.23-.44A11.63,11.63,0,0,0,176,240a13.89,13.89,0,0,0,3.19-5.2,34.32,34.32,0,0,0,1.91-6.42A.14.14,0,0,0,180.86,228.35Zm16.24,33.39c0-.13-.24-.16-.27,0-.36,1.63-1,8.34-1.15,10-.33,3.41-.56,6.82-.81,10.23-.51,6.74-1.46,31.26-1.5,33.19,0,.11.18.1.19,0,.2-1.68,1.33-18.27,1.58-21.65.52-6.77,1-13.55,1.47-20.34C196.74,271.28,197.22,263.65,197.1,261.74Z" style="fill:#37474f"></path><path d="M159.14,192.45c4.62,7.53,14,11.5,22.43,13.24,8.61,1.77,18.49,2.35,26.91-.48a21.16,21.16,0,0,0,9.68-6.25c2.65-3.19,3.43-6.83,1.57-10.43-1.49-2.9-5.3-5.36-5-7.78s2.63-4.05,3.52-6.29c1.51-3.84-.26-7.13-2.73-10.1-5.83-7.06-2.87-14.88-5.91-23.07-1.73-4.65-7.23-13.56-19.6-11.59-4.71.75-8.37,4.35-10.8,8.26-2.85,4.6-2.23,11.27-5.54,15.61-2.83,3.7-6.23,3.88-9,7.8-1.2,1.69-1.95,3.76-.57,8.36.49,1.66.92,4.15,0,5.92-1.28,2.44-4.55,3.19-6,5.73C156.25,184.87,157.1,189.12,159.14,192.45Z" style="fill:#263238"></path><path d="M215.37,199.6c4.16-.08,6.69-5.35,4.5-8.53-1.38-2-3.72-3.18-5.11-5.18-2.28-3.3.5-5.61,2.36-8.28,4-5.78.31-10.58-3.7-15.06-3-3.4-3.28-6.85-2.9-11.18,0-.07.12-.06.12,0-.12,3.21-.11,6.38,1.79,9.17,1.55,2.27,3.8,4,5.28,6.32a9.51,9.51,0,0,1-.35,11.48c-.76,1.07-2.09,2.22-2.51,3.44-1,2.88,1.07,4.72,3,6.47,1.49,1.35,3.15,2.84,3.5,4.91.52,3.12-2.78,6.8-6,6.68C215.23,199.85,215.2,199.61,215.37,199.6Z" style="fill:#263238"></path><path d="M212.73,202.32c2.7-1.14,5.6-2.12,7.43-4.51,2.71-3.54.4-6.81-1.76-9.88-.93-1.32-1.67-2.61-1.39-4.25.43-2.46,2.55-4.27,3.19-6.68,1.53-5.74-3.85-10.07-6.22-14.76s-2.69-10-3.08-15.24a.09.09,0,0,1,.17,0c.55,6.66,1.66,13,5.63,18.61,2.76,3.91,5.7,8.15,3.5,13-.54,1.18-1.44,2.2-1.95,3.39-1,2.36-.56,4,.84,6s3,3.88,2.93,6.31c-.06,4.72-5.2,7.16-9.15,8.44A.21.21,0,0,1,212.73,202.32Z" style="fill:#263238"></path><path d="M157.29,179.77c2.39-2.56,5.8-3.54,5.47-7.68-.22-2.86-1.47-5.28-.53-8.15a10.76,10.76,0,0,1,4.71-5.42c2.64-1.73,5.49-3,7.56-5.47,2.27-2.66,3.56-6,4.85-9.11,0-.06.14,0,.12,0-1.49,4.34-3.21,8.77-7.07,11.67-2,1.51-4.36,2.54-6.36,4.08-3.6,2.75-4,6.22-3.13,10.35.41,1.89.74,3.78-.34,5.52s-3,2.66-4.46,4.05c-6.15,5.9,1,15.25,7.58,17.3.3.09.21.54-.1.46-5-1.38-9.74-6.55-10.25-11.57A7.69,7.69,0,0,1,157.29,179.77Z" style="fill:#263238"></path><path d="M157.08,183.31c.42-2.93,2.49-4.33,4.22-6.46,2.72-3.34.81-7.21,1-11.08a9.39,9.39,0,0,1,3.43-6.56c2.59-2.34,5.71-3.86,7.94-6.64a18.89,18.89,0,0,0,4-10.34c0-.07.11,0,.1,0a18,18,0,0,1-6.54,13.33c-2.56,2.11-5.86,3.67-7.52,6.72-1.76,3.22-.39,6.53-.34,10a7.44,7.44,0,0,1-2.15,5.51,15.48,15.48,0,0,0-3,3.62,9,9,0,0,0-.14,6.38c2,6.52,8.12,11.21,14.32,13,.22.06.16.41-.06.35a22.28,22.28,0,0,1-13.44-10.26A12.15,12.15,0,0,1,157.08,183.31Z" style="fill:#263238"></path><path d="M237.43,155.68s12.42,10.77,15.55,17.94,5,20.48,5,20.48-11.14-11.37-14.39-17.52S237.43,155.68,237.43,155.68Z" style="fill:#37474f"></path><path d="M199.06,180.46c18.11,12.06,35.55,15.93,42.94,13.81,10.75-3.08,27.43-34.84,28.26-38.74.72-3.36-22.41-15-24.82-12.23-4.05,4.64-14.95,28.39-16.6,28.9s-9.81.12-26.43-3.13C192.33,167.1,186.51,172.1,199.06,180.46Z" style="fill:#eb9481"></path><path d="M268.73,158.67c1.53-2.79,7.45-16.23,8.25-20.34s2.28-16.09-.8-17-3.79,2.54-3.79,2.54-.19-5.16-3.37-5.83-4.12,4.79-4.12,4.79-.57-5.29-3.8-5.72-3.25,5.19-3.25,5.19-.3-4.85-3.1-4.09c-3.38.92-1.82,9.81-3.06,14.28-.28,1-7.13,20.15-7.13,20.15Z" style="fill:#eb9481"></path><path d="M257.86,121.79c1.14,6.54.5,9.6-2,15.64,0,.12.12.22.18.1,3-5.69,4.34-9.41,2.14-15.81C258.07,121.41,257.81,121.48,257.86,121.79Z" style="fill:#263238"></path><path d="M264.8,122.28c.58,6.9-.08,10.22-2.23,16.74,0,.09.13.15.16.06,2.65-6.22,3.91-10,2.42-16.78C265.08,122,264.77,122,264.8,122.28Z" style="fill:#263238"></path><path d="M272.27,124.16c.08,6.72-.49,10.4-3.39,16.46a.13.13,0,0,0,.22.12c3.55-5.89,4.3-10.47,3.37-16.56C272.41,123.77,272.26,123.74,272.27,124.16Z" style="fill:#263238"></path><path d="M240.06,155.37s-1.88-8.1-1.92-11.84,5-17.75,8-16.84c4,1.17,2.7,9.82,1.52,14,0,0,9.21,2.7,9.63,9.11S240.06,155.37,240.06,155.37Z" style="fill:#eb9481"></path><path d="M247.16,127.37c2.87,3.68,1,9,.11,13.15a.39.39,0,0,0,.42.48c3.79,1.39,8.72,4.45,9.81,8.57a.1.1,0,0,0,.19,0c-.56-4.57-5.17-8-9.42-9.23.94-4.21,2.62-9.66-1.07-13C247.18,127.32,247.15,127.34,247.16,127.37Z" style="fill:#263238"></path><path d="M237.43,155.68S242,171.57,245,176.83c4.54,8.06,13,17.27,13,17.27s-22.73,4.34-32.82,2c-10.69-2.53-21.91-9.67-29.24-16.74s-6.94-12.82,4.9-11,26.64,3.34,27.64,2.52S237.43,155.68,237.43,155.68Z" style="fill:#455a64"></path><path d="M237.92,196.62c-4.78.28-9.46.22-12.77-.56-10.69-2.53-21.91-9.67-29.24-16.74-2.79-2.69-4.46-5.19-4.81-7.15C199.7,176.75,228.53,191.63,237.92,196.62Z" style="fill:#263238"></path><path d="M251.93,195.1c-1.11.17-2.34.34-3.64.51a72.65,72.65,0,0,1-7.74-9.91c-3.83-6-6.64-14.63-8.34-20.82.7-1.23,1.44-2.51,2.13-3.71,1.5,5.94,4.52,16.24,8.74,22.92A74,74,0,0,0,251.93,195.1Z" style="fill:#ebebeb"></path><path d="M245.49,196l-1.21.14a71,71,0,0,1-7.61-10.16c-2.94-4.89-5.21-11.55-6.78-17.2.23-.35.46-.74.71-1.15,1.56,5.76,3.89,12.77,6.93,17.84A71.24,71.24,0,0,0,245.49,196Z" style="fill:#ebebeb"></path><path d="M208.66,209.12s23.62,89.36,27.47,120.62c3,24.49,4.78,105.29,4.78,105.29s-10.93,6.29-20.52,7.16l-3.06,5.52s-28.82,7.51-72.61-1.33c-1.08-.22-2.61-6.59-2.61-6.59-6.93-1.34-20.68-5.26-20.68-5.26s20.34-71.58,26.21-95.67c4.17-17.11,4.57-47.14,7.36-70,.83-6.89-2.23-27.73,7-46.22,2.24-4.47,15-46.7,19.59-51.51,6.51-6.79,14-6.12,18.65-1.19,1.19,1.25,12.6,17.4,14,24.7C215.45,201,208.66,209.12,208.66,209.12Z" style="fill:#455a64"></path><path d="M156.37,408.67c-1.82,6.39-14.26,31.12-14.26,31.12-2.77-.53-6.61-1.48-10.24-2.42,5.89-13.67,18.81-43.75,20.34-48.22,2-5.82,8.65-41.56,10.48-39.07S158.2,402.29,156.37,408.67Z" style="fill:#37474f"></path><path d="M220.39,442.19s2.4-19.31,2.28-24.54-3.78-34-2.95-36.64,5.66,20.18,7.15,26.13c1.11,4.43,2.77,23.25,3.56,32.64A41.43,41.43,0,0,1,220.39,442.19Z" style="fill:#37474f"></path><path d="M211,300.27c-3,2-14.84,35.84-15.12,41.33s-3.45,30.93-1.12,31.42,5.49-24.77,7.15-31.25S214.46,298,211,300.27Z" style="fill:#37474f"></path><path d="M201.48,375.19c-4,1.83-4.3,22.26-1.93,21S204,374,201.48,375.19Z" style="fill:#37474f"></path><path d="M240.6,422.38A98.15,98.15,0,0,1,224,428.24c-1.84,1.25-9.59,5.4-31.77,6.28-2.33.1-4.58.14-6.73.14-23,0-35.46-4.89-37.37-5.7a56.92,56.92,0,0,1-22.46-9.29l1.16-4.12A52.73,52.73,0,0,0,149,425.06l.24.05.23.1c.14.06,14.64,6.42,42.54,5.32,23.33-.93,29.76-5.65,29.82-5.7l.34-.25.43-.12c.13,0,10.72-2.66,17.85-6.5C240.52,419.52,240.56,421,240.6,422.38Z" style="fill:#ebebeb"></path><path d="M240.33,412.66a103.12,103.12,0,0,1-16.54,5.73c-1.35,1-9.68,6.55-31.63,7.61q-3.93.18-7.44.18c-21.74,0-31.48-5-33.06-5.87A45.13,45.13,0,0,1,128,411.24c.2-.7.39-1.4.6-2.12a43.3,43.3,0,0,0,23.46,9.22l.24,0,.2.13c.11.06,11.51,6.86,39.57,5.51,22.85-1.11,30.56-7.23,30.63-7.29l.18-.15.22-.05c.12,0,10.58-2.69,17.16-6.05C240.28,411.21,240.31,411.94,240.33,412.66Z" style="fill:#ebebeb"></path><path d="M180.55,170.23c-9.59,5.49-46.21,31-47.61,40.3-1.3,8.59,11.12,9.41,18.15,6.66,5.15-2,30.93-30.3,36-38.12C191.83,171.64,190,164.85,180.55,170.23Z" style="fill:#455a64"></path><path d="M168.55,200.8c1-1.07,1.95-2.19,2.93-3.28s2-2.13,3-3.18,2-2.14,3.07-3.17,2.08-2,3.15-2.92a0,0,0,0,1,.07.06c-.94,1.12-1.9,2.23-2.89,3.31-.56.6-1.13,1.18-1.7,1.76a25.05,25.05,0,0,1,2.88-1.89c.05,0,.09,0,.05.09-.76.58-1.55,1.12-2.33,1.66l-1.14.81-.4.28-.39.39c-1,1-2,2.05-3,3s-2.2,2.05-3.28,3.1C168.58,200.9,168.51,200.84,168.55,200.8Z" style="fill:#263238"></path><path d="M169,216c-1.41-.82-1-1.56,1.87-2s14.56.39,14.5-3.71-16.59-5-21.31-3.94-12,4.4-12,4.4C155.25,211.63,162.77,214.35,169,216Z" style="fill:#eb9481"></path><path d="M224.15,194l-1.06-.85s-8.61,2.14-11.3,2.64-15.93-.34-21,6.15v29.9l27.06-6.32Z" style="fill:#ebebeb"></path><path d="M157.41,194l1.06-.85s8.61,2.14,11.29,2.64,15.93-.34,21,6.15v29.9l-27.06-6.32Z" style="fill:#ebebeb"></path><polygon points="190.78 233.51 190.78 203.81 156.4 193.15 162.77 226.41 190.78 233.51" style="fill:#263238"></polygon><polygon points="190.78 233.51 190.78 203.81 225.15 193.15 218.79 226.41 190.78 233.51" style="fill:#263238"></polygon><path d="M156.48,257.75s-13.95-34.16-1-50.39c0,0,5.68,20.95,4.38,37.57C159.46,249.88,156.48,257.75,156.48,257.75Z" style="fill:#37474f"></path><path d="M140.05,205.78c-7.64.41-9.43,10-6.46,14.41a31.52,31.52,0,0,0,20.51,13.07c3.6.57,7.79-24,4-25C154.76,207.45,150.81,205.2,140.05,205.78Z" style="fill:#eb9481"></path><path d="M148.12,231.63c10.1,4,21.18,6,31.1,2.76a5.18,5.18,0,0,0,2.74-2c4.48-1.38,5.17-3.91,5.17-3.91,3.77-2.56,4.12-5.24,4.12-5.24s5.24-1.67,4.75-5c-.54-3.74-7.78-.66-12.8-1.4-11.51-1.69-27.39-7.32-30.66-8.14Z" style="fill:#eb9481"></path><path d="M169.89,223.56a75.2,75.2,0,0,0,10.16.91,74,74,0,0,0,11.1-1.28.09.09,0,0,1,0,.18,39.48,39.48,0,0,1-21.32.34C169.71,223.67,169.72,223.54,169.89,223.56Z" style="fill:#263238"></path><path d="M167.86,230.36c3.33.23,9.18.61,19.24-2,0,0,.06,0,0,0a35.39,35.39,0,0,1-19.27,2.06C167.64,230.48,167.64,230.34,167.86,230.36Z" style="fill:#263238"></path><path d="M166.84,234c5.67.19,9.27-.42,15.1-1.64,0,0,.05.05,0,.06-6.47,2.09-9.06,2.11-15.15,1.77C166.59,234.21,166.61,234,166.84,234Z" style="fill:#263238"></path><path d="M155.44,207.14c.37.1-1.38,7-2.41,19.07-1.32,15.48,3.7,31.62,3.45,31.54s-7.71-3.79-15-15.43c-3.7-5.93-8.4-14.91-9.58-22.37-.78-5-.43-11.73,5.25-13.69C143.47,204.08,149,205.32,155.44,207.14Z" style="fill:#455a64"></path><path d="M155.44,207.11a19.68,19.68,0,0,0-3.23-1.06c-.92-.24-1.84-.45-2.77-.62-.24-.11-.49-.2-.73-.29-.4-.15-.79-.29-1.19-.41-.82-.25-1.63-.47-2.45-.67,0,0,0,0,0,0,.78.34,1.55.66,2.34.95.09,0,.18.06.27.09-.76-.12-1.53-.22-2.29-.28-.54,0-1.09,0-1.63,0a10.71,10.71,0,0,0-1.7,0s0,.05,0,.06a16.19,16.19,0,0,0,1.7.25l1.64.27c1.12.16,2.24.31,3.36.51s2.19.39,3.28.61,2.26.52,3.39.68A0,0,0,0,0,155.44,207.11Z" style="fill:#263238"></path><path d="M153.23,255.65a41,41,0,0,1-4.42-3.94A81.58,81.58,0,0,1,145.47,234c-.56-10.07,3.06-23.55,4.45-28.27,1,.19,1.94.43,2.93.68-1.29,4.4-4.93,17.82-4.39,27.42C148.92,242.14,151.68,251.14,153.23,255.65Z" style="fill:#ebebeb"></path><path d="M143,232.31a76.75,76.75,0,0,0,2.41,15.5c-.5-.63-1-1.29-1.5-2A73,73,0,0,1,142,232.34c-.3-9.32,3.23-21.9,4.84-27.09.33,0,.66.08,1,.14C146.24,210.43,142.66,223,143,232.31Z" style="fill:#ebebeb"></path><path d="M187.82,168.68c.28.92,5.2,6.67,9.46,6.15,1.39-.17.8-7.79.8-7.79l.08-.57,1.19-8-9.7-5.26-1.39-.69s-.18,2.21-.38,5l0,.39c0,.16,0,.31,0,.45l-.09,1.25c0,.32,0,.63-.05,1s0,.66,0,1A50,50,0,0,0,187.82,168.68Z" style="fill:#eb9481"></path><path d="M187.88,157.48a16.24,16.24,0,0,0,10.28,9l1.19-8-9.7-5.26-1.39-.69S188.08,154.72,187.88,157.48Z" style="fill:#263238"></path><path d="M210.35,146.42c1.75,14.1-6.5,16.75-9.54,17.12-2.76.35-12.21,1.16-15.41-12.69s2.8-19.12,9.07-20.24S208.59,132.32,210.35,146.42Z" style="fill:#eb9481"></path><path d="M196.45,144.74c.33-.09.62-.22.94-.33a1.65,1.65,0,0,0,.89-.52.52.52,0,0,0-.09-.62,1.26,1.26,0,0,0-1.27-.13,1.82,1.82,0,0,0-1.07.81A.54.54,0,0,0,196.45,144.74Z" style="fill:#263238"></path><path d="M200.47,155.26c.25.21.51.51.87.51a2.58,2.58,0,0,0,1-.32,0,0,0,0,1,0,.05,1.33,1.33,0,0,1-1.2.62,1.06,1.06,0,0,1-.83-.81A.05.05,0,0,1,200.47,155.26Z" style="fill:#263238"></path><path d="M204.08,151.23a20.69,20.69,0,0,1,.47,2.1c0,.07-.15.12-.38.16h0a3.28,3.28,0,0,1-3.31-.81.07.07,0,0,1,.09-.11,4.92,4.92,0,0,0,3.08.47c0-.19-.74-2.41-.64-2.44a5.75,5.75,0,0,1,1.6.16c-.72-3-1.91-5.84-2.58-8.83,0-.1.13-.16.17-.06a50.12,50.12,0,0,1,3.19,9.38C205.84,151.64,204.37,151.31,204.08,151.23Z" style="fill:#263238"></path><path d="M204.07,153.25a4,4,0,0,1-1.33,1.51,1.79,1.79,0,0,1-1.05.26c-.81-.05-1-.76-.94-1.39a4.21,4.21,0,0,1,.17-1A5.13,5.13,0,0,0,204.07,153.25Z" style="fill:#263238"></path><path d="M202.74,154.76a1.79,1.79,0,0,1-1.05.26c-.81-.05-1-.76-.94-1.39A1.85,1.85,0,0,1,202.74,154.76Z" style="fill:#ff9bbc"></path><path d="M206.38,142.84c-.33,0-.64-.05-1-.08a1.63,1.63,0,0,1-1-.28.5.5,0,0,1-.07-.61,1.22,1.22,0,0,1,1.19-.44,1.83,1.83,0,0,1,1.23.5A.54.54,0,0,1,206.38,142.84Z" style="fill:#263238"></path><path d="M197.12,147.85a1,1,0,0,1-.23.26.62.62,0,0,1-.51.15c-.57-.07-.8-.68-.81-1.26,0,0,0-.07,0,0,.23.3.5.61.83.57a1.12,1.12,0,0,0,.59-.39A2.63,2.63,0,0,0,197.12,147.85Z" style="fill:#263238"></path><path d="M196.88,147.7a1.56,1.56,0,0,1,.25-.75,1.09,1.09,0,0,1,.74-.43,1,1,0,0,1,.81.32,1.83,1.83,0,0,1,.36.69,3.4,3.4,0,0,1,.08.46,2.21,2.21,0,0,1-.11,1,3.2,3.2,0,0,0-.11-.7,5.29,5.29,0,0,0-.21-.6c-.17-.4-.45-.71-.78-.66s-.57.34-.66.76a7.29,7.29,0,0,0-.12,1.35A3.14,3.14,0,0,1,196.88,147.7Z" style="fill:#263238"></path><path d="M206.63,145.92a1.11,1.11,0,0,0,.3.17.62.62,0,0,0,.53,0c.51-.25.53-.9.36-1.45,0-.05,0-.06-.06,0-.11.36-.26.74-.59.81a1.15,1.15,0,0,1-.68-.17A3.38,3.38,0,0,1,206.63,145.92Z" style="fill:#263238"></path><path d="M206.8,145.7a1.44,1.44,0,0,0-.48-.63,1.08,1.08,0,0,0-.84-.17,1,1,0,0,0-.66.57,1.74,1.74,0,0,0-.11.77,3.65,3.65,0,0,0,.07.46,2.14,2.14,0,0,0,.42.87,2.78,2.78,0,0,1-.12-.69,4.58,4.58,0,0,1,0-.64c0-.43.2-.82.52-.88a.83.83,0,0,1,.88.51,6.3,6.3,0,0,1,.56,1.23A3.09,3.09,0,0,0,206.8,145.7Z" style="fill:#263238"></path><path d="M186,151.74c2.74.2,3.12-6.07,3.12-6.07s11.5-2.56,12-12.06a16,16,0,0,0,8.51,8.33s-.93-10.33-9.25-11.92c0,0-10.38-3.19-15.69,5.19S184.12,151.6,186,151.74Z" style="fill:#263238"></path><path d="M201.08,132.91a10.3,10.3,0,0,1-.29,4.34,10.65,10.65,0,0,1-2,3.92,8.28,8.28,0,0,1-.74.83l-.38.4c-.14.12-.28.24-.43.35s-.57.47-.87.69-.62.39-.94.57l-.47.28-.5.22-1,.45c-.7.23-1.4.42-2.09.6.65-.32,1.32-.57,2-.9l.93-.52.47-.25.43-.31L196,143c.28-.21.54-.46.8-.69l.4-.34.36-.39a8.87,8.87,0,0,0,.69-.79,12.26,12.26,0,0,0,2-3.66,13.28,13.28,0,0,0,.54-2.06A12.62,12.62,0,0,0,201.08,132.91Z" style="fill:#263238"></path><path d="M188,151.73s-3.26-4.32-5.23-3.14.6,7.52,3,8.31a2.4,2.4,0,0,0,3.17-1.41Z" style="fill:#eb9481"></path><path d="M183.57,150.39s0,.05,0,.06a6.08,6.08,0,0,1,3.28,3.68,1.34,1.34,0,0,0-2-.29.05.05,0,0,0,0,.09,1.46,1.46,0,0,1,1.64.46,7.19,7.19,0,0,1,.83,1.28c.09.15.35.06.29-.11l0,0C187.59,153.41,185.84,150.52,183.57,150.39Z" style="fill:#263238"></path><path d="M198.18,168.18l-2.92,6.35-7.65-8.6-2.41,2.52s7.23,13.42,7.31,12.83l3-5.45,3.66,4.07.17-9.77Z" style="fill:#ebebeb"></path><path d="M199.48,175.08c0-1.62,0-3.24-.11-4.85,0-.06-.09-.09-.11,0-.4,1.53-.26,7.71-.34,9.18l0,0c-.15-.17-3.4-3.59-3.44-3.54-.62.86-2.78,4.83-2.94,5.19-1.14-2.13-5.54-9.89-6.92-11.92a.06.06,0,0,0-.1.05c1,2.24,6.81,12.68,6.91,12.66a60.5,60.5,0,0,0,3.08-5.77,43.65,43.65,0,0,0,3.83,4.34A49.31,49.31,0,0,0,199.48,175.08Z" style="fill:#263238"></path></g><g id="freepik--musical-notes--inject-6"><path d="M266.84,92.36a2.69,2.69,0,1,1-2.14-3.15A2.69,2.69,0,0,1,266.84,92.36Z" style="fill:#263238"></path><rect x="266.07" y="78.74" width="2.05" height="13.51" transform="translate(20.67 -48.39) rotate(10.77)" style="fill:#263238"></rect><path d="M276.11,90.14A2.69,2.69,0,1,1,274,87,2.68,2.68,0,0,1,276.11,90.14Z" style="fill:#263238"></path><rect x="275.35" y="76.52" width="2.05" height="13.51" transform="translate(20.42 -50.17) rotate(10.77)" style="fill:#263238"></rect><polygon points="278.64 76.86 267.01 80.44 267.35 78.67 278.98 75.09 278.64 76.86" style="fill:#263238"></polygon><polygon points="278 80.21 266.38 83.79 266.71 82.01 278.34 78.43 278 80.21" style="fill:#263238"></polygon><path d="M346.41,135.37a3.44,3.44,0,1,1-4.06-2.67A3.44,3.44,0,0,1,346.41,135.37Z" style="fill:#263238"></path><rect x="342.06" y="118.49" width="2.63" height="17.29" transform="translate(-18.57 71.79) rotate(-11.62)" style="fill:#263238"></rect><path d="M356.3,128.23a3.44,3.44,0,1,1-4.06-2.67A3.43,3.43,0,0,1,356.3,128.23Z" style="fill:#263238"></path><rect x="351.95" y="111.35" width="2.63" height="17.29" transform="translate(-16.93 73.64) rotate(-11.62)" style="fill:#263238"></rect><polygon points="352.82 111.3 340.81 121.2 340.34 118.93 352.35 109.03 352.82 111.3" style="fill:#263238"></polygon><polygon points="353.7 115.56 341.69 125.46 341.22 123.2 353.23 113.3 353.7 115.56" style="fill:#263238"></polygon><path d="M135.77,108.78a2.69,2.69,0,1,1-1.57-3.47A2.69,2.69,0,0,1,135.77,108.78Z" style="fill:#263238"></path><rect x="136.17" y="95.3" width="2.05" height="13.51" transform="translate(44.63 -41.71) rotate(20.58)" style="fill:#263238"></rect><path d="M145.29,108.17a2.69,2.69,0,1,1-1.57-3.46A2.69,2.69,0,0,1,145.29,108.17Z" style="fill:#263238"></path><rect x="145.69" y="94.7" width="2.05" height="13.51" transform="translate(45.03 -45.1) rotate(20.58)" style="fill:#263238"></rect><polygon points="150.04 95.52 137.97 97.06 138.61 95.37 150.68 93.83 150.04 95.52" style="fill:#263238"></polygon><polygon points="148.84 98.71 136.77 100.25 137.41 98.56 149.48 97.02 148.84 98.71" style="fill:#263238"></polygon><path d="M220.5,131.25a3.44,3.44,0,1,1-2.73-4A3.44,3.44,0,0,1,220.5,131.25Z" style="fill:#263238"></path><rect x="219.52" y="113.84" width="2.63" height="17.29" transform="translate(26.77 -39.1) rotate(10.77)" style="fill:#263238"></rect><rect x="230.27" y="111.24" width="2.63" height="5" transform="translate(25.32 -41.25) rotate(10.77)" style="fill:#263238"></rect><polygon points="233.21 112.18 220.73 116.01 221.16 113.74 233.64 109.91 233.21 112.18" style="fill:#263238"></polygon><polygon points="232.4 116.46 219.91 120.29 220.35 118.02 232.83 114.19 232.4 116.46" style="fill:#263238"></polygon><path d="M362,76.85a2.69,2.69,0,1,1-2.14-3.14A2.68,2.68,0,0,1,362,76.85Z" style="fill:#263238"></path><rect x="361.25" y="63.23" width="2.05" height="13.51" transform="translate(19.45 -66.45) rotate(10.77)" style="fill:#263238"></rect><rect x="369.65" y="61.2" width="2.05" height="3.91" transform="translate(18.32 -68.13) rotate(10.77)" style="fill:#263238"></rect><polygon points="371.96 61.94 362.2 64.94 362.54 63.16 372.29 60.16 371.96 61.94" style="fill:#263238"></polygon><polygon points="371.32 65.28 361.56 68.28 361.9 66.51 371.66 63.51 371.32 65.28" style="fill:#263238"></polygon><path d="M134.51,72.23a3.44,3.44,0,1,1-4.06-2.68A3.43,3.43,0,0,1,134.51,72.23Z" style="fill:#263238"></path><rect x="130.16" y="55.34" width="2.63" height="17.29" transform="translate(-10.2 27.8) rotate(-11.62)" style="fill:#263238"></rect><rect x="136.77" y="49.31" width="2.63" height="5" transform="translate(-7.61 28.88) rotate(-11.62)" style="fill:#263238"></rect><polygon points="139 49.75 128.91 58.05 128.45 55.79 138.53 47.49 139 49.75" style="fill:#263238"></polygon><polygon points="139.88 54.02 129.79 62.32 129.33 60.05 139.41 51.76 139.88 54.02" style="fill:#263238"></polygon></g></svg>