<svg xmlns="http://www.w3.org/2000/svg" viewBox="0 0 750 500"><g id="freepik--background-simple--inject-126"><path d="M730.22,255.82c-4-51.4-16.33-105.74-46.38-149C610.07.5,444.64,11.2,341.56,60.26Q333.72,64,326,68c-83,43-209,0-266,83S18,354,74,417s198,72,303,61,134-15,213-9,135-50,140-123C732,316.41,732.54,286,730.22,255.82Z" style="fill:#92E3A9"></path><path d="M730.22,255.82c-4-51.4-16.33-105.74-46.38-149C610.07.5,444.64,11.2,341.56,60.26Q333.72,64,326,68c-83,43-209,0-266,83S18,354,74,417s198,72,303,61,134-15,213-9,135-50,140-123C732,316.41,732.54,286,730.22,255.82Z" style="fill:#fff;opacity:0.7000000000000001"></path></g><g id="freepik--Clouds--inject-126"><g style="opacity:0.30000000000000004"><path d="M701.81,140.18a7.23,7.23,0,0,1-.06-.85c-.08-6.46-2.47-10.93-8.33-14.33-11-6.37-17.33,0-20.52,5.66s-8.14-3.54-15.92-2.47-7.43,9.55-9.55,14.15-6.73-1.42-12.74-.36-6.37,4.6-7.43,6-10.62-2.12-15.92.71a22.08,22.08,0,0,0-8.14,8.14h116s1.42-8.49-3.18-11.68C712,142.31,702.6,146.88,701.81,140.18Z" style="fill:none;stroke:#000;stroke-linecap:round;stroke-linejoin:round"></path><path d="M647.94,150.77a3,3,0,0,0-1.08.54c-1.49,1.31-1.49,2.25-1.49,2.25" style="fill:none;stroke:#000;stroke-linecap:round;stroke-linejoin:round"></path><path d="M673.57,139.78c-1,2.26-1.94,4.74-4.07,5.74-3,1.42-5.89-1.79-8.69-2.52a4,4,0,0,0-4.45,1.36c-1.27,1.45-1.29,4.72-3,5.65a7.7,7.7,0,0,1-3.19.5" style="fill:none;stroke:#000;stroke-linecap:round;stroke-linejoin:round"></path><path d="M708.11,150.23q-.12-.3-.27-.6c-2.23-4.46-7.5-.87-10.74-2.12-2.89-1.11-1.94-5.67-2.33-8-.75-4.6-6.53-8.12-11.06-7.41a14.13,14.13,0,0,0-8.55,5" style="fill:none;stroke:#000;stroke-linecap:round;stroke-linejoin:round"></path><path d="M709,154.32a21.42,21.42,0,0,0-.39-2.36" style="fill:none;stroke:#000;stroke-linecap:round;stroke-linejoin:round"></path></g><g style="opacity:0.30000000000000004"><path d="M333.56,88.26c0-.17,0-.35,0-.54a9.75,9.75,0,0,0-5.33-9.18c-7-4.08-11.11,0-13.15,3.62s-5.22-2.26-10.21-1.58-4.76,6.12-6.12,9.06-4.3-.9-8.16-.22-4.08,3-4.76,3.85-6.8-1.36-10.2.46a14.18,14.18,0,0,0-5.22,5.21h74.37s.9-5.44-2-7.48C340.05,89.63,334.07,92.56,333.56,88.26Z" style="fill:none;stroke:#000;stroke-linecap:round;stroke-linejoin:round"></path><path d="M299,95.05a1.67,1.67,0,0,0-.69.35c-1,.84-1,1.43-1,1.43" style="fill:none;stroke:#000;stroke-linecap:round;stroke-linejoin:round"></path><path d="M315.47,88c-.66,1.44-1.25,3-2.61,3.67-1.95.91-3.78-1.15-5.57-1.61a2.58,2.58,0,0,0-2.85.87c-.81.93-.83,3-1.89,3.62a4.76,4.76,0,0,1-2.05.32" style="fill:none;stroke:#000;stroke-linecap:round;stroke-linejoin:round"></path><path d="M337.6,94.7c-.05-.13-.11-.26-.17-.38-1.43-2.86-4.81-.56-6.89-1.36-1.85-.72-1.24-3.63-1.49-5.16-.48-3-4.19-5.2-7.09-4.75a9.06,9.06,0,0,0-5.47,3.19" style="fill:none;stroke:#000;stroke-linecap:round;stroke-linejoin:round"></path><path d="M338.19,97.32a13.93,13.93,0,0,0-.25-1.51" style="fill:none;stroke:#000;stroke-linecap:round;stroke-linejoin:round"></path></g><g style="opacity:0.30000000000000004"><path d="M320.59,48.42c0-.33-.06-.68-.07-1.05-.1-8-3.06-13.5-10.28-17.7-13.55-7.86-21.41,0-25.34,7s-10-4.36-19.66-3-9.17,11.79-11.8,17.47-8.3-1.75-15.72-.44-7.87,5.68-9.18,7.43-13.1-2.62-19.65.87a27.27,27.27,0,0,0-10,10H342.13s1.74-10.48-3.93-14.41C333.11,51.05,321.56,56.69,320.59,48.42Z" style="fill:none;stroke:#000;stroke-linecap:round;stroke-linejoin:round"></path><path d="M254.08,61.49a3.28,3.28,0,0,0-1.33.67c-1.85,1.62-1.85,2.77-1.85,2.77" style="fill:none;stroke:#000;stroke-linecap:round;stroke-linejoin:round"></path><path d="M285.72,47.93c-1.27,2.78-2.39,5.84-5,7.07-3.76,1.76-7.27-2.21-10.73-3.1a5,5,0,0,0-5.5,1.68c-1.56,1.78-1.58,5.83-3.64,7a9.38,9.38,0,0,1-3.94.62" style="fill:none;stroke:#000;stroke-linecap:round;stroke-linejoin:round"></path><path d="M328.37,60.83a7.18,7.18,0,0,0-.33-.74c-2.75-5.51-9.26-1.09-13.27-2.63-3.56-1.37-2.39-7-2.87-9.93-.92-5.69-8.07-10-13.65-9.16a17.45,17.45,0,0,0-10.56,6.14" style="fill:none;stroke:#000;stroke-linecap:round;stroke-linejoin:round"></path><path d="M329.5,65.87A24.82,24.82,0,0,0,329,63" style="fill:none;stroke:#000;stroke-linecap:round;stroke-linejoin:round"></path></g></g><g id="freepik--Trees--inject-126"><path d="M571.06,128.86,598,127.39l-26-.16,25.44-3.06-26.12,1.56,22.37-4.29-24.52,3,18.16-5.13-21.58,4.17L579,117.91l-17.67,5,8-5.68-13.11,5.42,2.65-5.44-8.17,5.54-2.52-4.93-3,5.16-2.89-3L556,114.85l-10.1.24L563,104.67l-14.26,5.89,19.06-14.84-17.26,11,19.54-18-18.86,15L569.77,84.2l-19,17.76,16.39-19.69-17.91,19.07,13.31-18.48-15.74,19,9.67-16.21-12.82,17.86,5.7-13,3.37-.29L538.29,86.7l20.52-7.38-18.21,2.4,21.65-12.55L541.7,77.24l21.13-16.56-21.29,12.9,19.11-19.1L540.18,71l15.93-20.09L537.75,69.54l12-19.66L534.47,69.35l7.63-18L531.64,68.6h-.7l2.87-13.68L528,68.62H526l-.44-5.37,7-8.12-12.81,7.53L529.28,43,517.94,57.5l6.69-24.12-9,20.14,3.52-26.61L512.92,51l.29-27-3.09,26.1-2.68-25.5-.05,26.19-5.2-22.43L504.91,53l-7.15-18.22,5.07,21.65-2.91-4.56.71-1.48-.91,1.17L495,44.16l1-3.48-1.32,2.93-.32-.51.26.66L487,60.82l3.51-26.61-6.19,24.11.3-27-3.1,26.11L478.8,31.9l-.06,26.19-5.19-22.43,2.72,24.59L469.12,42l5.06,21.64L465.7,50.4l6.89,17.71-9.2-8,8.19,13.13L463.72,71v-.35l-.08.33-1.43-.41,1.26,1.15-3.9,16.82-4.15-24.68L455.76,86l-8.08-25.6,4.6,24.46-11.17-24.6,8.24,25-13.22-22,11,23.74L433,68.84,445.84,90,431.65,76.49,445.4,94l-13.3-8.44,13.74,13.13L434.12,95.3l13,8.43-4.87.79-3.93-3.06,2.36,3.32-2.54.41-8.72-5.1,9.17,7.47-16.89-7.94,13.35,8-19.49-7.54,17,8.13-21.17-6.67,19.88,7.77L409.47,104l21.79,6.92-21-3.55,22.48,5.52-18.85-1.33,21.67,3.59-15.15,1.2,19.24,1.22-5.95,2.31-.82-1,0,1.38-3.21,1.25,3.19-.32-.06,3-9.6-7.5,4.64,6.56-13.55-7.92,9.18,7.47-16.89-7.94,13.34,8-19.49-7.53,17,8.12-21.17-6.67,19.87,7.78-21.74-5.34,21.79,6.91-21-3.54L417.54,128l-18.85-1.34,21.68,3.6-15.15,1.2,19.24,1.21-10,3.89,15.12-1.49-3.7,6.51,9.51-4.29,3.26,8.79,2.82-6.94,10.23,10.49-4.32-9.14,6.46,4.47-1.68,1.51,3-.62,4.92,3.4-.69,3.73,2.38-2.56,2.11,1.45L462,150.16l1.07-1.15,2,1.29,2.06,8.46.38-3.66,2.39-1.51.05,0,3.64,7.09-.35.65.44-.46,1.17,2.28-.77-2.69,2-2.08.86.74,4,5.58-.25,1,.43-.74.66.92-.58-1.06.56-1a38.66,38.66,0,0,1,6,8.33h-4.11l5.9,4.43-7.38,1.47,4.43,5.17-7.38,2.22,2.21,11.07-4.43-.74,3.69,28.8-5.91-3.69L480,247.49s.74,5.17.74,22.15-10.34,35.44-11.81,44.3,0,19.2,0,19.2h55.78s1.68-10.34,0-19.2-13.38-27.32-13.38-44.3.84-22.15.84-22.15L518,220.91l-6.69,3.69,4.18-28.8-5,.74L513,185.47l-8.36-2.22,5-5.17-3.69-.65a46,46,0,0,1,1.91-5.18l.11-.07h-.08A60.29,60.29,0,0,1,514,161.5l2,2.15-1.49-2.85.47-.64,5.47-4.71,1.1.71-2.22,6.05,3.85-5,.85.55-.7-.76,3.1-4,1.65,7.23,2.62-8.53,6.56,5.36-2.35-7.1,11.15,3-7.31-5.08,14.91.44-11.73-2.65,17.45-2.13-15.17-.07,8.79-2.09.55.58v-.71l9.26-2.2-9.27,1.28,0-1.64,5.49-1.87,8,3.39L562,135.78l1.7-.58-1.83.46-2.39-2.15.08,0L579,137.6l-14.41-5.51,24,2.31-20.09-3.88,26.54.37Zm-20.72,9.68-4.78,1.19,4.16-1.86Zm-3.21-3.44.35.37-1.2.54ZM507,166.66l-.78-3.39.48-1.38,4.81-3.11.59.65C510.15,162,508.43,164.44,507,166.66Zm-6.63,5.52-2.61.22-5.62-13.94,1,.63-1.1-.83-.07-.17,1.82-6.45,4.24,17.22.48-17.65,2.09,3.93-1.85.73,1.94-.56,1.15,2.14-2.73,1.39,2.87-1.13,1.21,2.27-1.82,1.17,1.93-1,1.27,2.39Zm-6.54.38a59.69,59.69,0,0,0-4.33-5.67l.63-2.21,1.11,1-1.07-1.15.87-3.09.79.59L495,172.62l-.38,0Zm-29.15-45,1,2.55-.79.07Zm3.28,1.55.32.22.28.54-.4,0Zm2.52-1.1,1.11,1.6h-.07l-.65-.62Zm.14,5.73-1.37.6-.15-.62h1.51Zm0-30.74-.49,0,.9-1.14Zm-.3,30.15.25.46-1.53-.19-.14-.54Zm4.27.8.23.33-1.67.59-.43-1.12.06-.14Zm-1.4-25.49.33-.12-.07.35Zm1.45,6.43.67-.15,1.11,1.55Zm.82,39.29-.88-1.62,2.15,2.37-.06.12C476.26,154.77,475.87,154.48,475.45,154.19Zm1.49-1.52.67.61-.09.17Zm4.83,6.48L479,155.41l.45-.47,3.29,3-.43,1.67ZM479,148.46l1,.45-.11.19Zm4.58,12.3.77-1.34,4.79,4.36,0,2.67A70.45,70.45,0,0,0,483.58,160.76Zm21.71-53-.05.69-3.06,4.37.42-2.67Zm-2.17-.89.24-1.53,2.16-1.49,0,.32Zm.39,44.6-.42-1.84,1.29,1.4-.22.25Zm.17.35-.07.08v-.06Zm.77-.71.06.07-.18,0Zm-2.69-51.52-1.48-1.75,2.36-.56Zm-3.89,9.51.15.18-.94,2.43-.18-1.95Zm-1.1-.67-.08-.8.41.51Zm1.22-1.1-1.37-2.72,3.92-1.87-1.35,3.51Zm-1.68-3.76-.45-4.68,2.18-.52.24.15-1.58,4.58,2.52-4,1.82,1.14Zm-3.88-15,2.37.16-.29,2.3Zm1.48,7.24-.34,2.76-2.19-4.34ZM492.32,76l.95-1.1,3.2,1.07Zm1.35,6.86-.91-.51,3.34-1.67Zm2.14,15.48-.14-1.41,1.32.82ZM499,96.36l-3.15-3.74,1.78-1.46,3.08.27Zm-3.78-4.48-.06-.07-.29-3.1,2.14.15Zm.07-8.14,5.46-1.19-1.89,3.19ZM495,72.84l2.77-3.22,2,1.87Zm3.7-7.32-4.76-1.35,2.26-4.67L499.62,65Zm-3.3,1.94L491.14,70l2.15-4.44ZM493,103l-.4,3.15-.54.38-2.35-7.64Zm-.45,3.53-.14,1.14-.29-.94Zm-.6,4.85-.08.61-1.1-3Zm-.21,50.38-.64-.57.22-.8Zm-2.55-8.44,0,2.76-2-1.53,1.06-1.85.95.44Zm-.79-1,.32-.57.29.95Zm-1.62,2.82,2.39,1.47v2.82L486,156.6Zm2.37,4.85,0,3.41-4.38-4.73.81-1.4Zm20.09-9.23.54-.1-.27.62Zm1.44-7.52.42.14-.14.16Zm1.38,1.5-.57-.62.46-.46.79.26-.35.8Zm5.08-3.48-.17-.11,1.8-2,.29,0-1.13,1.72Zm.66-.21-.3.44-.35-.22Zm-.59-7.14,1.3-.91-.8.8Zm2.8,6.38.5-.18.18.28-.94,1.76-1.1-.11Zm-.6-12.45-3.65.1,2.86-1.33.67-.13,1.67.24ZM516.68,139l.42,0-1.16,1.49-.48-.31Zm-7.88,16.82.33.35-.58.37Zm1.42-3.31,0,.05,0,0Zm-.44,4.38,1.13,1.22-4.1,3.45,1.33-3.84Zm.68-3.8-.14-.27.33-.43,2.82-.83Zm1.6-2.52.28-.36.24.16Zm3-11.68-.6.69-.67-.42.37-.32Zm-.54-5.14.93-.18-.39.34Zm.15,10.82-.78,0,.22-.24Zm-.16,1.43-.44.67-.21,0-.84-.91Zm-.16,6.81-.22.14.05-.07ZM514,153l-.07.12-2.62,1.68-.33-.62Zm2.18.69-3.79,3.19-.52-1Zm-1-7.19.26-.33.85.11Zm.12-23.49-2.15.47,2.29-1.85Zm-2.46,21,.27.09-.49.64h0Zm-1.25,6.35-.36.54-.91.37.25-.72Zm-5,7.39-1.52,1-.48-2.08,3-1.18Zm-1.42,1.44,1-.51-.75,1.7Zm7.83-1-.16-.3.86-.55C513.57,157.58,513.34,157.87,513.11,158.15Zm8-15.82.4-.61.46.69Zm1.78-2.7.13-.2,1.15.07-.21.58Zm2.14-2.59-.36-.11.87-1.32Zm.51,3.2,0,.47-.16-.07Zm3.78-5.56,0,.35-1.41.72.44-.84Zm-1.68-22.93,4.77-3.86.71.8-1,4.64Zm1.56,25.38-.06,1.19-.8-.25-.39-.51Zm3.92-.06,0-1.31,2.07-.71ZM540,106.13l1.21-6.13,2.06.66Zm9.31-15.55-5.74,9.58-2-2,.33-1.69-.63,1.4L535,91.81Zm-8.86,9.17-4.36,9.71-1.81-5.77-.6,2.69-2.86-9.73Zm-14.26,1.64,3,3.77L528.13,103l4.31,4.84-7,3.54Zm-.91,12.31,1.82-1.48,1.27,5.3-3.44.84Zm-.9-49-.87,4-2.55,0Zm-2.19,9.93-.17.74h0l-.29-.5Zm-1,30.66,1.2,2.45,1.12,4.67-4,2L519,112Zm-2.55,8,.41,1.37-1,.51Zm1.41,4.67,0,.09v-.1l4-3.23.88,3.66-4.77,1.18,3.47,1.62-8.09,1.78.59-1.83Zm-3.46-7-.52,5.17-1.35.69-.15-3.18Zm-2.65,3.51.43,2.53-3.78,1.9h0Zm-3.72-3,2.59-3.71.05.27-.94,2.81-1.76,1.53Zm0,37.38.33.21-.17.38-.93.28Zm-.45-.3-1,1.28-.67-1.28,1.51-.09Zm-.4-35.83,0,.34-.64.56ZM508.1,147.5l.42.27-.77.15,0,0Zm-.38-.24-.2.22-.28-.53Zm-.11,7.29-3,1.53-.41-1.78,1.45-.42-.8,1,.95-1.07.94-.27Zm-3.57-.77-.42-1.85.12-.12,1.16-.21,1.24,1.34Zm1.42-57.17.51-.12,0,.31-.75.53Zm.28,3.65v.06L503.88,102l.14-.92Zm-3.65-12.75v0h0Zm1.79,4.22-.52,2.8-1.82.91Zm-2.72-1.54-3.45.92,2.48-2,1.33.1Zm.08-29.38-4-3.47,1.46-3Zm-6.33-16.26,3.41,8.75-2.32,3-3.49-3Zm-2.47,8.92L495,57.55,489.3,64.8Zm-3.23,97.73-.06-.15.07-.1Zm-2.87-42.6.62,5-1.52-2.18-.34-7ZM485,149.18l-.11.44-.22-.1Zm-.36.38.24.08-.12.46-.41-.25ZM484.5,151l-.34,1.32-1.29-1,.74-.77Zm-2-45.86.46,2.73-.58-.84Zm-.68,10.15.42,0,.42,1.09-.87-.74Zm.22,37,1.87,1.14-.28,1.09-2-1.8Zm1.31,3.35-.31,1.22L480.37,154l.34-.35Zm-2.25-8.77-.42.78-.62-.38.77-.48Zm-1.85-39.19.94,2.42.12,2.31-1.83-.84Zm-1.15,35.57-.44.48-.81-.28.61-.2Zm-.79-40.58.09.23,0,.64-.36,0Zm-.16,4.32-.23,3.85-2.11-1-.1-.09.78-2.15ZM475.24,99l-.79,4.26-1.82-.14Zm-3.11-9.18L467.9,97l-.87.41L469,90.55Zm-1.69-4.6.29-1,.62.21ZM463.7,72l7.46,6.82-7.58,2.13Zm-.13,9.83,5.84,2-4.33,6.31-1.64,1.47Zm-.13,10,.57-.12-.58.85Zm-1.81,38.72h-.18l-.49-.75.61-.14Zm-.67-2,.58.6,0,.27h-.71Zm-.25,17.13,0,.09-1.44-.65.3-.06Zm-3.59-4.09.16,0,.31.13-.1.09Zm-.29-16.75,1.8,4.57h-.09l-2.47-3Zm-1.41,3,.71,1.14-.85-.84ZM452,126.27l.22.26.4,1.1-1.12-.93Zm.43,3h-.12l-2.11-1.44.42-.37Zm-1.84-7.13.69,1.86-1.51-1.49Zm-1.42.65,2.29,2.8-1,.21-2.54-2.1,1.08-.82Zm.86,6.47h-1.06l-.24-.13.55-.49Zm-2.06-20.71V109l-.84-.66Zm-.34,14.93h0ZM444.74,120l-.48.83-.84-.7Zm-5.51-14.11,2.8.88L443,108ZM443,121.72l-.85.65-2.74-1.88,2.49,2.07-2.2,1.69-1.23-.66,1.11.75L438,125.5,434.52,121l8.64-.85.95,1-1.05,1.85Zm.42,5.53,0-.29.33.22Zm1.3-.27-1.37-.75-.06-.77,1.36-.62,2.09,1.73Zm.6-2.45,1.6-.71,2.26,2.25-1.24.26Zm7.36,16.74,3.35,1.8-.44.39-1.05-.42Zm7.53,7.17-3.11-3c1.06.59,2.16,1.22,3.31,1.9Zm7.39,6.36.28-2.67,1.31.91ZM474,160l-1.27-4.39c.86.66,1.7,1.34,2.54,2Zm7.08,4.43-1.71-3.13c.69.66,1.35,1.33,2,2Zm22.07,7.71,2.6-7.5,1.15,2.16c-1.34,2.09-2.43,3.94-3.22,5.34Zm18.69-16.81-.57-.62,1.17-1Zm18.9-18.44-.66.38.7-.72Zm7.57-.58.57.6-4.23,1.48Zm-2.86,5.09,5.78-2,1,1Zm8-7,1.12.48-1.12.39Zm0,3.28,0-1.55,2-.88,2.89,1.23Z" style="opacity:0.30000000000000004"></path><path d="M202.79,128.86l27-1.47-26-.16,25.44-3.06L203,125.73l22.37-4.29-24.52,3L219,119.33l-21.59,4.17,13.25-5.59-17.67,5,8-5.68-13.11,5.42,2.65-5.44-8.17,5.54-2.52-4.93-3,5.16-2.89-3,13.74-5.09-10.1.24,17.08-10.42-14.26,5.89,19.06-14.84-17.26,11,19.54-18-18.86,15L201.5,84.2l-19,17.76,16.38-19.69L181,101.34l13.31-18.48-15.74,19,9.67-16.21-12.82,17.86,5.7-13,3.37-.29L170,86.7l20.51-7.38-18.21,2.4L194,69.17l-20.55,8.07,21.13-16.56-21.29,12.9,19.12-19.1L171.91,71l15.93-20.09L169.48,69.54l12-19.66L166.2,69.35l7.64-18L163.37,68.6h-.69l2.86-13.68-5.85,13.7h-1.92l-.43-5.37,7-8.12-12.8,7.53L161,43,149.68,57.5l6.69-24.12-9,20.14,3.51-26.61L144.65,51l.3-27-3.1,26.1-2.68-25.5,0,26.19-5.2-22.43L136.64,53,129.5,34.73l5.06,21.65-2.91-4.56.72-1.48-.92,1.17-4.69-7.35,1-3.48-1.31,2.93-.33-.51.26.66-7.66,17.06,3.52-26.61L116,58.32l.29-27-3.1,26.11L110.53,31.9l0,26.19-5.2-22.43L108,60.25,100.85,42l5.06,21.64L97.43,50.4l6.9,17.71-9.21-8,8.19,13.13L95.45,71v-.35l-.07.33-1.44-.41,1.26,1.15L91.31,88.57,87.15,63.89,87.49,86l-8.08-25.6L84,84.83,72.84,60.23l8.24,25-13.22-22L78.9,87,64.7,68.84,77.57,90,63.39,76.49,77.13,94l-13.3-8.44L77.57,98.65,65.85,95.3l13,8.43-4.86.79L70,101.46l2.35,3.32-2.54.41-8.72-5.1,9.18,7.47L53.42,99.62l13.34,8-19.49-7.54,17,8.13-21.17-6.67L63,109.32,41.2,104,63,110.9l-21-3.55,22.47,5.52-18.85-1.33,21.68,3.59-15.16,1.2,19.24,1.22-5.95,2.31-.82-1,0,1.38-3.2,1.25,3.18-.32,0,3-9.61-7.5,4.64,6.56L46,115.26l9.17,7.47-16.89-7.94,13.34,8L32.1,115.26l17,8.12-21.17-6.67,19.87,7.78L26,119.15l21.79,6.91-21-3.54L49.27,128,30.42,126.7l21.68,3.6L37,131.5l19.24,1.21-10,3.89,15.12-1.49-3.7,6.51,9.51-4.29,3.27,8.79,2.82-6.94,10.23,10.49-4.32-9.14L85.57,145l-1.69,1.51,3-.62,4.91,3.4L91.08,153l2.37-2.56,2.11,1.45-1.83-1.75L94.8,149l2,1.29,2.06,8.46.38-3.66,2.4-1.51,0,0,3.64,7.09-.35.65.45-.46,1.17,2.28-.78-2.69,2-2.08.86.74,4,5.58-.25,1,.42-.74.66.92-.58-1.06.56-1a38.66,38.66,0,0,1,6,8.33h-4.11l5.9,4.43L114,178.08l4.43,5.17L111,185.47l2.21,11.07-4.43-.74,3.69,28.8-5.9-3.69,5.17,26.58s.73,5.17.73,22.15-10.33,35.44-11.81,44.3,0,19.2,0,19.2h55.78s1.68-10.34,0-19.2-13.38-27.32-13.38-44.3.84-22.15.84-22.15l5.85-26.58-6.69,3.69,4.19-28.8-5,.74,2.51-11.07-8.37-2.22,5-5.17-3.69-.65a46,46,0,0,1,1.91-5.18l.11-.07h-.08a61.56,61.56,0,0,1,6.08-10.68l2,2.15-1.49-2.85.47-.64,5.47-4.71,1.1.71-2.22,6.05,3.85-5,.85.55-.69-.76,3.09-4,1.66,7.23,2.61-8.53L169,157l-2.35-7.1,11.15,3-7.3-5.08,14.9.44-11.73-2.65,17.46-2.13-15.18-.07,8.8-2.09.54.58v-.71l9.26-2.2-9.27,1.28v-1.64l5.48-1.87,7.95,3.39-4.9-4.43,1.7-.58-1.84.46-2.39-2.15.08,0,19.42,4.13-14.41-5.51,24,2.31-20.09-3.88,26.54.37Zm-20.72,9.68-4.78,1.19,4.16-1.86Zm-3.2-3.44.34.37L178,136Zm-40.14,31.56-.78-3.39.48-1.38,4.81-3.11.6.65C141.88,162,140.16,164.44,138.73,166.66Zm-6.62,5.52-2.62.22-5.62-13.94,1,.63-1.11-.83-.07-.17,1.83-6.45,4.23,17.22.48-17.65,2.1,3.93-1.86.73,1.95-.56,1.15,2.14-2.74,1.39,2.87-1.13L135,160l-1.83,1.17,1.93-1,1.27,2.39Zm-6.54.38a63.27,63.27,0,0,0-4.33-5.67l.62-2.21,1.11,1-1.07-1.15.87-3.09.79.59,3.19,10.58-.37,0Zm-29.16-45,1,2.55-.78.07Zm3.28,1.55.32.22.29.54-.41,0Zm2.53-1.1,1.1,1.6h-.07l-.65-.62Zm.14,5.73-1.38.6-.15-.62h1.51Zm0-30.74-.5,0,.9-1.14ZM102,133.16l.25.46-1.53-.19-.14-.54Zm4.27.8.23.33-1.67.59-.43-1.12.06-.14Zm-1.4-25.49.33-.12-.07.35Zm1.46,6.43.66-.15,1.12,1.55Zm.82,39.29-.89-1.62,2.16,2.37-.07.12Zm1.48-1.52.68.61-.09.17Zm4.83,6.48-2.78-3.74.45-.47,3.29,3-.43,1.67Zm-2.77-10.69,1,.45-.11.19Zm4.58,12.3.78-1.34,4.78,4.36v2.67A72.45,72.45,0,0,0,115.31,160.76Zm21.71-53,0,.69-3.07,4.37.42-2.67Zm-2.17-.89.24-1.53,2.16-1.49v.32Zm.4,44.6-.43-1.84,1.29,1.4-.21.25Zm.17.35-.08.08v-.06Zm.76-.71.06.07-.18,0Zm-2.69-51.52L132,97.84l2.37-.56Zm-3.89,9.51.15.18-.94,2.43-.18-1.95Zm-1.1-.67-.07-.8.4.51Zm1.22-1.1-1.37-2.72,3.92-1.87-1.35,3.51ZM128,103.57l-.44-4.68,2.17-.52.25.15-1.59,4.58,2.52-4,1.82,1.14Zm-3.88-15,2.37.16-.29,2.3Zm1.48,7.24-.34,2.76-2.18-4.34ZM124.05,76l1-1.1,3.2,1.07Zm1.36,6.86-.92-.51,3.34-1.67Zm2.13,15.48-.13-1.41,1.31.82Zm3.22-1.94-3.15-3.74,1.78-1.46,3.08.27ZM127,91.88l-.06-.07-.29-3.1,2.14.15Zm.08-8.14,5.45-1.19-1.89,3.19Zm-.33-10.9,2.77-3.22,2,1.87Zm3.71-7.32-4.77-1.35,2.26-4.67L131.35,65Zm-3.3,1.94L122.87,70,125,65.53ZM124.74,103l-.4,3.15-.54.38-2.35-7.64Zm-.44,3.53-.15,1.14-.28-.94Zm-.61,4.85-.08.61-1.1-3Zm-.21,50.38-.64-.57.23-.8Zm-2.55-8.44v2.76l-2-1.53,1.06-1.85.95.44Zm-.79-1,.33-.57.28.95Zm-1.62,2.82,2.39,1.47v2.82l-3.19-2.86Zm2.37,4.85,0,3.41-4.37-4.73.8-1.4Zm20.1-9.23.54-.1-.27.62Zm1.44-7.52.41.14-.14.16Zm1.38,1.5-.58-.62.46-.46.79.26-.35.8Zm5.07-3.48-.17-.11,1.8-2,.29,0-1.13,1.72Zm.66-.21-.29.44-.35-.22Zm-.59-7.14,1.3-.91-.8.8Zm2.8,6.38.5-.18.18.28-.93,1.76-1.11-.11Zm-.6-12.45-3.65.1,2.86-1.33.67-.13,1.67.24ZM148.42,139l.41,0-1.15,1.49-.49-.31Zm-7.89,16.82.33.35-.58.37Zm1.42-3.31,0,.05,0,0Zm-.43,4.38,1.12,1.22-4.1,3.45,1.33-3.84Zm.68-3.8-.15-.27.34-.43,2.82-.83Zm1.59-2.52.28-.36.24.16Zm3-11.68-.6.69-.67-.42.37-.32Zm-.54-5.14.93-.18-.39.34Zm.16,10.82-.79,0,.22-.24Zm-.16,1.43-.45.67-.21,0-.84-.91Zm-.17,6.81-.22.14.05-.07Zm-.34.14-.07.12-2.62,1.68-.32-.62Zm2.18.69-3.78,3.19-.53-1Zm-.95-7.19.25-.33.85.11ZM147.1,123l-2.15.47,2.29-1.85Zm-2.46,21,.28.09-.5.64h0Zm-1.24,6.35-.36.54-.92.37.25-.72Zm-5,7.39-1.53,1-.48-2.08,3-1.18ZM137,159.18l1-.51-.74,1.7Zm7.83-1-.16-.3.86-.55C145.3,157.58,145.07,157.87,144.84,158.15Zm8.06-15.82.39-.61.46.69Zm1.77-2.7.14-.2,1.14.07-.21.58Zm2.15-2.59-.37-.11.87-1.32Zm.51,3.2,0,.47-.17-.07Zm3.77-5.56,0,.35-1.4.72.43-.84Zm-1.68-22.93,4.78-3.86.7.8-1,4.64ZM161,137.13l0,1.19-.81-.25-.39-.51Zm3.93-.06,0-1.31,2.06-.71Zm6.82-30.94,1.21-6.13,2.06.66ZM181,90.58l-5.74,9.58-2-2,.34-1.69-.63,1.4-6.32-6.11Zm-8.86,9.17-4.36,9.71L166,103.69l-.6,2.69-2.86-9.73Zm-14.26,1.64,3,3.77L159.87,103l4.3,4.84-7,3.54ZM157,113.7l1.83-1.48,1.27,5.3-3.45.84Zm-.9-49-.87,4-2.54,0Zm-2.19,9.93-.16.74h0l-.29-.5Zm-1,30.66,1.19,2.45,1.12,4.67-4,2-.42-2.47Zm-2.56,8,.42,1.37-1,.51Zm1.42,4.67,0,.09v-.1l4-3.23.88,3.66-4.78,1.18,3.47,1.62-8.09,1.78.59-1.83Zm-3.47-7-.52,5.17-1.35.69-.15-3.18Zm-2.65,3.51.43,2.53-3.77,1.9h0Zm-3.71-3,2.58-3.71,0,.27-.94,2.81-1.76,1.53Zm0,37.38.32.21-.16.38-.93.28Zm-.46-.3-1,1.28-.67-1.28,1.51-.09Zm-.39-35.83v.34l-.64.56Zm-1.24,34.78.42.27-.77.15,0,0Zm-.38-.24-.2.22L139,147Zm-.1,7.29-3,1.53-.41-1.78,1.45-.42-.79,1,.94-1.07.95-.27Zm-3.58-.77-.42-1.85.13-.12,1.15-.21,1.24,1.34Zm1.43-57.17.5-.12,0,.31-.74.53Zm.27,3.65v.06L135.61,102l.15-.92Zm-3.65-12.75v0h0Zm1.79,4.22-.52,2.8-1.82.91Zm-2.71-1.54-3.45.92,2.47-2,1.33.1ZM133,60.81l-4-3.47,1.46-3Zm-6.32-16.26,3.4,8.75-2.32,3-3.49-3Zm-2.48,8.92,2.55,4.08L121,64.8ZM121,151.2l-.06-.15.06-.1Zm-2.87-42.6.61,5-1.52-2.18-.33-7Zm-1.38,40.58-.11.44-.22-.1Zm-.36.38.24.08-.12.46-.41-.25Zm-.11,1.45-.34,1.32-1.29-1,.74-.77Zm-2-45.86.45,2.73-.58-.84Zm-.69,10.15.42,0,.42,1.09-.87-.74Zm.23,37,1.86,1.14-.27,1.09-2-1.8Zm1.3,3.35-.31,1.22L112.11,154l.33-.35Zm-2.25-8.77-.42.78-.61-.38.76-.48ZM111,107.64l.94,2.42.12,2.31-1.83-.84Zm-1.15,35.57-.43.48-.82-.28.61-.2ZM109,102.63l.09.23,0,.64-.36,0Zm-.16,4.32-.23,3.85-2.11-1-.1-.09.79-2.15ZM107,99l-.79,4.26-1.81-.14Zm-3.11-9.18L99.64,97l-.87.41,1.92-6.85Zm-1.69-4.6.29-1,.63.21ZM95.44,72l7.45,6.82-7.57,2.13ZM95.3,81.8l5.84,2-4.33,6.31-1.64,1.47Zm-.13,10,.58-.12-.59.85Zm-1.81,38.72h-.18l-.49-.75.62-.14Zm-.67-2,.58.6,0,.27h-.71Zm-.25,17.13,0,.09L91,145l.3-.06Zm-3.59-4.09.17,0,.31.13-.1.09Zm-.28-16.75,1.79,4.57h-.08l-2.48-3Zm-1.42,3,.72,1.14L87,128Zm-3.47-1.44.22.26.4,1.1-1.12-.93Zm.43,3H84l-2.11-1.44.42-.37Zm-1.83-7.13L83,124l-1.52-1.49Zm-1.43.65,2.3,2.8-1,.21-2.55-2.1,1.08-.82Zm.86,6.47H80.65l-.24-.13.55-.49Zm-2.06-20.71V109l-.84-.66Zm-.34,14.93h0ZM76.47,120l-.47.83-.85-.7ZM71,105.84l2.79.88.92,1.29Zm3.73,15.88-.84.65-2.75-1.88,2.5,2.07-2.21,1.69-1.22-.66,1.1.75-1.51,1.16L66.25,121l8.64-.85,1,1-1,1.85Zm.43,5.53,0-.29.34.22Zm1.29-.27-1.37-.75-.06-.77,1.36-.62,2.09,1.73Zm.61-2.45,1.59-.71,2.26,2.25-1.23.26Zm7.36,16.74,3.35,1.8-.45.39L86.24,143Zm7.53,7.17-3.11-3c1,.59,2.16,1.22,3.3,1.9Zm7.38,6.36.28-2.67c.44.3.88.6,1.31.91Zm6.41,5.24-1.27-4.39c.86.66,1.71,1.34,2.54,2Zm7.08,4.43-1.71-3.13c.69.66,1.36,1.33,2,2Zm22.07,7.71,2.6-7.5,1.15,2.16c-1.34,2.09-2.43,3.94-3.22,5.34Zm18.7-16.81-.57-.62,1.16-1Zm18.89-18.44-.66.38.7-.72Zm7.58-.58.56.6-4.23,1.48Zm-2.87,5.09,5.78-2,1,1Zm8-7,1.13.48-1.12.39Zm0,3.28,0-1.55,2-.88,2.88,1.23Z" style="opacity:0.30000000000000004"></path></g><g id="freepik--Plants--inject-126"><path d="M623,324.46c.52-2.59,7.27-7.29,9.11-9.21a142.27,142.27,0,0,0,11.9-13.7c3.76-5.08,8.48-12.31,6.58-19-2.39-8.34-11.26-8.41-17.71-11.78-9-4.68-8-11.82-10.86-20.25-3.38-9.87-13.24-13.61-23-11.75-11.54,2.2-18.24,10.64-24.27,20-10.28,16-27.32,18.15-43.08,8.2-17.42-11-51.46,10.63-42,31.8,8.2,18.46,28.72,18.46,31.79,22.57a60.33,60.33,0,0,1,5.13,8.2h95.4Z" style="fill:#92E3A9"></path><path d="M623,324.46c.52-2.59,7.27-7.29,9.11-9.21a142.27,142.27,0,0,0,11.9-13.7c3.76-5.08,8.48-12.31,6.58-19-2.39-8.34-11.26-8.41-17.71-11.78-9-4.68-8-11.82-10.86-20.25-3.38-9.87-13.24-13.61-23-11.75-11.54,2.2-18.24,10.64-24.27,20-10.28,16-27.32,18.15-43.08,8.2-17.42-11-51.46,10.63-42,31.8,8.2,18.46,28.72,18.46,31.79,22.57a60.33,60.33,0,0,1,5.13,8.2h95.4Z" style="fill:#fff;opacity:0.23"></path><path d="M621.94,329.59s1-5.12,1-5.13c.52-2.59,7.27-7.29,9.11-9.21l1.12-1.19a30,30,0,0,1,3.71-4.49c.81-.82,1.73-1.68,2.7-2.58,1.51-1.77,3-3.57,4.37-5.44,1.11-1.5,2.3-3.19,3.38-5a8.47,8.47,0,0,0,0-4.68,15.23,15.23,0,0,0-19-10c-5.92,1.88-12.46,7.45-19,6.47-9-1.36,10.86-17.19,9.05-26.23s-19-19-36.18-4.53-7.69,25.78-9.95,35.28-18.09-1.36-28.49-12.66-29-14.48-37.09-2.72,16.73,22.62,29.85,27.14c12.16,4.19,4.88,22.38,3.76,25Z" style="fill:#92E3A9"></path><line x1="572.22" y1="329.92" x2="601.17" y2="263.88" style="fill:none;stroke:#263238;stroke-miterlimit:10"></line><line x1="580.81" y1="310.47" x2="623.78" y2="293.28" style="fill:none;stroke:#263238;stroke-miterlimit:10"></line><line x1="577.19" y1="318.16" x2="522.02" y2="292.83" style="fill:none;stroke:#263238;stroke-miterlimit:10"></line><line x1="590.31" y1="287.4" x2="585.34" y2="271.57" style="fill:none;stroke:#263238;stroke-miterlimit:10"></line><line x1="600.26" y1="302.78" x2="621.07" y2="305.04" style="fill:none;stroke:#263238;stroke-miterlimit:10"></line><line x1="544.18" y1="303.23" x2="536.49" y2="288.76" style="fill:none;stroke:#263238;stroke-miterlimit:10"></line><line x1="553.68" y1="307.3" x2="525.18" y2="315.9" style="fill:none;stroke:#263238;stroke-miterlimit:10"></line><path d="M714.36,327c.28-1.39,3.88-3.9,4.86-4.92a77.52,77.52,0,0,0,6.35-7.31c2-2.71,4.53-6.57,3.51-10.12-1.27-4.45-6-4.49-9.45-6.29-4.78-2.49-4.26-6.3-5.8-10.8-1.8-5.27-7.06-7.26-12.25-6.27-6.15,1.17-9.73,5.67-12.94,10.68-5.49,8.53-14.58,9.69-23,4.38-9.3-5.87-27.46,5.67-22.44,17,4.38,9.86,15.32,9.86,17,12.05a31.71,31.71,0,0,1,2.73,4.37h50.9Z" style="fill:#92E3A9"></path><path d="M714.36,327c.28-1.39,3.88-3.9,4.86-4.92a77.52,77.52,0,0,0,6.35-7.31c2-2.71,4.53-6.57,3.51-10.12-1.27-4.45-6-4.49-9.45-6.29-4.78-2.49-4.26-6.3-5.8-10.8-1.8-5.27-7.06-7.26-12.25-6.27-6.15,1.17-9.73,5.67-12.94,10.68-5.49,8.53-14.58,9.69-23,4.38-9.3-5.87-27.46,5.67-22.44,17,4.38,9.86,15.32,9.86,17,12.05a31.71,31.71,0,0,1,2.73,4.37h50.9Z" style="fill:#fff;opacity:0.23"></path><path d="M713.81,329.74l.55-2.73c.28-1.39,3.88-3.9,4.86-4.92l.6-.63a15.66,15.66,0,0,1,2-2.4c.43-.43.92-.89,1.44-1.38.8-.94,1.59-1.9,2.33-2.9.59-.8,1.23-1.7,1.81-2.67a4.53,4.53,0,0,0,0-2.5,8.13,8.13,0,0,0-10.15-5.35c-3.16,1-6.65,4-10.13,3.46-4.82-.73,5.8-9.18,4.83-14s-10.14-10.14-19.31-2.42-4.1,13.76-5.31,18.83-9.65-.73-15.2-6.76-15.44-7.72-19.79-1.45,8.93,12.07,15.93,14.48c6.49,2.24,2.6,12,2,13.34Z" style="fill:#92E3A9"></path><line x1="687.28" y1="329.92" x2="702.73" y2="294.68" style="fill:none;stroke:#263238;stroke-miterlimit:10"></line><line x1="691.87" y1="319.54" x2="714.8" y2="310.37" style="fill:none;stroke:#263238;stroke-miterlimit:10"></line><line x1="689.94" y1="323.64" x2="660.5" y2="310.13" style="fill:none;stroke:#263238;stroke-miterlimit:10"></line><line x1="696.94" y1="307.23" x2="694.28" y2="298.79" style="fill:none;stroke:#263238;stroke-miterlimit:10"></line><line x1="702.25" y1="315.44" x2="713.35" y2="316.64" style="fill:none;stroke:#263238;stroke-miterlimit:10"></line><line x1="672.32" y1="315.68" x2="668.22" y2="307.96" style="fill:none;stroke:#263238;stroke-miterlimit:10"></line><line x1="677.39" y1="317.85" x2="662.19" y2="322.44" style="fill:none;stroke:#263238;stroke-miterlimit:10"></line></g><g id="freepik--Speakers--inject-126"><rect x="54.67" y="143.67" width="106.67" height="188" style="fill:#616161;stroke:#263238;stroke-linecap:round;stroke-linejoin:round"></rect><rect x="81.33" y="143.67" width="80" height="188" style="fill:#b0b0b0;stroke:#263238;stroke-linecap:round;stroke-linejoin:round"></rect><circle cx="122" cy="176.33" r="21.33" transform="matrix(0.16, -0.99, 0.99, 0.16, -71.6, 268.51)" style="fill:#616161;stroke:#263238;stroke-linecap:round;stroke-linejoin:round"></circle><circle cx="122" cy="248.33" r="36" style="fill:#616161;stroke:#263238;stroke-linecap:round;stroke-linejoin:round"></circle><rect x="350.67" y="143.67" width="106.67" height="188" style="fill:#616161;stroke:#263238;stroke-linecap:round;stroke-linejoin:round"></rect><rect x="377.33" y="143.67" width="80" height="188" style="fill:#b0b0b0;stroke:#263238;stroke-linecap:round;stroke-linejoin:round"></rect><circle cx="418" cy="176.33" r="21.33" transform="translate(174.47 559.1) rotate(-80.41)" style="fill:#616161;stroke:#263238;stroke-linecap:round;stroke-linejoin:round"></circle><circle cx="418" cy="248.33" r="36" style="fill:#616161;stroke:#263238;stroke-linecap:round;stroke-linejoin:round"></circle></g><g id="freepik--character-4--inject-126"><path d="M249.11,119.48s-22.1,6.21-25.21,10.7-14.84,68.9-14.84,68.9h56.28s2.42-15,8-24,13.12-24.87,13.12-24.87S308.51,164.72,313,163s8.29-5.87,7.26-12.09-28.32-20-29.36-21.41-7.94-5.53-15.54-7.6S255.68,117.06,249.11,119.48Z" style="fill:#92E3A9;stroke:#263238;stroke-linecap:round;stroke-linejoin:round"></path><path d="M248.1,116.07s-3.95,12.37-3.16,20.26,9.21,12.37,15,11.32,10.53-2.9,11.06-10.53-1.58-16.84-1.58-16.84Z" style="fill:#fff;stroke:#263238;stroke-linecap:round;stroke-linejoin:round"></path><path d="M224.68,161.86c4.74-3.16,14.21-17.9,15.26-25.27a69.47,69.47,0,0,0,.19-14.3c-6.5,2.21-14.45,5.33-16.23,7.89-1.44,2.09-4.74,17.09-7.87,32.56C218.75,165.85,221.4,164.05,224.68,161.86Z" style="fill:#fff;stroke:#263238;stroke-linecap:round;stroke-linejoin:round"></path><path d="M290.9,129.49c-1-1.38-7.94-5.53-15.54-7.6l-2.26-.6c1.08,4.49,3.54,15.37,3.95,23.73.49,9.94,1.87,12.29,1.67,20.43,4.06-7.65,7.69-15.24,7.69-15.24S308.51,164.72,313,163s8.29-5.87,7.26-12.09S291.94,130.87,290.9,129.49Z" style="fill:#fff;stroke:#263238;stroke-linecap:round;stroke-linejoin:round"></path><path d="M224.25,167.48s-6.65.62-10-1" style="fill:none;stroke:#263238;stroke-linecap:round;stroke-linejoin:round"></path><path d="M240.13,123.62s-11.74-2.07-17.26,3.45-11.4,18-11.4,19.69-11.4,26.59-11.4,28,14.85,10.71,21.76,13.82S247,199.25,247,199.25l11-3.11s-19-12.77-22.1-18-11.74-10.7-11.74-10.7,7.25-20,11.05-25.21" style="fill:#fff;stroke:#263238;stroke-linecap:round;stroke-linejoin:round"></path><path d="M264.74,192.22s3.16-.67,3.61.45,4.28,3.83,3.38,5-3.38-.45-3.38-.45Z" style="fill:#fff;stroke:#263238;stroke-linecap:round;stroke-linejoin:round"></path><path d="M250.21,195.38s10.89-5.85,12.3-5.44c1.08.31,3.94,4.16,5.22,5.95a2.07,2.07,0,0,1,.25,1.93h0a2.09,2.09,0,0,1-.74,1,37.91,37.91,0,0,1-3.72,2.46c-.6.2-8.06.4-10.68-.4s-5.8-1.58-5.8-1.58" style="fill:#fff;stroke:#263238;stroke-linecap:round;stroke-linejoin:round"></path><path d="M259.52,191s6.22,6.36,6.42,7.77" style="fill:#fff;stroke:#263238;stroke-linecap:round;stroke-linejoin:round"></path><path d="M256.67,193.37s7.26,5.84,6.85,7.86" style="fill:#fff;stroke:#263238;stroke-linecap:round;stroke-linejoin:round"></path><path d="M253.24,196.39s6.25,3.43,6.65,4.84" style="fill:#fff;stroke:#263238;stroke-linecap:round;stroke-linejoin:round"></path><line x1="286.41" y1="150.21" x2="282.35" y2="148.7" style="fill:none;stroke:#263238;stroke-linecap:round;stroke-linejoin:round"></line><line x1="285.74" y1="145.77" x2="279.64" y2="150.05" style="fill:none;stroke:#263238;stroke-linecap:round;stroke-linejoin:round"></line><line x1="268.8" y1="126.04" x2="267.24" y2="132.68" style="fill:none;stroke:#263238;stroke-linecap:round;stroke-linejoin:round"></line><line x1="245.8" y1="130.88" x2="255.51" y2="136.97" style="fill:none;stroke:#263238;stroke-linecap:round;stroke-linejoin:round"></line><line x1="261.82" y1="136.07" x2="271.3" y2="132.46" style="fill:none;stroke:#263238;stroke-linecap:round;stroke-linejoin:round"></line><path d="M281.67,102s3.61,7.67,3.84,11.28a50.94,50.94,0,0,1-.23,7.67s36.33,26.62,36.55,29.56a14.68,14.68,0,0,1-4.28,11.28c-3.61,3.38-7.22.45-12.86-1.81s-15.8-24.82-19.18-29.33-5.87-8.12-5.87-8.12-5-3.16-5.86-5.19a45.35,45.35,0,0,0-2.26-4.28l5.42-12.64Z" style="fill:#fff;stroke:#263238;stroke-linecap:round;stroke-linejoin:round"></path><path d="M276.2,119.59h0a4.5,4.5,0,0,1-4.07-4.88l1-11A4.49,4.49,0,0,1,278,99.62h0a4.49,4.49,0,0,1,4.08,4.87l-1,11A4.5,4.5,0,0,1,276.2,119.59Z" style="fill:#263238;stroke:#263238;stroke-linecap:round;stroke-linejoin:round"></path><path d="M244.28,92.54s0,16.92,1.73,23.83,9.32,14.16,13.12,14.5,6.56-.69,9.67-4.83,5.87-15.2,6.91-20.72,3.1-11.4,2.07-20.38-18-12.78-25.56-7.6S245,88.05,244.28,92.54Z" style="fill:#fff;stroke:#263238;stroke-linecap:round;stroke-linejoin:round"></path><path d="M241.17,117.75h0a4.49,4.49,0,0,1-4.49-4.49V102.21a4.49,4.49,0,0,1,4.49-4.49h0a4.49,4.49,0,0,1,4.49,4.49v11.05A4.49,4.49,0,0,1,241.17,117.75Z" style="fill:#263238;stroke:#263238;stroke-linecap:round;stroke-linejoin:round"></path><path d="M275.91,104.27c1.08-5.23,2.84-10.91,1.87-19.33-1-9-18-12.78-25.56-7.6s-7.25,10.71-7.94,15.2c0,0,0,5.56.32,11.61l.87.86s5-3.16,5-5.52-.79-6.06-.53-7.9,4.48-.79,7.37,1.84,8.42,4.48,12.37,2.9a15.87,15.87,0,0,0,6.06-4.21s-.53,5.79-.53,7.89A21.75,21.75,0,0,0,275.91,104.27Z" style="fill:#263238;stroke:#263238;stroke-linecap:round;stroke-linejoin:round"></path><path d="M261.52,109.35a5.92,5.92,0,1,1-5.92-5.92A5.93,5.93,0,0,1,261.52,109.35Z" style="fill:#92E3A9;stroke:#263238;stroke-linecap:round;stroke-linejoin:round"></path><circle cx="269.02" cy="110.14" r="5.92" style="fill:#92E3A9;stroke:#263238;stroke-linecap:round;stroke-linejoin:round"></circle><line x1="249.68" y1="108.43" x2="245.47" y2="105.01" style="fill:none;stroke:#263238;stroke-linecap:round;stroke-linejoin:round"></line><line x1="261.52" y1="109.35" x2="262.71" y2="110.54" style="fill:none;stroke:#263238;stroke-linecap:round;stroke-linejoin:round"></line><path d="M254.68,119.49s4.47,4.73,9.74,2.1" style="fill:none;stroke:#263238;stroke-linecap:round;stroke-linejoin:round"></path><polyline points="263.1 112.12 263.63 119.22 258.89 119.49" style="fill:none;stroke:#263238;stroke-linecap:round;stroke-linejoin:round"></polyline><path d="M253.1,101.06s4.74-1.31,7.11,1.85" style="fill:none;stroke:#263238;stroke-linecap:round;stroke-linejoin:round"></path><path d="M264.94,101.33s6.59-1.33,8.17,2.36" style="fill:none;stroke:#263238;stroke-linecap:round;stroke-linejoin:round"></path><path d="M239.94,97.38S239.15,86.59,241,82.9s11.22-5.56,11.22-5.56" style="fill:none;stroke:#263238;stroke-linecap:round;stroke-linejoin:round"></path><path d="M279.16,99.75s1.58-3.69-.79-12.63" style="fill:none;stroke:#263238;stroke-linecap:round;stroke-linejoin:round"></path><rect x="272.67" y="196.33" width="60.67" height="3.67" style="fill:#fff;stroke:#263238;stroke-linecap:round;stroke-linejoin:round"></rect><rect x="305.33" y="157" width="60.67" height="43" style="fill:#fff;stroke:#263238;stroke-linecap:round;stroke-linejoin:round"></rect><rect x="160" y="200" width="206" height="132" style="fill:#263238;stroke:#263238;stroke-linecap:round;stroke-linejoin:round"></rect><rect x="176.67" y="200" width="189.33" height="132" style="fill:#fff;stroke:#263238;stroke-linecap:round;stroke-linejoin:round"></rect><polygon points="274 200 274 195.5 269.5 195.5 269.5 200 261 200 261 195.5 256.5 195.5 256.5 200 248 200 248 195.5 243.5 195.5 243.5 200 235 200 235 195.5 230.5 195.5 230.5 200 222 200 222 195.5 217.5 195.5 217.5 200 151 200 151 213 375 213 375 200 274 200" style="fill:#263238;stroke:#263238;stroke-linecap:round;stroke-linejoin:round"></polygon></g><g id="freepik--Pool--inject-126"><path d="M30.55,329.67A230,230,0,0,0,41.17,363H727.86A149.8,149.8,0,0,0,730,346q.56-8.13,1-16.33Z" style="fill:#fff;stroke:#263238;stroke-miterlimit:10"></path><path d="M34.53,344.35a219.34,219.34,0,0,0,13.25,33.33H724.35A146.77,146.77,0,0,0,730,346c0-.55.07-1.1.11-1.65Z" style="fill:#dbdbdb;stroke:#263238;stroke-miterlimit:10"></path><path d="M42,365c8.19,19.63,19,37.35,32,52,56,63,198,72,303,61s134-15,213-9c72,5.47,124.87-40.55,137.48-104Z" style="fill:#92E3A9;stroke:#263238;stroke-miterlimit:10"></path><line x1="337.93" y1="378.1" x2="419.29" y2="378.1" style="fill:none;stroke:#fff;stroke-miterlimit:10"></line><line x1="413.6" y1="386.23" x2="441.26" y2="386.23" style="fill:none;stroke:#fff;stroke-miterlimit:10"></line><line x1="461.6" y1="397.62" x2="338.75" y2="397.62" style="fill:none;stroke:#fff;stroke-miterlimit:10"></line><line x1="428.24" y1="413.08" x2="554.35" y2="413.08" style="fill:none;stroke:#fff;stroke-miterlimit:10"></line><line x1="527.5" y1="375.65" x2="514.49" y2="375.65" style="fill:none;stroke:#fff;stroke-miterlimit:10"></line><line x1="487.64" y1="385.42" x2="524.25" y2="385.42" style="fill:none;stroke:#fff;stroke-miterlimit:10"></line><line x1="663.38" y1="373.21" x2="691.04" y2="373.21" style="fill:none;stroke:#fff;stroke-miterlimit:10"></line><line x1="709.75" y1="385.42" x2="672.32" y2="385.42" style="fill:none;stroke:#fff;stroke-miterlimit:10"></line><line x1="632.46" y1="407.39" x2="678.83" y2="407.39" style="fill:none;stroke:#fff;stroke-miterlimit:10"></line><line x1="675.62" y1="425.28" x2="543.59" y2="425.28" style="fill:none;stroke:#fff;stroke-miterlimit:10"></line><line x1="436.38" y1="427.73" x2="392.45" y2="427.73" style="fill:none;stroke:#fff;stroke-miterlimit:10"></line><line x1="475.62" y1="425.28" x2="355.91" y2="425.28" style="fill:none;stroke:#fff;stroke-miterlimit:10"></line><line x1="396.51" y1="405.76" x2="369.66" y2="405.76" style="fill:none;stroke:#fff;stroke-miterlimit:10"></line><line x1="343.63" y1="421.22" x2="91.86" y2="421.22" style="fill:none;stroke:#fff;stroke-miterlimit:10"></line><line x1="129.65" y1="434.23" x2="169.52" y2="434.23" style="fill:none;stroke:#fff;stroke-miterlimit:10"></line><line x1="189.86" y1="413.89" x2="119.07" y2="413.89" style="fill:none;stroke:#fff;stroke-miterlimit:10"></line><line x1="88.97" y1="414.71" x2="106.06" y2="414.71" style="fill:none;stroke:#fff;stroke-miterlimit:10"></line><line x1="65.38" y1="374.03" x2="86.53" y2="374.03" style="fill:none;stroke:#fff;stroke-miterlimit:10"></line><line x1="86.53" y1="387.86" x2="75.14" y2="387.86" style="fill:none;stroke:#fff;stroke-miterlimit:10"></line><line x1="176.84" y1="419.59" x2="202.06" y2="419.59" style="fill:none;stroke:#fff;stroke-miterlimit:10"></line><line x1="226.47" y1="444.81" x2="263.08" y2="444.81" style="fill:none;stroke:#fff;stroke-miterlimit:10"></line><line x1="230.54" y1="459.46" x2="318.41" y2="459.46" style="fill:none;stroke:#fff;stroke-miterlimit:10"></line><line x1="450.21" y1="451.32" x2="415.23" y2="451.32" style="fill:none;stroke:#fff;stroke-miterlimit:10"></line><line x1="326.54" y1="439.12" x2="393.26" y2="439.12" style="fill:none;stroke:#fff;stroke-miterlimit:10"></line><line x1="518.55" y1="448.88" x2="615.37" y2="448.88" style="fill:none;stroke:#fff;stroke-miterlimit:10"></line><line x1="687.78" y1="430.17" x2="670.7" y2="430.17" style="fill:none;stroke:#fff;stroke-miterlimit:10"></line><line x1="644.66" y1="426.91" x2="625.14" y2="426.91" style="fill:none;stroke:#fff;stroke-miterlimit:10"></line><line x1="224.43" y1="425.22" x2="279.08" y2="425.22" style="fill:none;stroke:#fff;stroke-miterlimit:10"></line></g><g id="freepik--Umbrella--inject-126"><path d="M568,332.33h-6V18.67a3,3,0,0,1,3-3h0a3,3,0,0,1,3,3Z" style="fill:#fff;stroke:#263238;stroke-linecap:round;stroke-linejoin:round"></path><rect x="413.14" y="76.34" width="74.67" height="16.67" style="fill:#fff;stroke:#263238;stroke-linecap:round;stroke-linejoin:round"></rect><rect x="489.64" y="76.34" width="74.67" height="16.67" style="fill:#fff;stroke:#263238;stroke-linecap:round;stroke-linejoin:round"></rect><rect x="566.14" y="76.34" width="74.67" height="16.67" style="fill:#fff;stroke:#263238;stroke-linecap:round;stroke-linejoin:round"></rect><rect x="642.64" y="76.34" width="74.67" height="16.67" style="fill:#fff;stroke:#263238;stroke-linecap:round;stroke-linejoin:round"></rect><polygon points="564.94 21.52 412.69 76.74 717.19 76.74 564.94 21.52" style="fill:#fff;stroke:#263238;stroke-linecap:round;stroke-linejoin:round"></polygon><line x1="496.79" y1="68.49" x2="490.69" y2="72.5" style="fill:none;stroke:#263238;stroke-linecap:round;stroke-linejoin:round"></line><line x1="562.19" y1="25.5" x2="499.11" y2="66.96" style="fill:none;stroke:#263238;stroke-linecap:round;stroke-linejoin:round"></line><line x1="565.19" y1="41.47" x2="565.19" y2="37" style="fill:none;stroke:#263238;stroke-linecap:round;stroke-linejoin:round"></line><line x1="565.19" y1="73.5" x2="565.19" y2="44.91" style="fill:none;stroke:#263238;stroke-linecap:round;stroke-linejoin:round"></line><line x1="611.66" y1="54.93" x2="571.19" y2="29.5" style="fill:none;stroke:#263238;stroke-linecap:round;stroke-linejoin:round"></line><line x1="641.19" y1="73.5" x2="614.61" y2="56.79" style="fill:none;stroke:#263238;stroke-linecap:round;stroke-linejoin:round"></line></g><g id="freepik--character-3--inject-126"><path d="M591.65,202.73s-6.12,7.07-5.18,9.42.94,7.53.94,7.53-9.41,4.71-7.53,8l1.88,3.3s1.42,16.95,5.65,18.36,12.26-1.06,12.26-1.06l2.34,16.6s-13.18,0-20.25,3.29-12.71,2.36-14.59,9.42a92.87,92.87,0,0,1-4.71,13.19L549.27,303l-.47-51.8s-5.65-22.13-7.06-25.42S534.2,214,529,212.62s-6.37,1-4.23,2.36c5,3.19,7.86,9,7.53,9.59-2,3.73-4.15,7-4,4.8,0,0-4.93,9.62-2.1,13.39s12.24,11.3,12.24,11.3-7.53,28.72-9.42,45.67.48,38.14,4.71,38.14,28.36-11.06,32.23-13.75a92.3,92.3,0,0,0,13-11.67s5.65,21.19,6.12,28.25-6.59,49.44-6.59,52.27S575.64,424,575.64,424h86.64s-3.76-34.84-5.65-45.67,5.65-39.55,7.07-44.26,2.82-11.3,2.82-11.3,12.24-18.84,12.24-29.67-7.06-23.07-15.54-26.37-28.72-7.06-28.72-7.06-8-6.12-7.06-18.37c0,0,13.65-21.18,13.65-22.6s-4.23-11.77-19.3-17.42S595,199.91,595,199.91Z" style="fill:#fff;stroke:#263238;stroke-linecap:round;stroke-linejoin:round"></path><path d="M648.27,265.85a52.59,52.59,0,0,0-10.75,3.39c-4.81,2.26-17.54,3.4-20.08,4.53a20.81,20.81,0,0,0-5.38,4.24" style="fill:none;stroke:#263238;stroke-linecap:round;stroke-linejoin:round"></path><path d="M646.29,317.89A139.39,139.39,0,0,1,635,326.66" style="fill:none;stroke:#263238;stroke-linecap:round;stroke-linejoin:round"></path><path d="M578.94,312.45s-2.23-7-2.8-19.45" style="fill:none;stroke:#263238;stroke-linecap:round;stroke-linejoin:round"></path><path d="M549.27,303s.56,8.64-1.42,15.43" style="fill:none;stroke:#263238;stroke-linecap:round;stroke-linejoin:round"></path><path d="M621.32,188.14s-12.72-6.13-22.61-4.71-18.83,11.3-15.53,12.24,9.88-4.71,9.88-4.71-13.65,10.36-10.36,13.19S603.89,198,603.89,198,596.36,206.5,602,207s8,1.88,8,1.88-1.89,6.6-.48,11.31,8,0,9-1.42,4.24,1.89,2.36,8-6.6,7.06-6.6,7.06,10.83,7.06,13.19,7.53,4.24-5.18,6.12-7.53,12.71-16,12.71-25S631.21,182.49,621.32,188.14Z" style="fill:#263238;stroke:#263238;stroke-linecap:round;stroke-linejoin:round"></path><ellipse cx="593.83" cy="219.46" rx="1.5" ry="2.5" style="fill:#263238"></ellipse><path d="M584.33,234.62s4,3.34,11.67-3" style="fill:none;stroke:#263238;stroke-linecap:round;stroke-linejoin:round"></path><path d="M591.33,214.29s4-5.67,8.67.33" style="fill:none;stroke:#263238;stroke-linecap:round;stroke-linejoin:round"></path><path d="M542,246.62s-2.33-11.33-1.67-13.66a23.66,23.66,0,0,1,2.34-5s-2.34-5.67,0-9.34,3.66-1.33,3.66,3.34,1.67,8.33,2,10,3.94,12.55.47,19.27" style="fill:#fff;stroke:#263238;stroke-linecap:round;stroke-linejoin:round"></path><path d="M534,227.83a18.87,18.87,0,0,1-3.66-4.22c-.85-1.38-2.12-2.54-3.69-1.32-3,2.33-1.67,6.33.33,7.67s8.33,7,9,2.66A5.19,5.19,0,0,0,534,227.83Z" style="fill:#fff;stroke:#263238;stroke-linecap:round;stroke-linejoin:round"></path><path d="M531.39,234.32a18.44,18.44,0,0,1-3.66-4.22c-.85-1.37-2.12-2.53-3.69-1.31-3,2.33-1.67,6.33.33,7.67s8.33,7,9,2.66A5.22,5.22,0,0,0,531.39,234.32Z" style="fill:#fff;stroke:#263238;stroke-linecap:round;stroke-linejoin:round"></path><path d="M529.26,240.91a14,14,0,0,1-3.24-2.55c-.8-.88-1.88-1.55-2.85-.45a3.56,3.56,0,0,0,1.3,5.51c1.63.69,7,3.91,6.88.69A3.82,3.82,0,0,0,529.26,240.91Z" style="fill:#fff;stroke:#263238;stroke-linecap:round;stroke-linejoin:round"></path><polygon points="598.86 295.07 582.36 295.07 580.29 262.34 600.93 262.34 598.86 295.07" style="fill:#92E3A9;stroke:#263238;stroke-linecap:round;stroke-linejoin:round"></polygon><rect x="579.33" y="260.99" width="22.62" height="2.33" rx="1.09" style="fill:#fff;stroke:#263238;stroke-linecap:round;stroke-linejoin:round"></rect><path d="M650.53,286.5,652.8,297s-24.33-2.26-31.12-5.37-8.77-4-8.77-4-10.18-15.28-12.44-16.13-12.17-1.69-15.84-.56-6.51,3.11-5.38,3.68-.56,1.13,2.83.56,6.51-1.13,6.51-1.13h5.09s-11,2.83-12.45,4.81-2.26,5.37-1.13,5.94,4-2.83,4-2.83l7.64-1.7,2.26.29s-9.62,4-10.75,5.09-3.11,3.11-3.11,4,2.26,1.69,2.26,1.69-.28,2,2.55,2.55,9.62-1.41,9.62-1.41,2.83,5.09,7.07,5.94,7.64,1.13,7.64,1.13,19.51,11.59,37,18.38,31.4,7.64,37.9,6.23,3.68-10.75,3.12-13.3-.57-5.66-3.4-17.25-11.31-22.91-20.36-24.89" style="fill:#fff;stroke:#263238;stroke-linecap:round;stroke-linejoin:round"></path><path d="M652.8,297s12.72-1.13,18.1,1.13" style="fill:none;stroke:#263238;stroke-linecap:round;stroke-linejoin:round"></path><path d="M582.36,291.3a74.19,74.19,0,0,1,10.47-2.82" style="fill:none;stroke:#263238;stroke-linecap:round;stroke-linejoin:round"></path><path d="M656.87,379.78c-25,9.32-62.17,3.62-76.72.81-1,6.53-1.68,11.47-1.68,12.38,0,2.82-2.83,31.07-2.83,31.07h86.64S658.81,391.93,656.87,379.78Z" style="fill:#263238;stroke:#263238;stroke-linecap:round;stroke-linejoin:round"></path><path d="M656.87,379.78c-25,9.32-62.17,3.62-76.72.81-.7,4.73-1.26,8.61-1.53,10.75,9.31,4.45,26.53,12.26,32.6,12.26,6.89,0,35.85-9.72,47-13.81C657.77,385.88,657.28,382.38,656.87,379.78Z" style="fill:#92E3A9;stroke:#263238;stroke-linecap:round;stroke-linejoin:round"></path><path d="M577,410c-.69,7.26-1.37,14-1.37,14h19.92Z" style="fill:#92E3A9;stroke:#263238;stroke-linecap:round;stroke-linejoin:round"></path><path d="M662,421.15l0-.21q-.09-.85-.21-1.89l0-.33c0-.27-.07-.56-.1-.85,0-.14,0-.28,0-.42-.15-1.26-.3-2.65-.47-4.15v-.11c-.12-1-.24-2.1-.37-3.2v-.05l-.15-1.36c-9.9,6.66-24.29,12.23-33.68,15.46h35.41l0-.34C662.2,423.25,662.1,422.37,662,421.15Z" style="fill:#92E3A9;stroke:#263238;stroke-linecap:round;stroke-linejoin:round"></path><path d="M609,389.79s-1.5-2-3,.5c0,0-4,23.5-2,26.5s6.5,1.5,6.5-5.5S609,389.79,609,389.79Zm-3,24.58c-.65-2.44.64-21.62.64-21.62.48-2,1-.41,1-.41s.48,11.83.48,17.55S606.66,416.82,606,414.37Z" style="fill:#fff;stroke:#263238;stroke-linecap:round;stroke-linejoin:round"></path></g><g id="freepik--character-2--inject-126"><path d="M384.67,220.86a90.31,90.31,0,0,0-13.34,7.67c-6,4.33-12,15-7.33,23.33s10.33,10,9.67,15-11.34,7-5.67,14.34,7,7.66,7,7.66-10.67,2.34-6.33,12,14,19.34,36,15.67,38-13,42.33-24.67,4.67-16,.33-19-7-4-4.66-6.66,7.33-8.34,1.33-13.67-13.67-5.33-13.67-9.67,3.67-15-9.33-24S389,212.86,384.67,220.86Z" style="fill:#263238;stroke:#263238;stroke-linecap:round;stroke-linejoin:round"></path><path d="M341.3,270s-.15-.87-3.34-4.79-5.52-6-3.63-6.68,3.63-.29,5.22,2.61,3.49,5.95,3.63,7.26S341.88,272.46,341.3,270Z" style="fill:#fff;stroke:#263238;stroke-linecap:round;stroke-linejoin:round"></path><path d="M383.34,226.11s-6.86,11.23-6.86,16.84,5.3,12.78,6.86,17.14,15.59,13.4,18.39,14.34A55.22,55.22,0,0,0,408,276s-2.18,5.61-10,8.1-16.21,2.49-19.33,6.23-20.26,21.2-23.37,25.25a67,67,0,0,1-7.8,8.11l2.81-36.16s4.05-5.61,4.36-7.79-.31-8.73-.31-8.73l8.42-5.92s2.49-2.18,0-1.87-9.35,4.36-9.35,4.36,5.93-6.9,6.87-9.08,1.12-3.79-1.37-2.86-9.24,9.14-9.24,9.14,4.67-10.6,5.61-12.78-.63-4.68-1.87-3.43-8.21,13.23-8.21,13.23,2.75-10.46,2.44-12-1.09-3.08-3-.59-4.36,15.14-4.36,17.32,4.05,14.47,4.05,16S333.47,315,331.6,325.24s-4.05,22.44.31,22.75,25.56-13.4,32.1-17.14,14-8.73,14-8.73l2.18,13.4-.93,17.77a99,99,0,0,0-10,30.86c-2.49,17.45-2.49,39.89-2.49,39.89h95.07s-12.78-38.33-19-51.11S433.21,353,433.21,353s3.43-12.78,5-15.9,7.48-13.71,7.48-13.71,3.74,31.79,5.61,34.59,13.72,5.3,15.27-2.49,1.25-33.66-.62-44.88-8.42-20.58-14-24.94-18.07-6.86-19.32-7.17-7.48-10.6-9-15.27a129.21,129.21,0,0,1-3.12-13.09v-2.19A14.91,14.91,0,0,0,422,234.84c-2.49-7.79-6.54-3.74-7.79-.31l-.31,3.43s-3.12-3.12-5.61-5.92-7.17-3.74-7.17-5.93S383.34,226.11,383.34,226.11Z" style="fill:#fff;stroke:#263238;stroke-linecap:round;stroke-linejoin:round"></path><line x1="347.49" y1="323.68" x2="346.57" y2="333.59" style="fill:none;stroke:#263238;stroke-linecap:round;stroke-linejoin:round"></line><path d="M385.33,244.59a23.12,23.12,0,0,0-9.55,9.31s-1,2.32.18,4.06,4.85,3.81,10.67,0,1-12.37,1-12.37S387.19,244.36,385.33,244.59Z" style="fill:#263238;stroke:#263238;stroke-linecap:round;stroke-linejoin:round"></path><path d="M388.69,241.49a27,27,0,0,1,12.05-9.8s2.81-.82,4.67.75,3.76,6.13-1.46,12.34-14.44-.48-14.44-.48S388.18,243.61,388.69,241.49Z" style="fill:#263238;stroke:#263238;stroke-linecap:round;stroke-linejoin:round"></path><line x1="385.33" y1="244.59" x2="388.69" y2="241.49" style="fill:none;stroke:#263238;stroke-linecap:round;stroke-linejoin:round"></line><line x1="406.72" y1="232.97" x2="415.76" y2="235.15" style="fill:none;stroke:#263238;stroke-linecap:round;stroke-linejoin:round"></line><path d="M404,274.53a10.23,10.23,0,0,0,5-2.33c2.81-2.19,6.18-9.66,6.18-9.66a16.77,16.77,0,0,1-1.87,8.1c-2.19,4.37-4.68,4.68-4.68,4.68A3.14,3.14,0,0,1,404,274.53Z" style="fill:#263238;stroke:#263238;stroke-linecap:round;stroke-linejoin:round"></path><line x1="390.82" y1="252.61" x2="393.31" y2="252.92" style="fill:none;stroke:#263238;stroke-linecap:round;stroke-linejoin:round"></line><path d="M392.69,259.15a9.6,9.6,0,0,0,10-6.54s.62,6.23-1.25,8.73S392.69,259.15,392.69,259.15Z" style="fill:none;stroke:#263238;stroke-linecap:round;stroke-linejoin:round"></path><line x1="400" y1="286.86" x2="410.67" y2="288.2" style="fill:none;stroke:#263238;stroke-linecap:round;stroke-linejoin:round"></line><path d="M408,276a11.48,11.48,0,0,1,0,8.87" style="fill:none;stroke:#263238;stroke-linecap:round;stroke-linejoin:round"></path><line x1="418.67" y1="288.86" x2="432.67" y2="285.2" style="fill:none;stroke:#263238;stroke-linecap:round;stroke-linejoin:round"></line><path d="M446.92,382.34c-8.46,5.35-26.8,15.69-42.59,16.19s-29.5-7.11-35.46-11c-.19,1.63-.37,3.28-.53,4.94a66,66,0,0,1,6.33,5.77c7.47,7.72,17,20.09,21.32,25.85h26.86A163.57,163.57,0,0,1,431,402.86a35.76,35.76,0,0,1,17.08-17.58C447.69,384.28,447.3,383.29,446.92,382.34Z" style="fill:#263238;stroke:#263238;stroke-linecap:round;stroke-linejoin:round"></path><path d="M395.33,285.2,388,297.86s-8.71,7.75-9.33,16S380,332.2,380,332.2a74.4,74.4,0,0,1,28.67-.67,176.08,176.08,0,0,1,28.33,7l7.67-14.67s.33-14.66-4-20.66-5.67-7.67-5.67-7.67l4-14.67-2-.66-6,17s-14.67,3-22.33,14-.67-1.34-.67-1.34-3.67-6.33-14.67-12.33L398,284.09Z" style="fill:#92E3A9;stroke:#263238;stroke-linecap:round;stroke-linejoin:round"></path><path d="M405.33,319.2,402,353.53l1.67.67,3.33-36v51l3.67-.34L408,315.53S405.67,309.86,405.33,319.2Z" style="fill:#92E3A9;stroke:#263238;stroke-linecap:round;stroke-linejoin:round"></path><line x1="381.33" y1="304.86" x2="380.67" y2="297.86" style="fill:none;stroke:#263238;stroke-linecap:round;stroke-linejoin:round"></line><path d="M465.67,287.86s-1.67,5-4.34,21-14,32-13.66,39,3.33,14.34,11,13.67,9.66-7,12-19.67,2.33-43.33,3-46.33,1.33-5,1.33-5Z" style="fill:#fff;stroke:#263238;stroke-linecap:round;stroke-linejoin:round"></path><polygon points="478.56 293.75 462.05 293.75 459.98 261.02 480.62 261.02 478.56 293.75" style="fill:#92E3A9;stroke:#263238;stroke-linecap:round;stroke-linejoin:round"></polygon><rect x="459.02" y="259.67" width="22.62" height="2.33" rx="1.09" style="fill:#fff;stroke:#263238;stroke-linecap:round;stroke-linejoin:round"></rect><path d="M484.18,269.21s-5-7.83-5-4.27a51,51,0,0,0,1.06,8.53S484.18,273.12,484.18,269.21Z" style="fill:#fff;stroke:#263238;stroke-linecap:round;stroke-linejoin:round"></path><path d="M483.47,274s-5-7.82-5-4.27a50.61,50.61,0,0,0,1.07,8.54S483.47,277.87,483.47,274Z" style="fill:#fff;stroke:#263238;stroke-linecap:round;stroke-linejoin:round"></path><path d="M483.3,277.47s-5-7.83-5-4.27a51.06,51.06,0,0,0,1.06,8.54S483.3,281.38,483.3,277.47Z" style="fill:#fff;stroke:#263238;stroke-linecap:round;stroke-linejoin:round"></path><path d="M482.61,281.16s-4.47-7-4.47-3.84a45.45,45.45,0,0,0,1,7.67A3.83,3.83,0,0,0,482.61,281.16Z" style="fill:#fff;stroke:#263238;stroke-linecap:round;stroke-linejoin:round"></path><path d="M460.65,276.9s-2.64-4-2.64-5.45a25,25,0,0,0-.35-6.85c-.7-3.87,2.29-3.87,2.29-1.06Z" style="fill:#fff;stroke:#263238;stroke-linecap:round;stroke-linejoin:round"></path></g><g id="freepik--character-1--inject-126"><path d="M138,305.67s6.67-3.34,16.67-1.67a51.36,51.36,0,0,1,17.66,6.67l31.34,2.66s2-21.66,2-23.66,2-28.34,2-28.34l10,.34s0,21.33,1,27.66,1.66,19,1.66,26.67-.33,10.67-1,14-21.66,2.67-31.66,3S162,329.33,162,329.33,138.33,308,138,305.67Z" style="fill:#fff;stroke:#263238;stroke-linecap:round;stroke-linejoin:round"></path><path d="M169.31,352.4,197,370.67s-26.67,5.33-49.33,6a42.72,42.72,0,0,1-34.34-15S157,343.81,169.31,352.4Z" style="fill:#fff;stroke:#263238;stroke-linecap:round;stroke-linejoin:round"></path><path d="M88,361s-6.67.67-12,14,1,30.67,10.67,37.33,46.66,6,93.33,6.67,76.67.33,86.67-11,5-24.67-.34-34-17.66-11.33-26-9.67-71,10.67-90,10S94.67,358.67,88,361Z" style="fill:#92E3A9;stroke:#263238;stroke-linecap:round;stroke-linejoin:round"></path><path d="M266.67,408a22,22,0,0,0,5.5-11.52C264.58,400,255.31,404,245.33,404c-14.5,0-26-16-52.5-5.5s-30,14-52.5,5.5-32.5-10-50-2.5A27.25,27.25,0,0,1,79.16,404a26.65,26.65,0,0,0,7.51,8.37c9.66,6.67,46.66,6,93.33,6.67S256.67,419.33,266.67,408Z" style="fill:#fff;stroke:#263238;stroke-linecap:round;stroke-linejoin:round"></path><path d="M119.21,299.22s4.61-.3,10.14-.3,10.76,4.3,17.52,11.06,22.75,18.75,23.06,29.51-.62,12.91-.62,12.91-22.13,1.54-33.2,6.77S122.59,365,122.59,365s-13.22-2.46-15.37-8.92-2.46-32.27-2.15-35.66-2.77-15.37-1.23-19.05S119.21,299.22,119.21,299.22Z" style="fill:#fff;stroke:#263238;stroke-linecap:round;stroke-linejoin:round"></path><path d="M146.87,310c-2-2-3.83-3.75-5.59-5.26a37.17,37.17,0,0,1,2.83,5.26c2.15,4.92,5.53,20.6,3.69,24.9s-12.91-2.76-20-8.91S114,306.91,114,306.91s1.23,19.06-2.46,28.59a33.76,33.76,0,0,1-5.83,10,53.56,53.56,0,0,0,1.53,10.58c2.15,6.46,15.37,8.92,15.37,8.92s2.46-.62,13.52-5.84,33.2-6.77,33.2-6.77.93-2.15.62-12.91S153.64,316.75,146.87,310Z" style="fill:#263238;stroke:#263238;stroke-linecap:round;stroke-linejoin:round"></path><path d="M136.73,302.6a21.75,21.75,0,0,0,2.77,9.23" style="fill:none;stroke:#263238;stroke-linecap:round;stroke-linejoin:round"></path><path d="M104.58,328.5l2,23.75s1.75.75,5.25,4,18.25,10,19,10a125.82,125.82,0,0,1,13.5,3.25c2.75,1,4.25,4,6.25,6.5s5.25,2.75,6.75,3.5-1.25,3-3,3-4.5-2.5-4.5-2.5,3.56,12,3.87,14.77c.77,6.76-2.12,6-2.12,6s.82.46-.43,3-3.32-1.71-3.32-1.71a2.44,2.44,0,0,1-2.25,1.75c-1.75,0-3.5-3.25-3.5-3.25l-5.25-9.75s2.25,7.25,1.5,9-1.75,0-1.75,0a68,68,0,0,1-5-10,109.87,109.87,0,0,1-3-12.75l-4.75-3.25a113.93,113.93,0,0,0-18.25-1.5c-10,0-15.5-4.75-17-5.5s-2.5-29.12-2.5-29.12-.5-18.63.25-20.38,1.5-7.75,6.75-6.5,9.25,8.25,9.25,8.25" style="fill:#fff;stroke:#263238;stroke-linecap:round;stroke-linejoin:round"></path><path d="M106.58,352.25a10.16,10.16,0,0,0-9.75,1.25" style="fill:none;stroke:#263238;stroke-linecap:round;stroke-linejoin:round"></path><path d="M140.83,386.75s6.5,13.5,7,15.25" style="fill:none;stroke:#263238;stroke-linecap:round;stroke-linejoin:round"></path><path d="M145.83,383.5s5.25,14,5.75,17.25" style="fill:none;stroke:#263238;stroke-linecap:round;stroke-linejoin:round"></path><path d="M143.94,271.12s2.81,7.23,3.24,10,1.23,4.91-3.69,18.75c-2.49,7-10.82,7.1-16.9,2.15s-11.9-29.4-9.41-37.26,8.89-14.49,15.51-14S143.94,271.12,143.94,271.12Z" style="fill:#fff;stroke:#263238;stroke-linecap:round;stroke-linejoin:round"></path><path d="M137.65,278s3-2.35,5.37-1.48" style="fill:none;stroke:#263238;stroke-linecap:round;stroke-linejoin:round"></path><path d="M134.25,272.28s3.42-4,7.29-1.16" style="fill:none;stroke:#263238;stroke-linecap:round;stroke-linejoin:round"></path><path d="M132.74,272.52s0,5.91,2.61,8.61,6,4.64,4.1,6.2l-3.09,2.05" style="fill:none;stroke:#263238;stroke-linecap:round;stroke-linejoin:round"></path><path d="M140.84,292.09S136,295,131,292.72" style="fill:none;stroke:#263238;stroke-linecap:round;stroke-linejoin:round"></path><path d="M125.14,281.51s.37-1.61,2.94-1.09" style="fill:none;stroke:#263238;stroke-linecap:round;stroke-linejoin:round"></path><path d="M123.82,275.19s.62-2,4.06-1.9" style="fill:none;stroke:#263238;stroke-linecap:round;stroke-linejoin:round"></path><path d="M133.8,256.41S124,260.5,124,265s2.86,46.19.82,55.18-7,11.45-14.72,7.36-9.63-11.4-15.48-16c-1.43-1.13-6.48.39-7.37,5.23-.23,1.2-1.16,20.88-1.16,20.88s-13.18-10.92-9.91-19.5,15.12-13.49,13.49-24.52S81.48,274,86,266.63s7.76-12.26,11.44-18.4,11.45-8.58,18.8-8.58,13.9,6.54,20.44,8.18,13.9-1.64,14.72,7.35-7.27,17-7.27,17l-6.22-14.53Z" style="fill:#263238;stroke:#263238;stroke-linecap:round;stroke-linejoin:round"></path><polygon points="217.73 270.67 202.27 270.67 200.33 240 219.67 240 217.73 270.67" style="fill:#92E3A9;stroke:#263238;stroke-linecap:round;stroke-linejoin:round"></polygon><path d="M219.54,240.92h-19a1.09,1.09,0,0,1-1.09-1.09h0a1.09,1.09,0,0,1,1.09-1.1h19a1.09,1.09,0,0,1,1.09,1.1h0A1.09,1.09,0,0,1,219.54,240.92Z" style="fill:#fff;stroke:#263238;stroke-linecap:round;stroke-linejoin:round"></path><path d="M223,247.67s-4.67-7.34-4.67-4a47.59,47.59,0,0,0,1,8A4,4,0,0,0,223,247.67Z" style="fill:#fff;stroke:#263238;stroke-linecap:round;stroke-linejoin:round"></path><path d="M222.34,252.11s-4.67-7.33-4.67-4a47.42,47.42,0,0,0,1,8A4,4,0,0,0,222.34,252.11Z" style="fill:#fff;stroke:#263238;stroke-linecap:round;stroke-linejoin:round"></path><path d="M222.18,255.41s-4.67-7.33-4.67-4a47.59,47.59,0,0,0,1,8A4,4,0,0,0,222.18,255.41Z" style="fill:#fff;stroke:#263238;stroke-linecap:round;stroke-linejoin:round"></path><path d="M221.54,258.87s-4.19-6.59-4.19-3.6a43,43,0,0,0,.89,7.19A3.6,3.6,0,0,0,221.54,258.87Z" style="fill:#fff;stroke:#263238;stroke-linecap:round;stroke-linejoin:round"></path><path d="M201,254.88s-2.47-3.79-2.47-5.11a23.7,23.7,0,0,0-.33-6.42c-.66-3.62,2.14-3.62,2.14-1Z" style="fill:#fff;stroke:#263238;stroke-linecap:round;stroke-linejoin:round"></path><path d="M242,339.83s8.16-5.63,15.49-1.13,25.82,39.07,34.64,52.39c16.65,25.15,19.4,27.49,21.69,29.86H291.29s-14.65-12.4-26.48-22.82-18.87-31-22.25-32.67S242,339.83,242,339.83Z" style="fill:#fff;stroke:#263238;stroke-linecap:round;stroke-linejoin:round"></path><path d="M170.46,373.35s20.56-22.25,41.4-38,32.95-12.11,33.23,4.51,5.07,65.63,6.76,72.1S254.67,424,254.67,424H230.73s-5.35-7.32-10.14-27-4.79-29.58-4.79-29.58S184.82,372.5,170.46,373.35Z" style="fill:#fff;stroke:#263238;stroke-linecap:round;stroke-linejoin:round"></path><path d="M215.8,367.43s.57-13.8,2.82-21.12" style="fill:#fff;stroke:#263238;stroke-linecap:round;stroke-linejoin:round"></path></g><g id="freepik--musical-notes--inject-126"><path d="M30.9,253.44V253q0-7.94,0-15.87c0-.26.07-.35.34-.4,3.18-.64,6.36-1.3,9.55-2l4.58-.94.38-.07v.4q0,8.75,0,17.49a8.82,8.82,0,0,1-.15,2.06,3.38,3.38,0,0,1-3,2.64,3.55,3.55,0,0,1-3-.63,2.71,2.71,0,0,1-.36-3.8,4.38,4.38,0,0,1,3.67-1.55,2.85,2.85,0,0,1,1.5.59l.36.27V237.7l-2,.49L35.34,240c-1.1.27-2.19.55-3.29.81-.22,0-.21.17-.21.32,0,1.24,0,2.48,0,3.72,0,3.11,0,6.21,0,9.32a11.09,11.09,0,0,1,0,1.41,3.52,3.52,0,0,1-3.26,3.15,3.52,3.52,0,0,1-2.87-.68,2.84,2.84,0,0,1-.66-3.3c.6-1.17,2.92-2.56,4.68-1.87A11.53,11.53,0,0,1,30.9,253.44Z" style="fill:#263238"></path><path d="M351.83,93.46V83.09l-12.92,3.1v.36q0,3.84,0,7.68c0,.76,0,1.52,0,2.27a8.75,8.75,0,0,1-.06,1.62,3.18,3.18,0,0,1-2.16,2.5,4.08,4.08,0,0,1-3.18,0,2.73,2.73,0,0,1-.58-4.68,4.82,4.82,0,0,1,2.34-1.07,3,3,0,0,1,2.43.61,1.49,1.49,0,0,0,.2.15H338V79L352.79,76V94.77A3.41,3.41,0,0,1,351.2,98a4,4,0,0,1-4.05.29,2.68,2.68,0,0,1-.53-4.46,4.29,4.29,0,0,1,3.49-1.2,2.94,2.94,0,0,1,1.45.65Zm0-13.56L338.94,83v1.76l12.89-3.1Z" style="fill:#263238"></path><path d="M301.21,264.53V254.16l-12.92,3.09v8.05c0,.76,0,1.51,0,2.27a9.72,9.72,0,0,1-.07,1.62,3.18,3.18,0,0,1-2.15,2.5,4,4,0,0,1-3.18,0,2.73,2.73,0,0,1-.59-4.68,5,5,0,0,1,2.35-1.07,3,3,0,0,1,2.42.62l.2.15h.06V250.07l14.83-3v18.81a3.41,3.41,0,0,1-1.59,3.2,4,4,0,0,1-4.05.29,2.67,2.67,0,0,1-.52-4.46,4.22,4.22,0,0,1,3.48-1.2,2.9,2.9,0,0,1,1.45.65Zm0-13.56-12.89,3.12v1.75l12.89-3.09Z" style="fill:#263238"></path><path d="M199,75.84V51.35a2.84,2.84,0,0,1,0-.41.77.77,0,0,1,1.54,0,1.69,1.69,0,0,1,0,.55,3.37,3.37,0,0,0,.82,2.63,34.56,34.56,0,0,0,2.49,3,9.13,9.13,0,0,1,2.56,5.35,13.23,13.23,0,0,1-.31,3.3c-.15,1-.38,2-.62,3-.1-1.38-.15-2.77-.3-4.15a13.64,13.64,0,0,0-.81-4.1A2.86,2.86,0,0,0,201,58.78c-.41.06-.54.23-.54.65q0,7.68,0,15.38,0,1.57,0,3.15c.06,3.06-1.67,5.09-4.8,5.64a5.33,5.33,0,0,1-3.38-.47,4,4,0,0,1-1.58-5.63,6.48,6.48,0,0,1,6-2.57A13.94,13.94,0,0,1,199,75.84Z" style="fill:#263238"></path><path d="M475.67,199.48V175a3,3,0,0,1,0-.42.8.8,0,0,1,.75-.73.8.8,0,0,1,.79.74,2,2,0,0,1,0,.55,3.33,3.33,0,0,0,.81,2.63,34.67,34.67,0,0,0,2.5,3,9.25,9.25,0,0,1,2.56,5.35,13.73,13.73,0,0,1-.32,3.3c-.15,1-.38,2-.62,3-.09-1.38-.15-2.77-.29-4.15a14,14,0,0,0-.82-4.1,2.84,2.84,0,0,0-3.32-1.8c-.41.06-.54.22-.54.64,0,5.13,0,10.25,0,15.38q0,1.58,0,3.15c.07,3.06-1.67,5.09-4.8,5.64a5.27,5.27,0,0,1-3.38-.47,4,4,0,0,1-1.58-5.62,6.5,6.5,0,0,1,6-2.58A13.94,13.94,0,0,1,475.67,199.48Z" style="fill:#263238"></path></g></svg>